<svg width="1718" height="1281" xmlns="http://www.w3.org/2000/svg" xmlns:xlink="http://www.w3.org/1999/xlink" xml:space="preserve" overflow="hidden"><defs><clipPath id="clip0"><rect x="1341" y="567" width="1718" height="1281"/></clipPath></defs><g clip-path="url(#clip0)" transform="translate(-1341 -567)"><path d="M1341 1693 3059 1693 3059 1694 1341 1694Z" fill="#EBEBEB" fill-rule="evenodd"/><path d="M1521 1725 1576 1725 1576 1726 1521 1726Z" fill="#EBEBEB" fill-rule="evenodd"/><path d="M1929 1716 2113 1716 2113 1717 1929 1717Z" fill="#EBEBEB" fill-rule="evenodd"/><path d="M1580 1757 1704 1757 1704 1758 1580 1758Z" fill="#EBEBEB" fill-rule="evenodd"/><path d="M2644 1716 2792 1716 2792 1717 2644 1717Z" fill="#EBEBEB" fill-rule="evenodd"/><path d="M2823 1716 2845 1716 2845 1717 2823 1717Z" fill="#EBEBEB" fill-rule="evenodd"/><path d="M2430 1737 2616 1737 2616 1738 2430 1738Z" fill="#EBEBEB" fill-rule="evenodd"/><path d="M2155.37 1539 1491.59 1539C1480.77 1538.98 1472 1530.2 1472 1519.37L1472 586.454C1472.09 575.695 1480.83 567.018 1491.59 567L2155.37 567C2166.21 567 2175 575.786 2175 586.625L2175 1519.37C2175 1530.21 2166.21 1539 2155.37 1539ZM1491.59 567.687C1481.24 567.706 1472.86 576.103 1472.86 586.454L1472.86 1519.37C1472.86 1529.73 1481.24 1538.12 1491.59 1538.14L2155.37 1538.14C2165.73 1538.12 2174.12 1529.73 2174.14 1519.37L2174.14 586.454C2174.12 576.097 2165.73 567.706 2155.37 567.687Z" fill="#EBEBEB" fill-rule="evenodd"/><path d="M2898.44 1539 2234.63 1539C2223.8 1538.98 2215.02 1530.21 2215 1519.37L2215 586.454C2215.11 575.69 2223.86 567.018 2234.63 567L2898.44 567C2909.19 567.037 2917.91 575.708 2918 586.454L2918 1519.37C2918 1530.19 2909.25 1538.96 2898.44 1539ZM2234.63 567.687C2224.27 567.706 2215.88 576.097 2215.86 586.454L2215.86 1519.37C2215.88 1529.73 2224.27 1538.12 2234.63 1538.14L2898.44 1538.14C2908.8 1538.12 2917.19 1529.73 2917.21 1519.37L2917.21 586.454C2917.19 576.097 2908.8 567.706 2898.44 567.687Z" fill="#EBEBEB" fill-rule="evenodd"/><path d="M2680 1405 2703 1405 2703 1693 2680 1693Z" fill="#F5F5F5" fill-rule="evenodd"/><path d="M2693 1405 2713 1405 2713 1693 2693 1693Z" fill="#F0F0F0" fill-rule="evenodd"/><path d="M2148 1405 2171 1405 2171 1693 2148 1693Z" fill="#F5F5F5" fill-rule="evenodd"/><path d="M2161 1405 2181 1405 2181 1693 2161 1693Z" fill="#F0F0F0" fill-rule="evenodd"/><path d="M2767 1405 2790 1405 2790 1693 2767 1693Z" fill="#F5F5F5" fill-rule="evenodd"/><path d="M2780 1405 2800 1405 2800 1693 2780 1693Z" fill="#F0F0F0" fill-rule="evenodd"/><path d="M2234 1405 2257 1405 2257 1693 2234 1693Z" fill="#F5F5F5" fill-rule="evenodd"/><path d="M2800 1411 2148 1411 2148 1400 2800 1400Z" fill="#F0F0F0" fill-rule="evenodd"/><path d="M2247 1411 2148 1411 2148 1400 2247 1400Z" fill="#E6E6E6" fill-rule="evenodd"/><path d="M2247 1405 2267 1405 2267 1693 2247 1693Z" fill="#F0F0F0" fill-rule="evenodd"/><path d="M2412 1191 2474 1191 2474 1400 2412 1400Z" fill="#EBEBEB" fill-rule="evenodd"/><path d="M2641 1400 2435.97 1400 2405 1155 2610.03 1155 2641 1400Z" fill="#E0E0E0" fill-rule="evenodd"/><path d="M2653 1400 2441.87 1400 2411 1155 2622.13 1155 2653 1400Z" fill="#F0F0F0" fill-rule="evenodd"/><path d="M2534.35 1400 2493 1400 2504.65 1155 2546 1155 2534.35 1400Z" fill="#FAFAFA" fill-rule="evenodd"/><path d="M2581.43 1400 2541 1400 2552.57 1155 2593 1155 2581.43 1400Z" fill="#FAFAFA" fill-rule="evenodd"/><path d="M2290 627 2822 627 2822 1043 2290 1043Z" fill="#E6E6E6" fill-rule="evenodd"/><path d="M2298 627 2838 627 2838 1043 2298 1043Z" fill="#F0F0F0" fill-rule="evenodd"/><path d="M2290 1043 2822 1043 2822 1057 2290 1057Z" fill="#E6E6E6" fill-rule="evenodd"/><path d="M2306 1043 2846 1043 2846 1057 2306 1057Z" fill="#F0F0F0" fill-rule="evenodd"/><path d="M2816 650 2816 1021 2320 1021 2320 650Z" fill="#FAFAFA" fill-rule="evenodd"/><path d="M2591 1021 2626.89 650 2689 650 2653.11 1021 2591 1021Z" fill="#FFFFFF" fill-rule="evenodd"/><path d="M2435 1021 2470.89 650 2533 650 2497.11 1021 2435 1021Z" fill="#FFFFFF" fill-rule="evenodd"/><path d="M2330.47 895C2329.65 894.981 2329 894.219 2329 893.286L2329 664.714C2329 663.768 2329.67 663 2330.5 663 2331.33 663 2332 663.768 2332 664.714L2332 893.286C2332 894.232 2331.33 895 2330.5 895 2330.49 895 2330.48 895 2330.47 895Z" fill="#F0F0F0" fill-rule="evenodd"/><path d="M2667 1021 2702.22 650 2726 650 2690.78 1021 2667 1021Z" fill="#FFFFFF" fill-rule="evenodd"/><path d="M2816 650 2816 1021 2813 1021 2813 650Z" fill="#E6E6E6" fill-rule="evenodd"/><path d="M2843 690 2312.06 690 2310 658 2840.94 658 2843 690Z" fill="#E0E0E0" fill-rule="evenodd" fill-opacity="0.501961"/><path d="M2843 742 2312.06 742 2310 711 2840.94 711 2843 742Z" fill="#E0E0E0" fill-rule="evenodd" fill-opacity="0.501961"/><path d="M2843 795 2312.06 795 2310 763 2840.94 763 2843 795Z" fill="#E0E0E0" fill-rule="evenodd" fill-opacity="0.501961"/><path d="M2843 847 2312.06 847 2310 815 2840.94 815 2843 847Z" fill="#E0E0E0" fill-rule="evenodd" fill-opacity="0.501961"/><path d="M2843 899 2312.06 899 2310 867 2840.94 867 2843 899Z" fill="#E0E0E0" fill-rule="evenodd" fill-opacity="0.501961"/><path d="M2843 952 2312.06 952 2310 920 2840.94 920 2843 952Z" fill="#E0E0E0" fill-rule="evenodd" fill-opacity="0.501961"/><path d="M2843 716 2312.06 716 2310 685 2840.94 685 2843 716Z" fill="#E0E0E0" fill-rule="evenodd" fill-opacity="0.501961"/><path d="M2843 769 2312.06 769 2310 737 2840.94 737 2843 769Z" fill="#E0E0E0" fill-rule="evenodd" fill-opacity="0.501961"/><path d="M2843 821 2312.06 821 2310 789 2840.94 789 2843 821Z" fill="#E0E0E0" fill-rule="evenodd" fill-opacity="0.501961"/><path d="M2843 873 2312.06 873 2310 841 2840.94 841 2843 873Z" fill="#E0E0E0" fill-rule="evenodd" fill-opacity="0.501961"/><path d="M2843 925 2312.06 925 2310 894 2840.94 894 2843 925Z" fill="#E0E0E0" fill-rule="evenodd" fill-opacity="0.501961"/><path d="M2843 978 2312.06 978 2310 946 2840.94 946 2843 978Z" fill="#E0E0E0" fill-rule="evenodd" fill-opacity="0.501961"/><path d="M1681.52 834C1672.4 834 1665 834 1665 834L1665 773C1665 773 1672.4 773 1681.52 773L1753.48 773C1762.6 773 1770 773 1770 773L1770 834C1770 834 1762.6 834 1753.48 834Z" fill="#F5F5F5" fill-rule="evenodd"/><path d="M1681.52 773C1672.4 773 1665 773 1665 773L1665 712C1665 712 1672.4 712 1681.52 712L1753.48 712C1762.6 712 1770 712 1770 712L1770 773C1770 773 1762.6 773 1753.48 773Z" fill="#F5F5F5" fill-rule="evenodd"/><path d="M1704.82 712C1701.61 712 1699 712 1699 712L1699 691C1699 691 1701.61 691 1704.82 691L1730.18 691C1733.39 691 1736 691 1736 691L1736 712C1736 712 1733.39 712 1730.18 712Z" fill="#E0E0E0" fill-rule="evenodd"/><path d="M1681.52 895C1672.4 895 1665 895 1665 895L1665 834C1665 834 1672.4 834 1681.52 834L1753.48 834C1762.6 834 1770 834 1770 834L1770 895C1770 895 1762.6 895 1753.48 895Z" fill="#F5F5F5" fill-rule="evenodd"/><path d="M2064 853C2064 853 2060.57 895 1927.02 895 1793.47 895 1790 853 1790 853Z" fill="#F0F0F0" fill-rule="evenodd"/><path d="M1548 903 1654 903 1654 1653 1548 1653Z" fill="#F0F0F0" fill-rule="evenodd"/><path d="M1569 1653 2091 1653 2091 1693 1569 1693Z" fill="#F0F0F0" fill-rule="evenodd"/><path d="M2111 1653 1654 1653 1654 903 2111 903Z" fill="#F5F5F5" fill-rule="evenodd"/><path d="M2070 1347 1696 1347 1696 1170 2070 1170Z" fill="#F0F0F0" fill-rule="evenodd"/><path d="M2070 1563 1696 1563 1696 1386 2070 1386Z" fill="#F0F0F0" fill-rule="evenodd"/><path d="M2070 1627 1696 1627 1696 1600 2070 1600Z" fill="#F0F0F0" fill-rule="evenodd"/><path d="M1978.13 1184 1787.87 1184C1779.66 1183.98 1773.02 1177.27 1773 1168.98L1773 1168.98C1773.04 1160.71 1779.68 1154.02 1787.87 1154L1978.13 1154C1986.32 1154.02 1992.96 1160.71 1993 1168.98L1993 1168.98C1992.98 1177.27 1986.34 1183.98 1978.13 1184Z" fill="#F5F5F5" fill-rule="evenodd"/><path d="M2070 1130 1696 1130 1696 953 2070 953Z" fill="#F0F0F0" fill-rule="evenodd"/><path d="M1978.13 967 1787.87 967C1779.66 966.982 1773.02 960.501 1773 952.5L1773 952.5C1773.02 944.5 1779.66 938.018 1787.87 938L1978.13 938C1986.34 938.018 1992.98 944.5 1993 952.5L1993 952.5C1992.98 960.501 1986.34 966.982 1978.13 967Z" fill="#F5F5F5" fill-rule="evenodd"/><path d="M1978.13 1400 1787.87 1400C1779.66 1399.98 1773.02 1393.5 1773 1385.5L1773 1385.5C1773.02 1377.5 1779.66 1371.02 1787.87 1371L1978.13 1371C1986.34 1371.02 1992.98 1377.5 1993 1385.5L1993 1385.5C1992.98 1393.5 1986.34 1399.98 1978.13 1400Z" fill="#F5F5F5" fill-rule="evenodd"/><path d="M1654 895 2126 895 2126 903 1654 903Z" fill="#F0F0F0" fill-rule="evenodd"/><path d="M1654 903 1534 903 1534 895 1654 895Z" fill="#E6E6E6" fill-rule="evenodd"/><path d="M2866 1809C2866 1830.54 2567.82 1848 2200 1848 1832.18 1848 1534 1830.54 1534 1809 1534 1787.46 1832.18 1770 2200 1770 2567.82 1770 2866 1787.46 2866 1809Z" fill="#F5F5F5" fill-rule="evenodd"/><path d="M2860.65 1468 1539.35 1468 1515 1445 2885 1445 2860.65 1468Z" fill="#00B4AF" fill-rule="evenodd"/><path d="M2860.65 1468 1539.35 1468 1515 1445 2885 1445 2860.65 1468Z" fill="#FFFFFF" fill-rule="evenodd" fill-opacity="0.501961"/><path d="M2746.83 1481 1653.17 1481 1633 1468 2767 1468 2746.83 1481Z" fill="#00B4AF" fill-rule="evenodd"/><path d="M2746.83 1481 1653.17 1481 1633 1468 2767 1468 2746.83 1481Z" fill="#000000" fill-rule="evenodd" fill-opacity="0.501961"/><path d="M1644.57 1809 1629 1809 1677.28 1481 1712 1481 1644.57 1809Z" fill="#00B4AF" fill-rule="evenodd"/><path d="M1644.57 1809 1629 1809 1677.28 1481 1712 1481 1644.57 1809Z" fill="#000000" fill-rule="evenodd" fill-opacity="0.501961"/><path d="M1729.54 1809 1714 1809 1762.28 1481 1797 1481 1729.54 1809Z" fill="#00B4AF" fill-rule="evenodd"/><path d="M1729.54 1809 1714 1809 1762.28 1481 1797 1481 1729.54 1809Z" fill="#000000" fill-rule="evenodd" fill-opacity="0.501961"/><path d="M2755.43 1809 2771 1809 2722.72 1481 2688 1481 2755.43 1809Z" fill="#00B4AF" fill-rule="evenodd"/><path d="M2755.43 1809 2771 1809 2722.72 1481 2688 1481 2755.43 1809Z" fill="#000000" fill-rule="evenodd" fill-opacity="0.501961"/><path d="M2670.46 1809 2686 1809 2637.72 1481 2603 1481 2670.46 1809Z" fill="#00B4AF" fill-rule="evenodd"/><path d="M2670.46 1809 2686 1809 2637.72 1481 2603 1481 2670.46 1809Z" fill="#000000" fill-rule="evenodd" fill-opacity="0.501961"/><path d="M2111.89 705.017 2156.31 708.014C2159.83 708.23 2162.93 710.379 2164.37 713.592L2169.05 723.923C2170.06 726.154 2171.9 727.906 2174.17 728.813 2179.75 731.105 2185.15 733.786 2190.35 736.837 2192.42 738.058 2194.88 738.451 2197.23 737.939L2208.38 735.322C2211.8 734.532 2215.38 735.682 2217.7 738.318L2247.02 771.859C2249.34 774.519 2250 778.241 2248.74 781.537L2244.68 792.212C2243.83 794.511 2243.89 797.051 2244.86 799.306 2247.18 804.903 2249.11 810.657 2250.64 816.525 2251.22 818.901 2252.72 820.953 2254.8 822.241L2264.5 828.267C2267.5 830.114 2269.22 833.47 2268.98 836.98L2266.02 881.472C2265.79 884.985 2263.63 888.078 2260.41 889.497L2250.09 894.18C2247.87 895.216 2246.13 897.047 2245.2 899.311 2242.93 904.893 2240.27 910.303 2237.22 915.496 2235.99 917.568 2235.59 920.031 2236.11 922.384L2238.7 933.507C2239.51 936.933 2238.36 940.527 2235.7 942.839L2202.18 972.18C2199.54 974.5 2195.83 975.163 2192.55 973.901L2181.85 969.838C2179.58 968.942 2177.06 968.942 2174.79 969.838 2169.2 972.155 2163.45 974.088 2157.59 975.623 2155.22 976.225 2153.17 977.717 2151.87 979.79L2145.85 989.501C2143.99 992.496 2140.63 994.218 2137.11 993.978L2092.69 991.016C2089.18 990.785 2086.09 988.641 2084.63 985.438L2079.95 975.107C2078.94 972.876 2077.1 971.124 2074.83 970.217 2069.25 967.925 2063.85 965.243 2058.65 962.193 2056.58 960.969 2054.12 960.576 2051.77 961.091L2040.66 963.708C2037.23 964.514 2033.65 963.361 2031.33 960.712L2001.98 927.17C1999.67 924.505 1999.01 920.791 2000.26 917.494L2004.32 906.818C2005.18 904.531 2005.11 902.001 2004.15 899.759 2001.83 894.159 1999.89 888.406 1998.36 882.54 1997.78 880.163 1996.28 878.111 1994.2 876.823L1984.5 870.797C1981.5 868.95 1979.78 865.595 1980.02 862.084L1982.98 817.592C1983.23 814.078 1985.38 810.982 1988.59 809.534L1998.91 804.885C2001.14 803.869 2002.89 802.031 2003.8 799.754 2006.09 794.166 2008.77 788.746 2011.82 783.534 2013.05 781.462 2013.45 779.004 2012.95 776.646L2010.34 765.523C2009.53 762.098 2010.69 758.507 2013.33 756.191L2046.85 726.851C2049.49 724.525 2053.2 723.849 2056.49 725.094L2067.19 729.158C2069.45 730.071 2071.98 730.071 2074.24 729.158 2079.83 726.825 2085.58 724.891 2091.45 723.372 2093.8 722.763 2095.84 721.288 2097.16 719.24L2103.18 709.529C2105.04 706.538 2108.38 704.806 2111.89 705.017ZM2040.48 844.039C2037.37 890.513 2072.5 930.71 2118.94 933.821 2165.38 936.933 2205.55 901.781 2208.66 855.308 2211.77 808.834 2176.64 768.637 2130.2 765.526 2130.19 765.525 2130.17 765.524 2130.16 765.523 2083.74 762.454 2043.61 797.591 2040.48 844.039Z" fill="#00B4AF" fill-rule="evenodd"/><path d="M2287.03 892.397 2302.27 887.237C2303.91 886.698 2305.72 887.093 2306.98 888.269L2309.5 890.677C2310.38 891.465 2311.51 891.905 2312.7 891.915 2314.79 891.913 2316.88 892.051 2318.96 892.328 2320.17 892.525 2321.41 892.227 2322.4 891.502L2325.22 889.473C2326.63 888.478 2328.48 888.333 2330.03 889.094L2344.45 896.248C2345.99 897.007 2347 898.553 2347.06 900.273L2347.06 903.712C2347.11 904.902 2347.6 906.032 2348.44 906.877 2349.92 908.349 2351.3 909.924 2352.57 911.589 2353.29 912.526 2354.33 913.163 2355.49 913.377L2358.93 913.928C2360.64 914.212 2362.04 915.418 2362.58 917.058L2367.74 932.295C2368.31 933.928 2367.93 935.745 2366.74 937.007L2364.33 939.518C2363.54 940.394 2363.1 941.534 2363.1 942.716 2363.1 944.81 2362.96 946.901 2362.68 948.976 2362.48 950.182 2362.76 951.419 2363.47 952.416L2365.5 955.236C2366.53 956.627 2366.68 958.472 2365.92 960.017L2358.76 974.463C2358 976.008 2356.46 977.012 2354.74 977.077L2351.29 977.077C2350.11 977.114 2348.99 977.607 2348.16 978.453 2346.67 979.909 2345.09 981.287 2343.45 982.58 2342.51 983.3 2341.88 984.342 2341.66 985.504L2341.11 988.943C2340.83 990.646 2339.62 992.05 2337.98 992.589L2322.74 997.748C2321.1 998.311 2319.28 997.913 2318.03 996.717L2315.48 994.343C2314.62 993.528 2313.47 993.083 2312.28 993.105 2310.2 993.106 2308.12 992.968 2306.06 992.692 2304.85 992.485 2303.61 992.77 2302.62 993.483L2299.79 995.513C2298.39 996.533 2296.54 996.692 2294.98 995.925L2280.56 988.771C2279.01 988.007 2278 986.445 2277.95 984.713L2277.95 981.273C2277.89 980.095 2277.4 978.979 2276.57 978.143 2275.1 976.662 2273.72 975.089 2272.44 973.431 2271.75 972.47 2270.69 971.827 2269.52 971.642L2266.08 971.092C2264.38 970.784 2262.98 969.59 2262.4 967.962L2257.24 952.691C2256.7 951.061 2257.09 949.265 2258.27 948.013L2260.68 945.502C2261.48 944.614 2261.92 943.463 2261.92 942.269 2261.92 940.176 2262.05 938.084 2262.33 936.009 2262.52 934.799 2262.22 933.563 2261.5 932.57L2259.51 929.749C2258.49 928.359 2258.33 926.514 2259.1 924.968L2266.25 910.522C2267 908.974 2268.56 907.978 2270.28 907.943L2273.72 907.943C2274.91 907.898 2276.04 907.406 2276.88 906.567 2278.36 905.092 2279.94 903.713 2281.6 902.44 2282.53 901.72 2283.17 900.678 2283.38 899.516L2283.93 896.077C2284.2 894.37 2285.39 892.952 2287.03 892.396ZM2296.15 948.047C2299.21 957.039 2308.98 961.848 2317.97 958.788 2326.97 955.729 2331.78 945.959 2328.72 936.967 2325.66 927.999 2315.93 923.187 2306.95 926.207 2297.95 929.234 2293.1 938.986 2296.13 947.988 2296.13 948.008 2296.14 948.028 2296.15 948.047Z" fill="#00B4AF" fill-rule="evenodd"/><path d="M2287.03 892.397 2302.27 887.237C2303.91 886.698 2305.72 887.093 2306.98 888.269L2309.5 890.677C2310.38 891.465 2311.51 891.905 2312.7 891.915 2314.79 891.913 2316.88 892.051 2318.96 892.328 2320.17 892.525 2321.41 892.227 2322.4 891.502L2325.22 889.473C2326.63 888.478 2328.48 888.333 2330.03 889.094L2344.45 896.248C2345.99 897.007 2347 898.553 2347.06 900.273L2347.06 903.712C2347.11 904.902 2347.6 906.032 2348.44 906.877 2349.92 908.349 2351.3 909.924 2352.57 911.589 2353.29 912.526 2354.33 913.163 2355.49 913.377L2358.93 913.928C2360.64 914.212 2362.04 915.418 2362.58 917.058L2367.74 932.295C2368.31 933.928 2367.93 935.745 2366.74 937.007L2364.33 939.518C2363.54 940.394 2363.1 941.534 2363.1 942.716 2363.1 944.81 2362.96 946.901 2362.68 948.976 2362.48 950.182 2362.76 951.419 2363.47 952.416L2365.5 955.236C2366.53 956.627 2366.68 958.472 2365.92 960.017L2358.76 974.463C2358 976.008 2356.46 977.012 2354.74 977.077L2351.29 977.077C2350.11 977.114 2348.99 977.607 2348.16 978.453 2346.67 979.909 2345.09 981.287 2343.45 982.58 2342.51 983.3 2341.88 984.342 2341.66 985.504L2341.11 988.943C2340.83 990.646 2339.62 992.05 2337.98 992.589L2322.74 997.748C2321.1 998.311 2319.28 997.913 2318.03 996.717L2315.48 994.343C2314.62 993.528 2313.47 993.083 2312.28 993.105 2310.2 993.106 2308.12 992.968 2306.06 992.692 2304.85 992.485 2303.61 992.77 2302.62 993.483L2299.79 995.513C2298.39 996.533 2296.54 996.692 2294.98 995.925L2280.56 988.771C2279.01 988.007 2278 986.445 2277.95 984.713L2277.95 981.273C2277.89 980.095 2277.4 978.979 2276.57 978.143 2275.1 976.662 2273.72 975.089 2272.44 973.431 2271.75 972.47 2270.69 971.827 2269.52 971.642L2266.08 971.092C2264.38 970.784 2262.98 969.59 2262.4 967.962L2257.24 952.691C2256.7 951.061 2257.09 949.265 2258.27 948.013L2260.68 945.502C2261.48 944.614 2261.92 943.463 2261.92 942.269 2261.92 940.176 2262.05 938.084 2262.33 936.009 2262.52 934.799 2262.22 933.563 2261.5 932.57L2259.51 929.749C2258.49 928.359 2258.33 926.514 2259.1 924.968L2266.25 910.522C2267 908.974 2268.56 907.978 2270.28 907.943L2273.72 907.943C2274.91 907.898 2276.04 907.406 2276.88 906.567 2278.36 905.092 2279.94 903.713 2281.6 902.44 2282.53 901.72 2283.17 900.678 2283.38 899.516L2283.93 896.077C2284.2 894.37 2285.39 892.952 2287.03 892.396ZM2296.15 948.047C2299.21 957.039 2308.98 961.848 2317.97 958.788 2326.97 955.729 2331.78 945.959 2328.72 936.967 2325.66 927.999 2315.93 923.187 2306.95 926.207 2297.95 929.234 2293.1 938.986 2296.13 947.988 2296.13 948.008 2296.14 948.028 2296.15 948.047Z" fill="#FFFFFF" fill-rule="evenodd" fill-opacity="0.501961"/><path d="M2199.92 1058.14 2218.92 1025.18C2221.15 1021.28 2219.81 1016.31 2215.92 1014.08 2214.73 1013.39 2213.39 1013.02 2212.01 1013L2174.01 1013C2169.55 1013.04 2165.96 1016.69 2166 1021.16 2166.01 1022.58 2166.39 1023.96 2167.1 1025.18L2186.1 1058.14C2188.46 1061.96 2193.46 1063.15 2197.27 1060.79 2198.35 1060.12 2199.26 1059.22 2199.92 1058.14Z" fill="#00B4AF" fill-rule="evenodd"/><path d="M1580.58 1431 2043.15 1431C2049.67 1431.02 2054.98 1425.76 2055 1419.24 2055 1419.09 2055 1418.94 2054.99 1418.79L2044.05 1088.24C2043.74 1081.45 2038.19 1076.08 2031.39 1076L1568.85 1076C1562.35 1075.96 1557.04 1081.19 1557 1087.69 1557 1087.87 1557 1088.06 1557.01 1088.24L1567.92 1418.79C1568.2 1425.59 1573.77 1430.97 1580.58 1431Z" fill="#00B4AF" fill-rule="evenodd"/><path d="M1583.63 1431 2047.13 1431C2053.66 1431.02 2058.98 1425.76 2059 1419.24 2059 1419.09 2059 1418.94 2058.99 1418.79L2048.03 1088.24C2047.72 1081.45 2042.15 1076.08 2035.34 1076L1571.87 1076C1565.34 1075.98 1560.02 1081.24 1560 1087.75 1560 1087.92 1560 1088.08 1560.01 1088.24L1570.98 1418.79C1571.25 1425.58 1576.82 1430.95 1583.63 1431Z" fill="#00B4AF" fill-rule="evenodd"/><path d="M1583.63 1431 2047.13 1431C2053.66 1431.02 2058.98 1425.76 2059 1419.24 2059 1419.09 2059 1418.94 2058.99 1418.79L2048.03 1088.24C2047.72 1081.45 2042.15 1076.08 2035.34 1076L1571.87 1076C1565.34 1075.98 1560.02 1081.24 1560 1087.75 1560 1087.92 1560 1088.08 1560.01 1088.24L1570.98 1418.79C1571.25 1425.58 1576.82 1430.95 1583.63 1431Z" fill="#263238" fill-rule="evenodd"/><path d="M1589.65 1431 2149.38 1431C2155 1431 2160.13 1434.13 2162.59 1439.08 2163.59 1441.14 2162.7 1443.61 2160.59 1444.6 2160.01 1444.87 2159.38 1445.01 2158.74 1445L1580.3 1445C1577.96 1445.04 1576.04 1443.21 1576 1440.93 1575.99 1440.29 1576.13 1439.65 1576.41 1439.08 1578.88 1434.13 1584.02 1430.99 1589.65 1431Z" fill="#00B4AF" fill-rule="evenodd"/><path d="M2149.38 1431 1702.65 1431C1697.02 1430.99 1691.89 1434.13 1689.41 1439.08 1688.41 1441.14 1689.3 1443.61 1691.41 1444.6 1692 1444.87 1692.65 1445.01 1693.3 1445L2158.74 1445C2161.07 1445.02 2162.98 1443.18 2163 1440.89 2163.01 1440.27 2162.86 1439.64 2162.59 1439.08 2160.13 1434.13 2155 1431 2149.38 1431Z" fill="#263238" fill-rule="evenodd" fill-opacity="0.6"/><path d="M1882.24 1440 1998.79 1440C2001.67 1440.02 2004 1442.25 2004 1445L1877 1445C1877 1442.24 1879.35 1440 1882.24 1440Z" fill="#FFFFFF" fill-rule="evenodd" fill-opacity="0.301961"/><path d="M2047.99 1407.12 2037.67 1099.78C2037.55 1097.13 2035.38 1095.03 2032.72 1095L1575.62 1095C1573.09 1094.98 1571.02 1097 1571 1099.53 1571 1099.65 1571 1099.76 1571.01 1099.88L1581.33 1407.22C1581.42 1409.88 1583.59 1411.98 1586.25 1412L2043.66 1412C2046.2 1411.85 2048.14 1409.68 2047.99 1407.14 2047.99 1407.13 2047.99 1407.12 2047.99 1407.12Z" fill="#FFFFFF" fill-rule="evenodd" fill-opacity="0.901961"/><path d="M1671.71 1412 1609 1412 1681.29 1095 1744 1095 1671.71 1412Z" fill="#FFFFFF" fill-rule="evenodd"/><path d="M1711.61 1412 1689 1412 1761.39 1095 1784 1095 1711.61 1412Z" fill="#FFFFFF" fill-rule="evenodd"/><path d="M1943.62 1412 1921 1412 1993.42 1095 2016 1095 1943.62 1412Z" fill="#FFFFFF" fill-rule="evenodd"/><path d="M1801 1085.5C1801.17 1087.46 1802.74 1088.97 1804.63 1089 1806.49 1089 1808 1087.43 1808 1085.5 1807.86 1083.52 1806.27 1081.99 1804.37 1082 1802.51 1082 1801 1083.57 1801 1085.5Z" fill="#FFFFFF" fill-rule="evenodd" fill-opacity="0.4"/><path d="M1947.88 1052C1953.98 1061.79 1960.56 1072.17 1967.15 1082.17 1973.73 1092.16 1980.49 1102.16 1987.38 1111.95 2000.76 1131.41 2015.22 1150.09 2030.71 1167.91 2037.98 1176.23 2045.87 1183.98 2054.32 1191.11L2057.28 1193.46C2057.93 1194.01 2058.61 1194.53 2059.31 1195.01 2061.1 1196.18 2062.95 1197.25 2064.86 1198.21 2069.52 1200.48 2074.33 1202.39 2079.27 1203.94 2084.48 1205.7 2089.96 1207.39 2095.54 1208.66 2101.12 1209.94 2106.88 1211.42 2112.77 1212.63 2124.32 1215.07 2136.38 1217.31 2148 1219.31L2148 1243.45C2141.38 1244.41 2135.18 1244.9 2128.73 1245.34 2122.29 1245.79 2115.91 1245.96 2109.43 1246 2096.2 1246.04 2082.99 1244.99 2069.93 1242.86 2062.86 1241.63 2055.89 1239.88 2049.08 1237.62 2045.26 1236.31 2041.55 1234.72 2037.98 1232.86 2036.08 1231.97 2034.08 1230.69 2032.15 1229.42L2027.71 1226.31C2016.74 1218.25 2006.47 1209.26 1997.03 1199.46 1979.25 1180.89 1962.79 1161.1 1947.78 1140.23 1940.31 1130 1933.11 1119.65 1926.2 1109.2 1919.3 1098.58 1912.41 1088.17 1906 1076.86Z" fill="#FFC3BD" fill-rule="evenodd"/><path d="M1890.12 1058.85C1886.69 1088.99 1958.45 1161 1958.45 1161L2007 1120.43C1992.77 1096.32 1977.03 1073.15 1959.86 1051.06 1932.26 1016.83 1893.86 1024.76 1890.12 1058.85Z" fill="#00B4AF" fill-rule="evenodd"/><path d="M1929.78 1080.38C1910.41 1059.8 1901.16 1054.49 1890 1062.68 1891.49 1094.47 1959.3 1161 1959.3 1161 1963.74 1126.88 1946.17 1104.93 1929.78 1080.38Z" fill="#000000" fill-rule="evenodd" fill-opacity="0.301961"/><path d="M2003.82 1106 2009 1120.97 1953.89 1166 1943 1154.74 2003.82 1106Z" fill="#00B4AF" fill-rule="evenodd"/><path d="M2003.82 1106 2009 1120.97 1953.89 1166 1943 1154.74 2003.82 1106Z" fill="#263238" fill-rule="evenodd" fill-opacity="0.301961"/><path d="M2145.33 1218 2183 1224.54 2162.28 1257.96C2157.35 1258.75 2137.7 1248 2129 1234.64Z" fill="#FFC3BD" fill-rule="evenodd"/><path d="M2206 1247.11 2190.92 1264 2162 1257.59 2182.75 1225 2206 1247.11Z" fill="#FFC3BD" fill-rule="evenodd"/><path d="M1929.63 1029.97C1929.63 1029.97 1971.01 1127.1 1941.21 1308L1768.79 1308C1766.69 1281.6 1778.83 1152.78 1749 1028.32 1767.98 1024.65 1787.18 1022.22 1806.48 1021.06 1830.89 1019.65 1855.36 1019.65 1879.76 1021.06 1896.59 1022.74 1913.26 1025.72 1929.63 1029.97Z" fill="#00B4AF" fill-rule="evenodd"/><path d="M1787.93 1058.94C1791.4 1079.59 1786.75 1128.37 1769.05 1185 1767.69 1136.43 1761.98 1088.07 1752 1040.5L1752 1040.26C1763.32 1039.33 1784.49 1039.88 1787.93 1058.94Z" fill="#000000" fill-rule="evenodd" fill-opacity="0.301961"/><path d="M1811.37 939C1816.81 962.347 1822.91 1005.12 1807 1020.68 1807 1020.68 1813.89 1040 1857.62 1040 1905.84 1040 1880.18 1020.68 1880.18 1020.68 1853.7 1014.47 1853.7 995.149 1857.62 977.024Z" fill="#FFC3BD" fill-rule="evenodd"/><path d="M1860.34 1041.75 1870.39 1052.84C1871.02 1053.51 1871.18 1054.52 1870.79 1055.36L1865.77 1066.32C1865.44 1067.08 1864.72 1067.58 1863.92 1067.61L1856.32 1068C1855.58 1068.03 1854.88 1067.66 1854.47 1067.02L1847.44 1056.52C1846.85 1055.71 1846.85 1054.6 1847.44 1053.79L1857.09 1041.85C1857.8 1040.89 1859.13 1040.72 1860.05 1041.46 1860.15 1041.55 1860.25 1041.64 1860.34 1041.75Z" fill="#FFFFFF" fill-rule="evenodd"/><path d="M1859 1040.66C1854.01 1048.61 1851.13 1057.66 1850.6 1067 1850.6 1067 1794.53 1048.02 1797.08 1020.24 1802.07 1017.85 1806.86 1015.1 1811.42 1012 1811.42 1012 1813.25 1029.55 1859 1040.66Z" fill="#263238" fill-rule="evenodd"/><path d="M1859 1040.51C1863.9 1047.99 1867.43 1056.28 1869.43 1065 1869.43 1065 1894.97 1047.51 1887.7 1020.23L1872.69 1017C1872.69 1017 1875.85 1034.6 1859 1040.51Z" fill="#263238" fill-rule="evenodd"/><path d="M1865.13 1066.28C1868.55 1077.72 1894.34 1162.63 1894.99 1182.94 1895 1183.11 1895 1183.28 1894.99 1183.46 1892.59 1194.39 1881.85 1213.56 1877.48 1221.08 1876.98 1221.95 1875.87 1222.26 1875 1221.76 1874.65 1221.56 1874.38 1221.25 1874.23 1220.87 1871.22 1213.46 1863.96 1195.7 1859.18 1185.32 1859.09 1185.12 1859.03 1184.91 1859 1184.7 1856.75 1147.63 1856.13 1089.97 1855 1066.93 1854.95 1065.92 1855.71 1065.06 1856.71 1065 1856.75 1065 1856.78 1065 1856.82 1065L1863.42 1065C1864.2 1065.01 1864.89 1065.52 1865.13 1066.28Z" fill="#FFFFFF" fill-rule="evenodd"/><path d="M1829.65 954 1857 976.9C1856.01 981.203 1855.4 985.587 1855.18 990 1845.1 988.541 1831.09 977.456 1829.54 966.857 1828.79 962.602 1828.82 958.242 1829.65 954Z" fill="#000000" fill-rule="evenodd" fill-opacity="0.2"/><path d="M1878.74 868.902C1885.21 873.746 1896.26 894.221 1882.16 899.58 1868.07 904.939 1862.9 857.015 1878.74 868.902Z" fill="#263238" fill-rule="evenodd"/><path d="M1803.04 910.413C1809.54 941.763 1811.77 960.38 1830.1 974.799 1847.98 989.21 1874.14 986.385 1888.54 968.487 1893.83 961.908 1897 953.87 1897.62 945.445 1900.3 916.366 1889.16 870.012 1856.36 860.858 1834.16 854.048 1810.65 866.543 1803.84 888.767 1801.7 895.789 1801.42 903.251 1803.04 910.413Z" fill="#FFC3BD" fill-rule="evenodd"/><path d="M1806.82 934 1819.9 925.246 1820.76 917.624C1821.96 906.574 1819.9 895.413 1814.83 885.526L1814.83 885.526C1814.83 885.526 1878.44 887.894 1886.32 867.948 1894.2 848.002 1871.8 833 1871.8 833 1871.8 833 1849.29 845.942 1834.12 846.972 1818.95 848.002 1772.46 828.983 1772.46 868.36 1751.91 874.711 1752.6 908.596 1806.72 934" fill="#263238" fill-rule="evenodd"/><path d="M1775 870C1775 870 1765.71 863.344 1772.62 843 1764.12 846.823 1760.04 867.611 1775 870Z" fill="#263238" fill-rule="evenodd"/><path d="M1793.74 946.675C1798.85 952.927 1806.09 956.945 1813.99 957.91 1824.45 959.051 1827.49 949.164 1822.97 940.073 1818.78 931.914 1808.32 921.475 1798.67 924.551 1789.02 927.628 1787.5 938.897 1793.74 946.675Z" fill="#FFC3BD" fill-rule="evenodd"/><path d="M1956 1412 1845.86 1412C1835.96 1352.66 1828 1308 1828 1308L1941.45 1308C1941.45 1308 1947.83 1351.91 1956 1412Z" fill="#263238" fill-rule="evenodd"/><path d="M1773.34 1412C1770.86 1352.66 1769 1308 1769 1308L1880.21 1308C1880.21 1308 1880.76 1353.21 1881 1412Z" fill="#263238" fill-rule="evenodd"/><path d="M1852.07 913.815C1852.44 916.3 1854.02 918.156 1855.64 917.99 1857.27 917.824 1858.29 915.637 1857.93 913.185 1857.56 910.733 1855.98 908.844 1854.36 909.01 1852.73 909.176 1851.71 911.33 1852.07 913.815Z" fill="#263238" fill-rule="evenodd"/><path d="M1881.07 910.83C1881.44 913.323 1883.02 915.185 1884.64 914.986 1886.27 914.786 1887.29 912.659 1886.93 910.199 1886.56 907.739 1884.98 905.844 1883.36 906.01 1881.73 906.176 1880.71 908.238 1881.07 910.83Z" fill="#263238" fill-rule="evenodd"/><path d="M1872 913C1876.09 920.722 1881.14 927.835 1887 934.15 1883.2 939.015 1875.4 937.887 1875.4 937.887Z" fill="#ED847E" fill-rule="evenodd"/><path d="M1863.99 944.86C1865.76 945.047 1867.54 945.047 1869.31 944.86 1869.73 944.824 1870.03 944.459 1870 944.045 1870 944.043 1870 944.041 1870 944.039 1869.94 943.617 1869.56 943.314 1869.14 943.355 1862.58 944.185 1856.01 941.937 1851.35 937.268 1851.08 936.947 1850.59 936.909 1850.27 937.183 1849.95 937.457 1849.91 937.939 1850.18 938.26 1853.85 942.027 1858.74 944.367 1863.99 944.86Z" fill="#263238" fill-rule="evenodd"/><path d="M1841.35 905.989C1841.94 906.064 1842.52 905.761 1842.8 905.223 1844.56 901.808 1847.85 899.513 1851.58 899.099 1852.41 899.043 1853.04 898.316 1853 897.463 1852.96 896.619 1852.27 895.964 1851.45 896.002 1851.45 896.002 1851.45 896.002 1851.45 896.002 1846.69 896.488 1842.49 899.368 1840.21 903.692 1839.79 904.421 1840.03 905.36 1840.73 905.788 1840.75 905.797 1840.76 905.807 1840.78 905.815 1840.95 905.924 1841.15 905.984 1841.35 905.989Z" fill="#263238" fill-rule="evenodd"/><path d="M1892.3 898.996C1892.66 899.022 1893.03 898.931 1893.34 898.739 1894.02 898.294 1894.2 897.43 1893.75 896.779 1891.08 892.863 1886.56 890.35 1881.56 890 1880.73 889.999 1880.04 890.608 1880 891.382 1880 892.167 1880.68 892.81 1881.53 892.827 1885.5 893.173 1889.08 895.217 1891.18 898.353 1891.44 898.702 1891.84 898.935 1892.3 898.996Z" fill="#263238" fill-rule="evenodd"/><path d="M1782 1076.33 1774.38 1089.53C1771.81 1094.11 1769.3 1098.69 1766.85 1103.28 1761.91 1112.44 1757.17 1121.68 1752.63 1130.98 1748.17 1140.29 1743.91 1149.64 1740.1 1159.06 1738.28 1163.73 1736.42 1168.44 1734.84 1173.15L1732.4 1180.2 1730.38 1187.07 1729.86 1188.83 1729.59 1189.72C1729.59 1190.03 1729.59 1189.72 1729.59 1189.93 1729.59 1190.13 1729.59 1190.3 1729.35 1190.68 1729.21 1192.03 1729.21 1193.39 1729.35 1194.74 1729.78 1198.82 1730.63 1202.86 1731.89 1206.77 1734.9 1216.18 1738.58 1225.37 1742.88 1234.26 1751.57 1252.93 1762.15 1271.76 1772.56 1290.15L1753.56 1305C1745.46 1296.85 1738.17 1288.57 1731.03 1279.84 1723.89 1271.11 1717.29 1262.04 1710.8 1252.34 1704.19 1242.44 1698.44 1231.99 1693.63 1221.1 1690.88 1214.89 1688.77 1208.42 1687.31 1201.78 1686.45 1197.77 1686.02 1193.68 1686 1189.58 1685.97 1187.12 1686.16 1184.66 1686.55 1182.23L1686.83 1180.44 1687.07 1179.34 1687.51 1177.1C1689.74 1165.46 1692.76 1153.97 1696.55 1142.73 1700.19 1131.67 1704.45 1121.01 1708.98 1110.49 1713.51 1099.98 1718.49 1089.87 1723.82 1079.77 1726.5 1074.78 1729.21 1069.83 1732.06 1064.88 1734.91 1059.93 1737.73 1055.26 1741.13 1050Z" fill="#FFC3BD" fill-rule="evenodd"/><path d="M1749.55 1028.59C1719.24 1033.01 1688 1138.04 1688 1138.04L1753.23 1174C1753.23 1174 1779.65 1124.02 1792.26 1086.93 1805.45 1048.06 1782.03 1023.86 1749.55 1028.59Z" fill="#00B4AF" fill-rule="evenodd"/><path d="M1689.72 1123 1687 1138.38 1753.19 1175 1762 1162.32 1689.72 1123Z" fill="#00B4AF" fill-rule="evenodd"/><path d="M1689.72 1123 1687 1138.38 1753.19 1175 1762 1162.32 1689.72 1123Z" fill="#263238" fill-rule="evenodd" fill-opacity="0.301961"/><path d="M1764.26 1283.57 1796 1278 1779.72 1315C1779.72 1315 1750.71 1314.83 1752.04 1299.78Z" fill="#FFC3BD" fill-rule="evenodd"/><path d="M1820 1296.4 1805.05 1326 1780 1314.64 1796.28 1278 1820 1296.4Z" fill="#FFC3BD" fill-rule="evenodd"/><path d="M2819.42 1431 2356.84 1431C2350.33 1431.02 2345.02 1425.76 2345 1419.24 2345 1419.09 2345 1418.94 2345.01 1418.79L2355.95 1088.24C2356.26 1081.45 2361.82 1076.08 2368.61 1076L2831.15 1076C2837.65 1075.96 2842.96 1081.19 2843 1087.69 2843 1087.87 2843 1088.06 2842.99 1088.24L2832.08 1418.79C2831.8 1425.59 2826.23 1430.97 2819.42 1431Z" fill="#00B4AF" fill-rule="evenodd"/><path d="M2819.42 1431 2356.84 1431C2350.33 1431.02 2345.02 1425.76 2345 1419.24 2345 1419.09 2345 1418.94 2345.01 1418.79L2355.95 1088.24C2356.26 1081.45 2361.82 1076.08 2368.61 1076L2831.15 1076C2837.65 1075.96 2842.96 1081.19 2843 1087.69 2843 1087.87 2843 1088.06 2842.99 1088.24L2832.08 1418.79C2831.8 1425.59 2826.23 1430.97 2819.42 1431Z" fill="#263238" fill-rule="evenodd" fill-opacity="0.6"/><path d="M2816.37 1431 2352.87 1431C2346.34 1431.02 2341.02 1425.76 2341 1419.24 2341 1419.09 2341 1418.94 2341.01 1418.79L2351.98 1088.24C2352.28 1081.45 2357.85 1076.08 2364.66 1076L2828.13 1076C2834.66 1075.98 2839.98 1081.24 2840 1087.75 2840 1087.92 2840 1088.08 2839.99 1088.24L2829.02 1418.79C2828.75 1425.58 2823.18 1430.95 2816.37 1431Z" fill="#00B4AF" fill-rule="evenodd"/><path d="M2810.35 1431 2250.62 1431C2245 1431 2239.87 1434.13 2237.41 1439.08 2236.41 1441.14 2237.3 1443.61 2239.41 1444.6 2239.99 1444.87 2240.62 1445.01 2241.26 1445L2819.7 1445C2822.04 1445.04 2823.96 1443.21 2824 1440.93 2824.01 1440.29 2823.87 1439.65 2823.59 1439.08 2821.12 1434.13 2815.98 1430.99 2810.35 1431Z" fill="#00B4AF" fill-rule="evenodd"/><path d="M2810.41 1431 2723.76 1431C2718.09 1430.99 2712.91 1434.13 2710.42 1439.08 2709.4 1441.14 2710.3 1443.61 2712.43 1444.6 2713.02 1444.87 2713.67 1445.01 2714.33 1445L2819.67 1445C2822.02 1445.04 2823.96 1443.21 2824 1440.93 2824.01 1440.29 2823.87 1439.65 2823.58 1439.08 2821.12 1434.18 2816.02 1431.06 2810.41 1431Z" fill="#263238" fill-rule="evenodd" fill-opacity="0.6"/><path d="M2517.76 1440 2401.21 1440C2398.33 1440.02 2396 1442.25 2396 1445L2523 1445C2523 1442.24 2520.65 1440 2517.76 1440Z" fill="#000000" fill-rule="evenodd" fill-opacity="0.2"/><path d="M2352 1407.22 2362.31 1099.78C2362.44 1097.13 2364.61 1095.03 2367.26 1095L2824.39 1095C2826.91 1094.98 2828.98 1097.01 2829 1099.53 2829 1099.62 2829 1099.7 2829 1099.78L2818.68 1407.22C2818.59 1409.87 2816.42 1411.98 2813.77 1412L2356.64 1412C2354.1 1412.02 2352.02 1409.97 2352 1407.43 2352 1407.36 2352 1407.29 2352 1407.22Z" fill="#FFFFFF" fill-rule="evenodd" fill-opacity="0.901961"/><path d="M2676.71 1412 2614 1412 2686.29 1095 2749 1095 2676.71 1412Z" fill="#FFFFFF" fill-rule="evenodd"/><path d="M2403.62 1412 2381 1412 2453.42 1095 2476 1095 2403.62 1412Z" fill="#FFFFFF" fill-rule="evenodd"/><path d="M2728.61 1412 2706 1412 2778.39 1095 2801 1095 2728.61 1412Z" fill="#FFFFFF" fill-rule="evenodd"/><path d="M2599 1085.5C2598.83 1087.46 2597.26 1088.97 2595.37 1089 2593.51 1089 2592 1087.43 2592 1085.5 2592.14 1083.52 2593.73 1081.99 2595.63 1082 2597.49 1082 2599 1083.57 2599 1085.5Z" fill="#000000" fill-rule="evenodd" fill-opacity="0.4"/><path d="M2565.65 939C2560.31 962.347 2554.25 1005.12 2570 1020.68 2570 1020.68 2563.2 1040 2520.01 1040 2472.4 1040 2497.73 1020.68 2497.73 1020.68 2523.89 1014.47 2523.89 995.149 2519.98 977.024Z" fill="#B55B52" fill-rule="evenodd"/><path d="M2635.88 1050C2639.31 1055.26 2642.12 1059.86 2644.94 1064.88 2647.75 1069.9 2650.53 1074.78 2653.21 1079.77 2658.5 1089.8 2663.51 1100.01 2668.04 1110.49 2672.57 1120.98 2676.82 1131.67 2680.43 1142.73 2684.23 1153.97 2687.25 1165.45 2689.49 1177.1L2689.94 1179.34 2690.14 1180.44 2690.45 1182.23C2690.81 1184.66 2690.99 1187.12 2691 1189.58 2690.95 1193.68 2690.52 1197.77 2689.7 1201.78 2688.23 1208.42 2686.1 1214.89 2683.35 1221.1 2678.55 1232 2672.81 1242.45 2666.18 1252.34 2659.8 1261.93 2653.07 1271.01 2645.93 1279.84 2638.85 1288.6 2631.34 1297 2623.42 1305L2604.47 1290.15C2614.77 1271.76 2625.44 1252.93 2634.13 1234.26 2638.42 1225.37 2642.08 1216.18 2645.08 1206.77 2646.33 1202.86 2647.19 1198.82 2647.62 1194.74 2647.77 1193.39 2647.77 1192.03 2647.62 1190.68 2647.62 1190.3 2647.62 1189.96 2647.34 1189.93L2647.34 1189.72 2647.1 1188.83 2646.59 1187.07 2644.53 1180.2 2642.12 1173.15C2640.51 1168.44 2638.69 1163.73 2636.84 1159.06 2633.03 1149.64 2628.77 1140.29 2624.35 1130.98 2619.92 1121.66 2615.04 1112.45 2610.14 1103.28 2607.71 1098.69 2605.21 1094.11 2602.62 1089.53L2595 1076.36Z" fill="#B65B52" fill-rule="evenodd"/><path d="M2627.47 1028.59C2657.79 1033.01 2689 1138.04 2689 1138.04L2623.78 1174C2623.78 1174 2597.32 1124.19 2584.75 1086.93 2571.52 1048.06 2595.08 1023.86 2627.47 1028.59Z" fill="#263238" fill-rule="evenodd"/><path d="M2607.87 1086 2603 1130.79C2607.87 1141.56 2612.64 1151.31 2616.35 1159 2617.74 1141.05 2617.71 1111.85 2607.87 1086Z" fill="#000000" fill-rule="evenodd" fill-opacity="0.301961"/><path d="M2687.24 1123 2690 1138.38 2623.81 1175 2615 1162.32 2687.24 1123Z" fill="#00B4AF" fill-rule="evenodd"/><path d="M2687.24 1123 2690 1138.38 2623.81 1175 2615 1162.32 2687.24 1123Z" fill="#263238" fill-rule="evenodd" fill-opacity="0.301961"/><path d="M2612.77 1283.57 2581 1278 2597.31 1315C2597.31 1315 2626.29 1314.83 2624.96 1299.78Z" fill="#B55B52" fill-rule="evenodd"/><path d="M2557 1296.4 2571.91 1326 2597 1314.64 2580.69 1278 2557 1296.4Z" fill="#B55B52" fill-rule="evenodd"/><path d="M2447.36 1029.97C2447.36 1029.97 2405.98 1127.1 2435.81 1308L2608.21 1308C2610.31 1281.6 2598.14 1152.78 2628 1028.32 2609.04 1024.65 2589.87 1022.23 2570.59 1021.06 2546.19 1019.65 2521.72 1019.65 2497.32 1021.06 2480.46 1022.74 2463.76 1025.72 2447.36 1029.97Z" fill="#263238" fill-rule="evenodd"/><path d="M2428.82 1112.91C2426.32 1134.52 2425.04 1156.25 2425 1178 2448.38 1162.86 2456.7 1128.15 2460 1103Z" fill="#000000" fill-rule="evenodd" fill-opacity="0.301961"/><path d="M2471 1076.86C2464.42 1088.17 2457.77 1098.58 2450.8 1109.2 2443.84 1119.82 2436.71 1130.12 2429.23 1140.23 2414.21 1161.1 2397.74 1180.89 2379.95 1199.46 2370.51 1209.26 2360.26 1218.24 2349.31 1226.31L2344.83 1229.42C2342.9 1230.59 2340.9 1231.86 2339.04 1232.86 2335.45 1234.72 2331.73 1236.31 2327.91 1237.62 2321.1 1239.88 2314.13 1241.63 2307.06 1242.86 2294 1245 2280.79 1246.05 2267.56 1246 2261.12 1246 2254.67 1246 2248.3 1245.34 2241.92 1244.69 2235.62 1244.41 2229 1243.45L2229 1219.31C2240.61 1217.31 2252.68 1215.07 2264.19 1212.63 2269.98 1211.42 2275.73 1210.11 2281.42 1208.66 2287.1 1207.21 2292.52 1205.7 2297.68 1203.94 2302.62 1202.4 2307.44 1200.48 2312.09 1198.21 2314 1197.25 2315.85 1196.18 2317.64 1195.01 2318.5 1194.49 2319.02 1193.94 2319.71 1193.46L2322.67 1191.11C2331.1 1183.97 2338.99 1176.21 2346.28 1167.91 2361.74 1150.07 2376.2 1131.39 2389.6 1111.95 2396.49 1102.16 2403.14 1092.16 2409.83 1082.17 2416.51 1072.17 2422.96 1061.79 2429.09 1052Z" fill="#B65B52" fill-rule="evenodd"/><path d="M2486.87 1058.82C2490.3 1088.93 2423.14 1162 2423.14 1162L2370 1120.42C2384.22 1096.33 2399.96 1073.18 2417.13 1051.1 2444.71 1016.83 2483.07 1024.75 2486.87 1058.82Z" fill="#263238" fill-rule="evenodd"/><path d="M2373.18 1106 2368 1120.97 2423.08 1166 2434 1154.74 2373.18 1106Z" fill="#00B4AF" fill-rule="evenodd"/><path d="M2373.18 1106 2368 1120.97 2423.08 1166 2434 1154.74 2373.18 1106Z" fill="#263238" fill-rule="evenodd" fill-opacity="0.301961"/><path d="M2229.32 1219 2191 1219.56 2206.43 1255.8C2211.17 1257.36 2232.35 1249.76 2243 1237.88Z" fill="#B55B52" fill-rule="evenodd"/><path d="M2165 1238.24 2186 1264 2207 1255.17 2191.52 1220 2165 1238.24Z" fill="#B55B52" fill-rule="evenodd"/><path d="M2486.92 910.83C2486.49 913.323 2484.65 915.185 2482.76 914.986 2480.88 914.786 2479.69 912.659 2480.07 910.199 2480.46 907.739 2482.38 905.844 2484.26 906.01 2486.15 906.176 2487.34 908.238 2486.92 910.83Z" fill="#263238" fill-rule="evenodd"/><path d="M2487 913C2482.91 920.729 2477.87 927.842 2472 934.15 2475.82 939.015 2483.61 937.887 2483.61 937.887Z" fill="#A02724" fill-rule="evenodd"/><path d="M2483.01 932C2477.32 932 2472.17 923.705 2471.25 913.103 2470.38 907.21 2471.8 901.205 2475.2 896.341 2476.38 894.901 2478.12 894.047 2479.97 894L2479.97 894C2485.66 894 2490.81 902.261 2491.73 912.862L2491.73 912.862C2492.64 918.758 2491.24 924.779 2487.85 929.659 2486.65 931.085 2484.92 931.935 2483.07 932ZM2479.94 895.721 2479.94 895.721C2478.61 895.796 2477.37 896.434 2476.53 897.476 2473.49 902.014 2472.27 907.553 2473.12 912.966 2473.94 922.362 2478.54 930.176 2483.35 930.176L2483.35 930.176C2484.68 930.088 2485.92 929.438 2486.75 928.386 2489.82 923.869 2491.04 918.334 2490.16 912.931 2489.17 903.638 2484.57 895.721 2479.94 895.721Z" fill="#263238" fill-rule="evenodd"/><path d="M2495.29 898.995C2495.65 899.022 2496.01 898.931 2496.3 898.738 2497.01 898.315 2497.21 897.44 2496.76 896.784 2496.75 896.783 2496.75 896.781 2496.75 896.779 2494.08 892.863 2489.56 890.35 2484.56 890 2483.73 889.999 2483.04 890.608 2483 891.381 2483 892.167 2483.68 892.81 2484.53 892.827 2488.5 893.173 2492.07 895.217 2494.18 898.353 2494.44 898.701 2494.84 898.934 2495.29 898.995Z" fill="#263238" fill-rule="evenodd"/><path d="M2573.97 910.414C2567.44 941.775 2565.24 960.398 2546.88 974.822 2528.98 989.22 2502.82 986.367 2488.44 968.45 2483.16 961.88 2480.01 953.863 2479.38 945.458 2476.7 916.37 2487.81 870 2520.64 860.843 2542.87 854.056 2566.39 866.599 2573.17 888.858 2575.3 895.852 2575.58 903.281 2573.97 910.414Z" fill="#B55B52" fill-rule="evenodd"/><path d="M2617.58 1412C2619.2 1377.08 2616.12 1342.11 2608.43 1308L2497 1308C2505.65 1342 2509.93 1376.94 2509.75 1412Z" fill="#00B4AF" fill-rule="evenodd"/><path d="M2617.58 1412C2619.2 1377.08 2616.12 1342.11 2608.43 1308L2497 1308C2505.65 1342 2509.93 1376.94 2509.75 1412Z" fill="#FFFFFF" fill-rule="evenodd" fill-opacity="0.301961"/><path d="M2506.94 919.521C2500.86 916.464 2493.27 885.935 2495.35 875.083 2497.44 864.231 2521.94 852.555 2546.04 856.95 2570.14 861.346 2580.5 869.828 2585.18 891.876 2590 914.747 2572.43 952.832 2563.75 955.785 2553.34 959.49 2541.84 958.514 2532.2 953.107 2524.44 948.333 2520.41 913.236 2506.94 919.521Z" fill="#263238" fill-rule="evenodd"/><path d="M2499.65 886.047C2487.81 886.729 2476.52 868.055 2487.4 851.393 2493.78 841.692 2505.31 836.587 2516.87 838.342 2516.87 838.342 2511.91 847.917 2528.43 845.906 2544.95 843.896 2575.73 848.462 2586.47 859.911 2599.76 874.019 2591.74 901.756 2571.74 894.94 2551.74 888.125 2499.65 886.047 2499.65 886.047Z" fill="#263238" fill-rule="evenodd"/><path d="M2496.5 887C2491.59 886.762 2487.01 884.387 2483.94 880.48 2477.76 872.961 2476.27 862.541 2480.1 853.544 2480.27 853.099 2480.77 852.883 2481.21 853.064 2481.65 853.243 2481.86 853.751 2481.68 854.196 2478.05 862.581 2479.42 872.337 2485.23 879.348 2488.41 883.687 2493.71 885.857 2498.96 884.975 2499.41 884.885 2499.85 885.152 2499.98 885.593 2500.08 886.056 2499.82 886.523 2499.37 886.657 2498.43 886.889 2497.47 887.004 2496.5 887Z" fill="#263238" fill-rule="evenodd"/><path d="M2525.94 915.745C2526.43 923.795 2523.86 931.732 2518.75 937.931 2512 946.007 2502.99 941.134 2500.25 931.421 2497.79 922.663 2498.36 907.941 2507.44 903.408 2516.52 898.876 2525.23 905.896 2525.94 915.745Z" fill="#B55B52" fill-rule="evenodd"/><path d="M2422 1412 2545.09 1412C2551.04 1377.67 2552.51 1342.71 2549.45 1308L2436.49 1308C2436.49 1308 2430.14 1351.91 2422 1412Z" fill="#00B4AF" fill-rule="evenodd"/><path d="M2422 1412 2545.09 1412C2551.04 1377.67 2552.51 1342.71 2549.45 1308L2436.49 1308C2436.49 1308 2430.14 1351.91 2422 1412Z" fill="#FFFFFF" fill-rule="evenodd" fill-opacity="0.301961"/></g></svg>