<svg width="2598" height="1299" xmlns="http://www.w3.org/2000/svg" xmlns:xlink="http://www.w3.org/1999/xlink" xml:space="preserve" overflow="hidden"><defs><clipPath id="clip0"><rect x="901" y="588" width="2598" height="1299"/></clipPath><linearGradient x1="1680.4" y1="198.3" x2="2719.6" y2="2276.7" gradientUnits="userSpaceOnUse" spreadMethod="reflect" id="fill1"><stop offset="0" stop-color="#F2F2F2"/><stop offset="0.5" stop-color="#D9D9D9"/><stop offset="1" stop-color="#BFBFBF"/></linearGradient><radialGradient cx="2134349" cy="777240" r="2077188" gradientUnits="userSpaceOnUse" spreadMethod="pad" id="fill2" gradientTransform="matrix(0.000360892 0 0 0.000360892 1780.54 1087.55)"><stop offset="0" stop-color="#2F5597"/><stop offset="0.5" stop-color="#3B3838"/><stop offset="1" stop-color="#767171"/></radialGradient></defs><g clip-path="url(#clip0)" transform="translate(-901 -588)"><rect x="901" y="588" width="2598" height="1299" fill="url(#fill1)"/><path d="M2339.41 1214.34C2331.03 1214.34 2324.49 1216.9 2319.8 1222.02 2315.11 1227.14 2312.34 1234.61 2311.48 1244.42L2365.83 1244.42C2365.62 1234.68 2363.22 1227.23 2358.64 1222.07 2354.05 1216.92 2347.64 1214.34 2339.41 1214.34ZM2089.41 1214.34C2081.03 1214.34 2074.49 1216.9 2069.8 1222.02 2065.11 1227.14 2062.34 1234.61 2061.48 1244.42L2115.83 1244.42C2115.62 1234.68 2113.22 1227.23 2108.64 1222.07 2104.05 1216.92 2097.64 1214.34 2089.41 1214.34ZM2393.84 1202.42 2412.53 1202.42 2437.34 1286.85 2462.48 1202.42 2482.35 1202.42 2507.81 1286.74 2532.41 1202.42 2550.03 1202.42 2516.62 1307.05 2497.61 1307.05 2472.04 1221.86 2446.37 1307.05 2427.35 1307.05ZM2252.37 1202.42 2270.31 1202.42 2270.31 1307.05 2252.37 1307.05ZM2142.76 1202.42 2161.67 1202.42 2190.99 1289.43 2220.54 1202.42 2238.8 1202.42 2200.88 1307.05 2181.11 1307.05ZM2033.54 1201.13 2035.69 1201.13 2035.69 1217.56 2033.22 1217.56C2027.99 1217.56 2023.4 1218.24 2019.47 1219.6 2015.53 1220.96 2012.11 1222.84 2009.21 1225.24 2006.31 1227.64 2003.67 1230.42 2001.31 1233.57L2001.31 1307.05 1983.37 1307.05 1983.37 1202.42 2000.24 1202.42 2000.88 1220.14C2003.89 1214.77 2008.01 1210.26 2013.23 1206.61 2018.46 1202.95 2025.23 1201.13 2033.54 1201.13ZM2339.41 1200.59C2353.23 1200.59 2364.04 1204.89 2371.85 1213.48 2379.65 1222.07 2383.56 1234.43 2383.56 1250.54 2383.56 1251.62 2383.54 1252.89 2383.5 1254.35 2383.47 1255.82 2383.38 1256.88 2383.23 1257.52L2311.37 1257.52C2311.44 1264.33 2312.48 1270.58 2314.48 1276.27 2316.49 1281.96 2319.69 1286.53 2324.1 1289.97 2328.5 1293.4 2334.25 1295.12 2341.34 1295.12 2349 1295.12 2354.96 1293.24 2359.23 1289.48 2363.49 1285.72 2365.72 1280.3 2365.94 1273.21L2383.66 1273.21C2383.45 1280.58 2381.61 1286.94 2378.13 1292.27 2374.66 1297.61 2369.81 1301.73 2363.58 1304.63 2357.35 1307.53 2349.93 1308.98 2341.34 1308.98 2330.45 1308.98 2321.47 1306.6 2314.38 1301.84 2307.29 1297.07 2302.01 1290.59 2298.53 1282.39 2295.06 1274.19 2293.32 1264.97 2293.32 1254.73 2293.32 1244.06 2295.01 1234.66 2298.37 1226.53 2301.74 1218.4 2306.84 1212.05 2313.68 1207.47 2320.52 1202.88 2329.09 1200.59 2339.41 1200.59ZM2089.41 1200.59C2103.23 1200.59 2114.04 1204.89 2121.85 1213.48 2129.65 1222.07 2133.56 1234.43 2133.56 1250.54 2133.56 1251.62 2133.54 1252.89 2133.5 1254.35 2133.47 1255.82 2133.38 1256.88 2133.23 1257.52L2061.37 1257.52C2061.44 1264.33 2062.48 1270.58 2064.48 1276.27 2066.49 1281.96 2069.69 1286.53 2074.1 1289.97 2078.5 1293.4 2084.25 1295.12 2091.34 1295.12 2099 1295.12 2104.96 1293.24 2109.23 1289.48 2113.49 1285.72 2115.72 1280.3 2115.94 1273.21L2133.66 1273.21C2133.45 1280.58 2131.61 1286.94 2128.13 1292.27 2124.66 1297.61 2119.81 1301.73 2113.58 1304.63 2107.35 1307.53 2099.93 1308.98 2091.34 1308.98 2080.45 1308.98 2071.47 1306.6 2064.38 1301.84 2057.29 1297.07 2052.01 1290.59 2048.53 1282.39 2045.06 1274.19 2043.32 1264.97 2043.32 1254.73 2043.32 1244.06 2045.01 1234.66 2048.37 1226.53 2051.74 1218.4 2056.84 1212.05 2063.68 1207.47 2070.52 1202.88 2079.09 1200.59 2089.41 1200.59ZM1884.75 1178.35 1884.75 1234 1916.12 1234C1924.78 1234 1931.83 1231.76 1937.28 1227.28 1942.72 1222.81 1945.44 1216.02 1945.44 1206.93 1945.44 1197.19 1942.72 1189.99 1937.28 1185.34 1931.83 1180.68 1924.78 1178.35 1916.12 1178.35ZM1865.41 1162.46 1917.62 1162.46C1926.57 1162.46 1934.61 1164.16 1941.74 1167.56 1948.86 1170.96 1954.5 1175.97 1958.65 1182.6 1962.81 1189.22 1964.89 1197.33 1964.89 1206.93 1964.89 1216.31 1962.81 1224.19 1958.65 1230.56 1954.5 1236.93 1948.86 1241.77 1941.74 1245.06 1934.61 1248.36 1926.57 1250 1917.62 1250L1884.75 1250 1884.75 1307.05 1865.41 1307.05ZM2261.39 1161.92C2264.76 1161.92 2267.48 1162.9 2269.56 1164.87 2271.64 1166.84 2272.67 1169.33 2272.67 1172.34 2272.67 1175.35 2271.64 1177.83 2269.56 1179.8 2267.48 1181.77 2264.76 1182.76 2261.39 1182.76 2257.96 1182.76 2255.24 1181.77 2253.23 1179.8 2251.23 1177.83 2250.22 1175.35 2250.22 1172.34 2250.22 1169.33 2251.23 1166.84 2253.23 1164.87 2255.24 1162.9 2257.96 1161.92 2261.39 1161.92Z" fill="url(#fill2)" fill-rule="evenodd"/><text fill="#000000" fill-opacity="0" font-family="Arial,Arial_MSFontService,sans-serif" font-size="147.061" x="1865.41" y="1290.6">Preview</text></g></svg>