<svg width="1949" height="1299" xmlns="http://www.w3.org/2000/svg" xmlns:xlink="http://www.w3.org/1999/xlink" xml:space="preserve" overflow="hidden"><defs><clipPath id="clip0"><rect x="901" y="588" width="1949" height="1299"/></clipPath><linearGradient x1="1276.02" y1="338.05" x2="2474.98" y2="2136.95" gradientUnits="userSpaceOnUse" spreadMethod="reflect" id="fill1"><stop offset="0" stop-color="#F2F2F2"/><stop offset="0.5" stop-color="#D9D9D9"/><stop offset="1" stop-color="#BFBFBF"/></linearGradient><radialGradient cx="2715494" cy="777240" r="2077188" gradientUnits="userSpaceOnUse" spreadMethod="pad" id="fill2" gradientTransform="matrix(0.000360892 0 0 0.000360892 1246 1071.45)"><stop offset="0" stop-color="#2F5597"/><stop offset="0.5" stop-color="#3B3838"/><stop offset="1" stop-color="#767171"/></radialGradient></defs><g clip-path="url(#clip0)" transform="translate(-901 -588)"><rect x="901" y="588" width="1949" height="1299" fill="url(#fill1)"/><path d="M2014.6 1198.24C2006.22 1198.24 1999.69 1200.8 1995 1205.92 1990.31 1211.04 1987.53 1218.5 1986.67 1228.32L2041.03 1228.32C2040.81 1218.58 2038.42 1211.13 2033.83 1205.97 2029.25 1200.82 2022.84 1198.24 2014.6 1198.24ZM1764.6 1198.24C1756.22 1198.24 1749.69 1200.8 1745 1205.92 1740.31 1211.04 1737.53 1218.5 1736.67 1228.32L1791.03 1228.32C1790.81 1218.58 1788.42 1211.13 1783.83 1205.97 1779.25 1200.82 1772.84 1198.24 1764.6 1198.24ZM2069.03 1186.31 2087.72 1186.31 2112.54 1270.75 2137.68 1186.31 2157.55 1186.31 2183.01 1270.64 2207.61 1186.31 2225.22 1186.31 2191.82 1290.94 2172.8 1290.94 2147.24 1205.76 2121.56 1290.94 2102.55 1290.94ZM1927.57 1186.31 1945.51 1186.31 1945.51 1290.94 1927.57 1290.94ZM1817.96 1186.31 1836.87 1186.31 1866.19 1273.33 1895.73 1186.31 1913.99 1186.31 1876.07 1290.94 1856.31 1290.94ZM1708.73 1185.03 1710.88 1185.03 1710.88 1201.46 1708.41 1201.46C1703.18 1201.46 1698.6 1202.14 1694.66 1203.5 1690.72 1204.86 1687.3 1206.74 1684.4 1209.14 1681.5 1211.54 1678.87 1214.32 1676.51 1217.47L1676.51 1290.94 1658.57 1290.94 1658.57 1186.31 1675.43 1186.31 1676.08 1204.04C1679.09 1198.67 1683.2 1194.16 1688.43 1190.5 1693.66 1186.85 1700.43 1185.03 1708.73 1185.03ZM2014.6 1184.49C2028.43 1184.49 2039.24 1188.78 2047.04 1197.38 2054.85 1205.97 2058.75 1218.33 2058.75 1234.44 2058.75 1235.51 2058.74 1236.78 2058.7 1238.25 2058.66 1239.72 2058.57 1240.78 2058.43 1241.42L1986.57 1241.42C1986.64 1248.22 1987.68 1254.47 1989.68 1260.17 1991.69 1265.86 1994.89 1270.43 1999.3 1273.86 2003.7 1277.3 2009.45 1279.02 2016.54 1279.02 2024.2 1279.02 2030.16 1277.14 2034.42 1273.38 2038.68 1269.62 2040.92 1264.2 2041.14 1257.11L2058.86 1257.11C2058.65 1264.48 2056.8 1270.84 2053.33 1276.17 2049.86 1281.51 2045 1285.63 2038.77 1288.53 2032.54 1291.43 2025.13 1292.88 2016.54 1292.88 2005.65 1292.88 1996.66 1290.5 1989.57 1285.73 1982.48 1280.97 1977.2 1274.49 1973.73 1266.29 1970.26 1258.09 1968.52 1248.87 1968.52 1238.63 1968.52 1227.96 1970.2 1218.56 1973.57 1210.43 1976.93 1202.3 1982.04 1195.95 1988.88 1191.36 1995.72 1186.78 2004.29 1184.49 2014.6 1184.49ZM1764.6 1184.49C1778.43 1184.49 1789.24 1188.78 1797.04 1197.38 1804.85 1205.97 1808.75 1218.33 1808.75 1234.44 1808.75 1235.51 1808.74 1236.78 1808.7 1238.25 1808.66 1239.72 1808.57 1240.78 1808.43 1241.42L1736.57 1241.42C1736.64 1248.22 1737.68 1254.47 1739.68 1260.17 1741.69 1265.86 1744.89 1270.43 1749.3 1273.86 1753.7 1277.3 1759.45 1279.02 1766.54 1279.02 1774.2 1279.02 1780.16 1277.14 1784.42 1273.38 1788.68 1269.62 1790.92 1264.2 1791.14 1257.11L1808.86 1257.11C1808.65 1264.48 1806.8 1270.84 1803.33 1276.17 1799.86 1281.51 1795 1285.63 1788.77 1288.53 1782.54 1291.43 1775.13 1292.88 1766.54 1292.88 1755.65 1292.88 1746.66 1290.5 1739.57 1285.73 1732.48 1280.97 1727.2 1274.49 1723.73 1266.29 1720.26 1258.09 1718.52 1248.87 1718.52 1238.63 1718.52 1227.96 1720.2 1218.56 1723.57 1210.43 1726.93 1202.3 1732.04 1195.95 1738.88 1191.36 1745.72 1186.78 1754.29 1184.49 1764.6 1184.49ZM1559.95 1162.25 1559.95 1217.9 1591.31 1217.9C1599.98 1217.9 1607.03 1215.66 1612.47 1211.18 1617.92 1206.71 1620.64 1199.92 1620.64 1190.83 1620.64 1181.09 1617.92 1173.89 1612.47 1169.23 1607.03 1164.58 1599.98 1162.25 1591.31 1162.25ZM1540.61 1146.35 1592.82 1146.35C1601.77 1146.35 1609.81 1148.05 1616.93 1151.46 1624.06 1154.86 1629.7 1159.87 1633.85 1166.49 1638.01 1173.12 1640.08 1181.23 1640.08 1190.83 1640.08 1200.21 1638.01 1208.08 1633.85 1214.46 1629.7 1220.83 1624.06 1225.67 1616.93 1228.96 1609.81 1232.25 1601.77 1233.9 1592.82 1233.9L1559.95 1233.9 1559.95 1290.94 1540.61 1290.94ZM1936.59 1145.82C1939.96 1145.82 1942.68 1146.8 1944.76 1148.77 1946.83 1150.74 1947.87 1153.23 1947.87 1156.24 1947.87 1159.24 1946.83 1161.73 1944.76 1163.7 1942.68 1165.67 1939.96 1166.66 1936.59 1166.66 1933.15 1166.66 1930.43 1165.67 1928.43 1163.7 1926.42 1161.73 1925.42 1159.24 1925.42 1156.24 1925.42 1153.23 1926.42 1150.74 1928.43 1148.77 1930.43 1146.8 1933.15 1145.82 1936.59 1145.82Z" fill="url(#fill2)" fill-rule="evenodd"/><text fill="#000000" fill-opacity="0" font-family="Arial,Arial_MSFontService,sans-serif" font-size="147.061" x="1540.61" y="1274.49">Preview</text></g></svg>