<svg width="2507" height="799" xmlns="http://www.w3.org/2000/svg" xmlns:xlink="http://www.w3.org/1999/xlink" xml:space="preserve" overflow="hidden"><defs><linearGradient x1="2154.98" y1="854.133" x2="2154.98" y2="1613.13" gradientUnits="userSpaceOnUse" spreadMethod="reflect" id="fill0"><stop offset="0" stop-color="#282A71"/><stop offset="0.32" stop-color="#282A71"/><stop offset="0.78" stop-color="#0C98A7"/><stop offset="1" stop-color="#0C98A7"/></linearGradient><linearGradient x1="2995.01" y1="1608.88" x2="2995.01" y2="1487.88" gradientUnits="userSpaceOnUse" spreadMethod="reflect" id="fill1"><stop offset="0" stop-color="#282A71"/><stop offset="0.0075188" stop-color="#272B70"/><stop offset="0.0150376" stop-color="#272D70"/><stop offset="0.0225564" stop-color="#272F70"/><stop offset="0.0300752" stop-color="#273170"/><stop offset="0.037594" stop-color="#273370"/><stop offset="0.0451128" stop-color="#273570"/><stop offset="0.0526316" stop-color="#273670"/><stop offset="0.0601504" stop-color="#273870"/><stop offset="0.0676692" stop-color="#273A70"/><stop offset="0.075188" stop-color="#273C70"/><stop offset="0.0827068" stop-color="#273E70"/><stop offset="0.0902256" stop-color="#273F70"/><stop offset="0.0977444" stop-color="#274170"/><stop offset="0.105263" stop-color="#274370"/><stop offset="0.112782" stop-color="#274470"/><stop offset="0.120301" stop-color="#274670"/><stop offset="0.12782" stop-color="#274870"/><stop offset="0.135338" stop-color="#274970"/><stop offset="0.142857" stop-color="#264B70"/><stop offset="0.150376" stop-color="#264D70"/><stop offset="0.157895" stop-color="#264E6F"/><stop offset="0.165414" stop-color="#26506F"/><stop offset="0.172932" stop-color="#26526F"/><stop offset="0.180451" stop-color="#26536F"/><stop offset="0.18797" stop-color="#26556F"/><stop offset="0.195489" stop-color="#26566F"/><stop offset="0.203008" stop-color="#25586F"/><stop offset="0.210526" stop-color="#25596F"/><stop offset="0.218045" stop-color="#255B6F"/><stop offset="0.225564" stop-color="#255D6E"/><stop offset="0.233083" stop-color="#255E6E"/><stop offset="0.240602" stop-color="#25606E"/><stop offset="0.24812" stop-color="#25616E"/><stop offset="0.255639" stop-color="#24626E"/><stop offset="0.263158" stop-color="#24646E"/><stop offset="0.270677" stop-color="#24656E"/><stop offset="0.278196" stop-color="#24676E"/><stop offset="0.285714" stop-color="#24686D"/><stop offset="0.293233" stop-color="#236A6D"/><stop offset="0.300752" stop-color="#236B6D"/><stop offset="0.308271" stop-color="#236C6D"/><stop offset="0.315789" stop-color="#236E6D"/><stop offset="0.323308" stop-color="#236F6D"/><stop offset="0.330827" stop-color="#22706C"/><stop offset="0.338346" stop-color="#22726C"/><stop offset="0.345865" stop-color="#22736C"/><stop offset="0.353383" stop-color="#22746C"/><stop offset="0.360902" stop-color="#22766C"/><stop offset="0.368421" stop-color="#21776B"/><stop offset="0.37594" stop-color="#21786B"/><stop offset="0.383459" stop-color="#21796B"/><stop offset="0.390977" stop-color="#217B6B"/><stop offset="0.398496" stop-color="#207C6B"/><stop offset="0.406015" stop-color="#207D6A"/><stop offset="0.413534" stop-color="#207E6A"/><stop offset="0.421053" stop-color="#207F6A"/><stop offset="0.428571" stop-color="#1F816A"/><stop offset="0.43609" stop-color="#1F826A"/><stop offset="0.443609" stop-color="#1F8369"/><stop offset="0.451128" stop-color="#1F8469"/><stop offset="0.458647" stop-color="#1E8569"/><stop offset="0.466165" stop-color="#1E8669"/><stop offset="0.473684" stop-color="#1E8768"/><stop offset="0.481203" stop-color="#1D8868"/><stop offset="0.488722" stop-color="#1D8968"/><stop offset="0.496241" stop-color="#1D8A68"/><stop offset="0.503759" stop-color="#1C8B67"/><stop offset="0.511278" stop-color="#1C8C67"/><stop offset="0.518797" stop-color="#1C8E67"/><stop offset="0.526316" stop-color="#1B8E67"/><stop offset="0.533835" stop-color="#1B8F66"/><stop offset="0.541353" stop-color="#1B9066"/><stop offset="0.548872" stop-color="#1B9166"/><stop offset="0.556391" stop-color="#1A9266"/><stop offset="0.56391" stop-color="#1A9365"/><stop offset="0.571429" stop-color="#199465"/><stop offset="0.578947" stop-color="#199565"/><stop offset="0.586466" stop-color="#199664"/><stop offset="0.593985" stop-color="#189764"/><stop offset="0.601504" stop-color="#189864"/><stop offset="0.609023" stop-color="#189863"/><stop offset="0.616541" stop-color="#179963"/><stop offset="0.62406" stop-color="#179A63"/><stop offset="0.631579" stop-color="#179B63"/><stop offset="0.639098" stop-color="#169C62"/><stop offset="0.646617" stop-color="#169C62"/><stop offset="0.654135" stop-color="#159D62"/><stop offset="0.661654" stop-color="#159E61"/><stop offset="0.669173" stop-color="#159F61"/><stop offset="0.676692" stop-color="#149F61"/><stop offset="0.684211" stop-color="#14A060"/><stop offset="0.691729" stop-color="#13A160"/><stop offset="0.699248" stop-color="#13A160"/><stop offset="0.706767" stop-color="#13A25F"/><stop offset="0.714286" stop-color="#12A35F"/><stop offset="0.721804" stop-color="#12A35F"/><stop offset="0.729323" stop-color="#11A45E"/><stop offset="0.736842" stop-color="#11A55E"/><stop offset="0.744361" stop-color="#11A55E"/><stop offset="0.75188" stop-color="#10A65D"/><stop offset="0.759399" stop-color="#10A65D"/><stop offset="0.766917" stop-color="#0FA75C"/><stop offset="0.774436" stop-color="#0FA75C"/><stop offset="0.781955" stop-color="#0EA85C"/><stop offset="0.789474" stop-color="#0EA85B"/><stop offset="0.796992" stop-color="#0DA95B"/><stop offset="0.804511" stop-color="#0DA95B"/><stop offset="0.81203" stop-color="#0CAA5A"/><stop offset="0.819549" stop-color="#0CAA5A"/><stop offset="0.827068" stop-color="#0BAB59"/><stop offset="0.834586" stop-color="#0BAB59"/><stop offset="0.842105" stop-color="#0BAB59"/><stop offset="0.849624" stop-color="#0AAC58"/><stop offset="0.857143" stop-color="#0AAC58"/><stop offset="0.864662" stop-color="#09AC57"/><stop offset="0.87218" stop-color="#09AD57"/><stop offset="0.879699" stop-color="#08AD57"/><stop offset="0.887218" stop-color="#08AD56"/><stop offset="0.894737" stop-color="#07AE56"/><stop offset="0.902256" stop-color="#07AE55"/><stop offset="0.909774" stop-color="#06AE55"/><stop offset="0.917293" stop-color="#05AE54"/><stop offset="0.924812" stop-color="#05AE54"/><stop offset="0.932331" stop-color="#04AF54"/><stop offset="0.93985" stop-color="#04AF53"/><stop offset="0.947368" stop-color="#03AF53"/><stop offset="0.954887" stop-color="#03AF52"/><stop offset="0.962406" stop-color="#02AF52"/><stop offset="0.969925" stop-color="#02AF51"/><stop offset="0.977444" stop-color="#01AF51"/><stop offset="0.984962" stop-color="#01AF50"/><stop offset="0.992481" stop-color="#00AF50"/><stop offset="1" stop-color="#00B050"/></linearGradient></defs><g transform="translate(-914 -838)"><path d="M3205.12 1208.92C3193.58 1208.92 3184.52 1213.45 3177.92 1222.52 3171.74 1230.96 3168.65 1239.51 3168.65 1248.17 3168.65 1254.35 3170.14 1258.68 3173.13 1261.15 3176.12 1263.62 3181.32 1264.86 3188.74 1264.86L3219.96 1264.86C3233.15 1264.86 3239.74 1258.78 3239.74 1246.62 3239.74 1235.5 3236.55 1226.43 3230.16 1219.42 3223.77 1212.42 3215.42 1208.92 3205.12 1208.92ZM2762.52 1155.44C2774.68 1155.44 2780.76 1160.6 2780.76 1170.9L2780.76 1338.42C2780.76 1374.27 2792.61 1392.2 2816.3 1392.2 2822.28 1392.2 2828.15 1390.5 2833.92 1387.1 2839.69 1383.7 2843.71 1379.53 2845.97 1374.58 2850.51 1364.69 2852.77 1342.64 2852.77 1308.44 2852.77 1274.65 2851.64 1251.57 2849.37 1239.21 2848.55 1234.05 2847.11 1230.29 2845.05 1227.92 2842.99 1225.55 2839.07 1222.82 2833.3 1219.73 2821.56 1213.55 2815.68 1205.72 2815.68 1196.24 2815.68 1183.47 2825.78 1174.61 2845.97 1169.66 2884.3 1160.18 2922.11 1155.44 2959.41 1155.44 2980.22 1155.44 2990.62 1166.47 2990.62 1188.52 2990.62 1190.78 2990.52 1195.42 2990.32 1202.42 2989.9 1212.32 2989.59 1224.37 2989.39 1238.59L2989.39 1374.89C2989.39 1381.9 2995.36 1388.29 3007.32 1394.06 3017.41 1399 3022.46 1406.21 3022.46 1415.69 3022.46 1434.24 3000.52 1448.56 2956.63 1458.65 2930.87 1464.63 2905.94 1467.62 2881.83 1467.62 2871.94 1467.62 2865.19 1466.48 2861.58 1464.22 2857.98 1461.95 2855.87 1457.52 2855.25 1450.93 2854.22 1438.15 2850.3 1431.76 2843.5 1431.76 2841.03 1431.76 2838.76 1432.33 2836.7 1433.46 2834.64 1434.6 2828.36 1438.77 2817.85 1445.98 2797.04 1460.2 2774.68 1467.31 2750.78 1467.31 2711.22 1467.31 2683.29 1455.87 2667.02 1433 2653.21 1413.84 2646.31 1381.59 2646.31 1336.26 2646.31 1319.36 2646.41 1304.94 2646.62 1292.99 2646.62 1285.98 2646.62 1281.24 2646.62 1278.77 2646.62 1261.05 2645.02 1248.01 2641.83 1239.67 2638.63 1231.32 2632.81 1224.78 2624.36 1220.04 2616.33 1215.92 2611.23 1212.62 2609.06 1210.15 2606.9 1207.68 2605.82 1204.28 2605.82 1199.95 2605.82 1184.29 2617.67 1173.89 2641.36 1168.73 2681.75 1159.87 2722.14 1155.44 2762.52 1155.44ZM2046.23 1155.44C2057.56 1155.44 2063.23 1161.83 2063.23 1174.61L2063.23 1354.18C2063.23 1368.4 2064.52 1378.81 2067.09 1385.4 2069.67 1391.99 2074.87 1398.07 2082.7 1403.64 2089.09 1408.17 2093.37 1412.03 2095.53 1415.23 2097.69 1418.42 2098.78 1422.49 2098.78 1427.44 2098.78 1454.02 2065.09 1467.31 1997.71 1467.31 1961.44 1467.31 1932.7 1464.42 1911.47 1458.65 1904.26 1456.59 1898.44 1452.99 1894.01 1447.84 1889.58 1442.68 1887.36 1436.81 1887.36 1430.22 1887.36 1424.65 1888.5 1420.33 1890.76 1417.24 1893.03 1414.15 1898.8 1409.2 1908.07 1402.4 1914.46 1397.66 1918.99 1389.93 1921.67 1379.22 1924.35 1368.5 1925.69 1352.54 1925.69 1331.31 1925.69 1324.51 1925.23 1311.79 1924.3 1293.14 1923.37 1274.49 1922.7 1263.62 1922.29 1260.53 1921.05 1252.08 1915.28 1245.59 1904.98 1241.06 1892.21 1235.5 1885.82 1227.25 1885.82 1216.33 1885.82 1203.35 1894.16 1193.67 1910.85 1187.28 1933.93 1178.42 1958.66 1170.9 1985.03 1164.72 2011.41 1158.54 2031.81 1155.44 2046.23 1155.44ZM1737.76 1155.14C1763.72 1155.14 1785.97 1161.93 1804.52 1175.53 1817.5 1185.22 1826.57 1196.6 1831.72 1209.69 1836.87 1222.77 1840.06 1241.99 1841.3 1267.33L1845.63 1376.13C1846.04 1384.37 1847.33 1390.45 1849.49 1394.36 1851.65 1398.28 1857.99 1405.8 1868.5 1416.93 1871.59 1420.22 1873.13 1424.86 1873.13 1430.84 1873.13 1444.44 1864.99 1453.91 1848.72 1459.27 1832.44 1464.63 1803.38 1467.31 1761.55 1467.31 1733.12 1467.31 1713.03 1464.84 1701.28 1459.89 1689.13 1454.74 1683.05 1446.39 1683.05 1434.85 1683.05 1430.73 1683.67 1427.69 1684.9 1425.74 1686.14 1423.78 1690.26 1418.99 1697.27 1411.36 1705.51 1402.71 1709.63 1373.86 1709.63 1324.82 1709.63 1296.39 1706.33 1275.37 1699.74 1261.77 1694.38 1250.85 1684.49 1245.39 1670.07 1245.39 1656.26 1245.39 1646.78 1249.82 1641.63 1258.68 1636.48 1267.54 1633.9 1283.61 1633.9 1306.89L1633.9 1368.09C1633.9 1380.25 1634.68 1388.6 1636.22 1393.13 1637.77 1397.66 1642.87 1406.42 1651.52 1419.4 1653.79 1423.11 1654.92 1427.33 1654.92 1432.07 1654.92 1444.23 1646.47 1453.19 1629.58 1458.96 1612.68 1464.73 1586.31 1467.62 1550.45 1467.62 1493.17 1467.62 1464.53 1455.77 1464.53 1432.07 1464.53 1427.13 1465.4 1423.37 1467.15 1420.79 1468.91 1418.22 1473.08 1414.56 1479.67 1409.82 1485.03 1405.9 1488.43 1401.42 1489.87 1396.37 1491.31 1391.33 1492.65 1378.91 1493.89 1359.13 1495.33 1335.64 1496.05 1311.02 1496.05 1285.26 1496.05 1271.04 1494.97 1261.72 1492.81 1257.29 1490.64 1252.86 1484.41 1247.45 1474.11 1241.06 1465.25 1235.5 1460.82 1228.7 1460.82 1220.66 1460.82 1212.42 1464.42 1205.67 1471.64 1200.42 1478.85 1195.16 1493.68 1188.52 1516.14 1180.48 1535.93 1173.47 1554.99 1167.55 1573.32 1162.71 1591.66 1157.87 1604.23 1155.44 1611.03 1155.44 1617.21 1155.44 1622.42 1157.71 1626.64 1162.24 1630.86 1166.78 1632.98 1172.13 1632.98 1178.32 1632.98 1178.93 1632.87 1181.51 1632.67 1186.04 1632.46 1187.69 1632.36 1189.13 1632.36 1190.37 1632.36 1200.26 1636.48 1205.21 1644.72 1205.21 1649.67 1205.21 1654.92 1201.29 1660.49 1193.46 1678.21 1167.91 1703.96 1155.14 1737.76 1155.14ZM3208.21 1153.28C3247.36 1153.28 3280.64 1164.41 3308.05 1186.66 3321.85 1197.79 3332.98 1210.98 3341.43 1226.22 3351.11 1243.53 3355.95 1260.43 3355.95 1276.91 3355.95 1290.31 3353.17 1301.28 3347.61 1309.83 3342.05 1318.38 3334.83 1322.66 3325.97 1322.66L3180.7 1322.66C3174.32 1322.66 3171.12 1325.44 3171.12 1331 3171.12 1344.4 3178.39 1357.02 3192.91 1368.87 3207.44 1380.71 3223.05 1386.64 3239.74 1386.64 3249.63 1386.64 3260.6 1384.73 3272.66 1380.92 3284.71 1377.11 3294.65 1372.42 3302.48 1366.86 3309.49 1361.91 3315.05 1359.44 3319.17 1359.44 3324.53 1359.44 3329.79 1362.74 3334.94 1369.33 3340.09 1375.92 3342.66 1382.72 3342.66 1389.73 3342.66 1404.56 3333.39 1418.89 3314.85 1432.69 3282.08 1457.21 3244.27 1469.47 3201.41 1469.47 3158.14 1469.47 3121.88 1456.9 3092.62 1431.76 3078.4 1419.4 3066.65 1404.46 3057.38 1386.95 3045.22 1363.66 3039.15 1339.14 3039.15 1313.39 3039.15 1278.77 3049.65 1247.65 3070.67 1220.04 3088.8 1196.14 3111.88 1178.32 3139.91 1166.57 3160.92 1157.71 3183.69 1153.28 3208.21 1153.28ZM2324.47 1120.21C2308.19 1120.21 2295.46 1125.72 2286.29 1136.74 2277.13 1147.77 2272.54 1162.97 2272.54 1182.33 2272.54 1205.21 2276.2 1230.14 2283.51 1257.13 2290.83 1284.13 2300.77 1309.57 2313.34 1333.48 2330.24 1365.62 2351.25 1381.69 2376.39 1381.69 2392.67 1381.69 2406.12 1376.03 2416.73 1364.69 2427.34 1353.36 2432.65 1338.94 2432.65 1321.42 2432.65 1298.34 2428.52 1272.07 2420.28 1242.61 2412.04 1213.14 2401.53 1187.28 2388.76 1165.03 2372.27 1135.97 2350.84 1121.03 2324.47 1120.21ZM2002.03 1039.23C2019.96 1039.23 2034.18 1042.58 2044.69 1049.27 2055.2 1055.97 2060.45 1064.99 2060.45 1076.32 2060.45 1092.19 2052.52 1104.75 2036.65 1114.03 2011.51 1128.66 1981.12 1135.97 1945.47 1135.97 1930.43 1135.97 1918.48 1133.09 1909.62 1127.32 1897.67 1119.9 1891.69 1109.6 1891.69 1096.41 1891.69 1078.69 1904.36 1064.78 1929.71 1054.68 1955.46 1044.38 1979.57 1039.23 2002.03 1039.23ZM1072.74 1033.05C1106.74 1033.05 1134.97 1035.62 1157.43 1040.77 1179.48 1045.72 1190.5 1056.95 1190.5 1074.46 1190.5 1083.12 1187.31 1090.02 1180.92 1095.17 1179.48 1096.41 1173.3 1099.6 1162.38 1104.75 1155.78 1107.64 1151.3 1112.89 1148.93 1120.52 1146.56 1128.14 1145.38 1140.71 1145.38 1158.23 1145.38 1176.15 1144.55 1214.89 1142.9 1274.44 1141.87 1309.88 1151.45 1336.88 1171.65 1355.42 1188.13 1370.67 1209.36 1378.29 1235.32 1378.29 1251.8 1378.29 1266.74 1375.25 1280.14 1369.17 1293.53 1363.1 1303.73 1354.8 1310.74 1344.29 1316.3 1336.26 1320.11 1327.29 1322.17 1317.4 1324.23 1307.51 1325.26 1294.02 1325.26 1276.91L1325.26 1208.92C1324.23 1156.78 1322.74 1126.24 1320.78 1117.27 1318.82 1108.31 1312.18 1101.25 1300.84 1096.1 1290.13 1091.36 1282.81 1087.03 1278.9 1083.12 1274.98 1079.2 1273.03 1074.36 1273.03 1068.59 1273.03 1056.23 1280.39 1047.21 1295.13 1041.55 1309.86 1035.88 1333.5 1033.05 1366.06 1033.05 1398 1033.05 1421.13 1035.83 1435.45 1041.39 1449.77 1046.96 1456.93 1055.82 1456.93 1067.97 1456.93 1073.95 1455.69 1078.38 1453.22 1081.26 1450.75 1084.15 1444.26 1088.58 1433.75 1094.56 1422.83 1100.74 1416.6 1107.38 1415.05 1114.49 1413.51 1121.6 1412.53 1148.03 1412.11 1193.77L1412.11 1269.19C1412.11 1314.72 1408.71 1346.97 1401.91 1365.93 1387.28 1405.9 1355.14 1434.85 1305.48 1452.78 1275.4 1463.91 1241.4 1469.47 1203.48 1469.47 1137.34 1469.47 1084.38 1453.71 1044.62 1422.18 1025.25 1406.73 1011.85 1388.8 1004.43 1368.4 997.017 1348 993.308 1318.54 993.308 1280 993.308 1264.96 993.823 1240.24 994.853 1205.82 995.472 1181.51 995.781 1165.44 995.781 1157.61 995.781 1140.51 994.493 1128.66 991.917 1122.06 989.341 1115.47 983.726 1109.29 975.072 1103.52 961.472 1094.66 954.673 1084.77 954.673 1073.85 954.673 1065.81 958.124 1058.7 965.027 1052.52 971.93 1046.34 981.048 1042.11 992.381 1039.85 1015.05 1035.31 1041.83 1033.05 1072.74 1033.05ZM2355.07 1030.58C2384.94 1030.58 2416.16 1037.17 2448.72 1050.36 2491.37 1067.66 2524.85 1096.92 2549.17 1138.14 2571.63 1176.26 2582.86 1215.82 2582.86 1256.82 2582.86 1302.77 2569.36 1344.29 2542.37 1381.38 2530.01 1398.69 2514.66 1413.89 2496.32 1426.97 2477.98 1440.06 2459.23 1449.28 2440.06 1454.64 2435.12 1456.08 2432.65 1458.14 2432.65 1460.82 2432.65 1468.24 2441.76 1474.73 2460 1480.29 2478.23 1485.85 2499.1 1488.63 2522.59 1488.63 2537.01 1488.63 2550.71 1485.75 2563.7 1479.98 2566.37 1478.74 2568.74 1478.13 2570.8 1478.13 2574.1 1478.13 2577.4 1480.7 2580.7 1485.85 2583.99 1491 2585.64 1496.16 2585.64 1501.31 2585.64 1511.82 2579.05 1522.94 2565.86 1534.69 2552.47 1546.64 2535.11 1556.12 2513.78 1563.12 2492.45 1570.13 2470.46 1573.63 2447.79 1573.63 2421.21 1573.63 2392.41 1568.58 2361.4 1558.49 2330.39 1548.39 2285.11 1529.33 2225.56 1501.31 2215.05 1496.16 2203.2 1491.88 2190.02 1488.48 2176.83 1485.08 2165.91 1483.38 2157.25 1483.38 2154.37 1483.38 2150.87 1483.69 2146.74 1484.31 2144.48 1484.51 2142.52 1484.62 2140.87 1484.62 2136.96 1484.62 2133.71 1482.92 2131.14 1479.52 2128.56 1476.12 2127.27 1471.84 2127.27 1466.69 2127.27 1457.21 2130.36 1449.28 2136.54 1442.89 2146.44 1433 2158.59 1428.05 2173.02 1428.05L2189.71 1428.36C2194.24 1428.36 2196.51 1426.3 2196.51 1422.18 2196.51 1419.09 2192.28 1412.6 2183.83 1402.71 2164.67 1380.66 2150.56 1360.06 2141.49 1340.89 2127.48 1311.02 2120.47 1279.7 2120.47 1246.93 2120.47 1203.66 2131.91 1164.92 2154.78 1130.72 2177.03 1097.54 2209.28 1071.68 2251.52 1053.14 2286.14 1038.1 2320.65 1030.58 2355.07 1030.58Z" fill="url(#fill0)" fill-rule="evenodd"/><text fill="#000000" fill-opacity="0" font-family="Arial,Arial_MSFontService,sans-serif" font-size="543.057" x="954.673" y="1505.75">UniQue</text><path d="M3042.51 1550.02C3040.17 1550.02 3038.91 1551.57 3038.71 1554.66L3037.97 1568.22C3037.94 1568.78 3037.92 1569.32 3037.92 1569.85 3037.92 1570.87 3038.36 1571.69 3039.25 1572.31 3040.14 1572.94 3041.32 1573.25 3042.8 1573.25 3047.34 1573.25 3049.61 1569.52 3049.61 1562.06 3049.61 1557.22 3048.65 1553.82 3046.75 1551.85 3045.56 1550.63 3044.15 1550.02 3042.51 1550.02ZM2878.24 1547.11C2876.8 1547.11 2875.64 1547.65 2874.77 1548.72 2873.9 1549.79 2873.46 1551.21 2873.46 1552.98 2873.46 1554.96 2873.83 1557.64 2874.57 1561.05 2875.31 1564.45 2876.19 1567.47 2877.21 1570.1 2878.23 1572.79 2879.89 1574.14 2882.19 1574.14 2885.11 1574.14 2886.58 1572.28 2886.58 1568.57 2886.58 1565.8 2886.21 1562.67 2885.47 1559.15 2884.73 1555.63 2883.83 1552.77 2882.78 1550.57 2881.7 1548.33 2880.18 1547.18 2878.24 1547.11ZM3295.53 1546.32C3293.4 1546.32 3291.7 1547.46 3290.45 1549.73 3288.78 1552.75 3287.94 1556.73 3287.94 1561.66 3287.94 1566.13 3288.74 1569.5 3290.36 1571.77 3291.51 1573.42 3293.07 1574.24 3295.04 1574.24 3297.18 1574.24 3298.73 1573 3299.7 1570.51 3300.67 1568.03 3301.16 1564.03 3301.16 1558.51 3301.16 1553.44 3300.58 1550.07 3299.43 1548.4 3298.54 1547.08 3297.24 1546.39 3295.53 1546.32ZM3237.95 1544.65C3236.11 1544.65 3234.66 1545.37 3233.61 1546.82 3232.62 1548.17 3232.13 1549.53 3232.13 1550.91 3232.13 1551.9 3232.37 1552.59 3232.84 1552.98 3233.32 1553.38 3234.15 1553.57 3235.33 1553.57L3240.31 1553.57C3242.42 1553.57 3243.47 1552.6 3243.47 1550.66 3243.47 1548.89 3242.96 1547.44 3241.94 1546.32 3240.92 1545.21 3239.59 1544.65 3237.95 1544.65ZM3138.95 1544.65C3137.11 1544.65 3135.66 1545.37 3134.61 1546.82 3133.62 1548.17 3133.13 1549.53 3133.13 1550.91 3133.13 1551.9 3133.37 1552.59 3133.84 1552.98 3134.32 1553.38 3135.15 1553.57 3136.33 1553.57L3141.31 1553.57C3143.42 1553.57 3144.47 1552.6 3144.47 1550.66 3144.47 1548.89 3143.96 1547.44 3142.94 1546.32 3141.92 1545.21 3140.59 1544.65 3138.95 1544.65ZM2936.58 1536.12C2938.45 1536.12 2939.39 1537.45 2939.39 1540.11 2939.39 1540.14 2939.39 1540.42 2939.39 1540.95 2939.36 1541.48 2939.34 1541.9 2939.34 1542.23 2939.34 1544.01 2939.87 1544.89 2940.92 1544.89 2941.48 1544.89 2942.35 1544.19 2943.53 1542.77 2945.31 1540.74 2947.54 1539.12 2950.24 1537.92 2952.94 1536.72 2955.7 1536.12 2958.53 1536.12 2964.02 1536.12 2967.83 1538.12 2969.97 1542.13 2970.79 1543.61 2971.46 1544.35 2971.99 1544.35 2972.35 1544.35 2973.21 1543.69 2974.55 1542.38 2978.83 1538.2 2983.68 1536.12 2989.1 1536.12 2993.34 1536.12 2996.81 1537.28 2999.51 1539.62 3002.34 1542.05 3003.75 1545.7 3003.75 1550.57 3003.75 1551.62 3003.72 1553.39 3003.65 1555.89 3003.58 1556.75 3003.55 1559.33 3003.55 1563.64 3003.55 1566.4 3003.54 1568.34 3003.5 1569.45 3003.47 1570.14 3003.45 1570.64 3003.45 1570.93 3003.45 1573.04 3004.11 1574.88 3005.43 1576.46 3006.21 1577.41 3006.7 1578.04 3006.88 1578.36 3007.06 1578.67 3007.15 1579.09 3007.15 1579.61 3007.15 1583.82 3002.2 1585.93 2992.31 1585.93 2987.93 1585.93 2984.41 1585.4 2981.73 1584.35 2979.05 1583.3 2977.71 1581.92 2977.71 1580.21 2977.71 1579.55 2977.8 1579.05 2977.98 1578.7 2978.16 1578.36 2978.79 1577.44 2979.88 1575.96 2980.9 1574.62 2981.41 1570.13 2981.41 1562.5 2981.41 1558.06 2981.1 1554.97 2980.47 1553.23 2979.75 1551.16 2978.3 1550.12 2976.13 1550.12 2975.05 1550.12 2974.09 1550.46 2973.25 1551.13 2972.41 1551.81 2971.86 1552.65 2971.59 1553.67 2971.3 1554.86 2971.13 1558.01 2971.1 1563.14 2971.2 1568.67 2971.37 1572.02 2971.62 1573.2 2971.87 1574.39 2972.7 1576.03 2974.11 1578.13 2974.44 1578.63 2974.6 1579.25 2974.6 1580.01 2974.6 1583.92 2969.49 1585.88 2959.27 1585.88 2953.12 1585.88 2948.97 1585.42 2946.84 1584.5 2945.13 1583.77 2944.27 1582.49 2944.27 1580.65 2944.27 1579.83 2944.38 1579.25 2944.59 1578.92 2944.81 1578.59 2945.54 1577.84 2946.79 1576.65 2947.51 1575.96 2947.98 1575.31 2948.19 1574.71 2948.41 1574.1 2948.56 1572.99 2948.66 1571.38 2948.89 1567.76 2949.01 1564.11 2949.01 1560.43 2949.01 1553.99 2947.36 1550.76 2944.08 1550.76 2941.61 1550.76 2940.15 1552.14 2939.69 1554.91 2939.29 1557.5 2939.1 1561.22 2939.1 1566.05 2939.1 1569.67 2939.17 1572.04 2939.32 1573.15 2939.47 1574.27 2939.87 1575.44 2940.53 1576.65 2941.31 1578.07 2941.71 1579.22 2941.71 1580.11 2941.71 1582.24 2940.21 1583.72 2937.22 1584.55 2933.97 1585.43 2930.38 1585.88 2926.47 1585.88 2921.41 1585.88 2917.69 1585.47 2915.32 1584.67 2912.96 1583.86 2911.77 1582.59 2911.77 1580.85 2911.77 1580.19 2911.93 1579.63 2912.24 1579.17 2912.55 1578.71 2913.27 1577.99 2914.39 1577 2915.87 1575.65 2916.72 1573.79 2916.95 1571.43 2917.31 1567.35 2917.49 1563.13 2917.49 1558.75 2917.49 1555.63 2917.34 1553.45 2917.03 1552.22 2916.71 1550.99 2916.05 1549.99 2915.03 1549.23 2914.04 1548.48 2913.41 1547.9 2913.13 1547.51 2912.85 1547.11 2912.71 1546.57 2912.71 1545.88 2912.71 1543.68 2914.44 1541.94 2917.89 1540.65 2926.21 1537.66 2932.44 1536.15 2936.58 1536.12ZM3238.44 1535.77C3244.69 1535.77 3250 1537.55 3254.37 1541.1 3256.57 1542.87 3258.35 1544.98 3259.7 1547.41 3261.24 1550.17 3262.01 1552.87 3262.01 1555.5 3262.01 1557.63 3261.57 1559.39 3260.68 1560.75 3259.79 1562.11 3258.64 1562.8 3257.23 1562.8L3234.05 1562.8C3233.03 1562.8 3232.52 1563.24 3232.52 1564.13 3232.52 1566.27 3233.68 1568.28 3236 1570.17 3238.32 1572.06 3240.81 1573.01 3243.47 1573.01 3245.05 1573.01 3246.8 1572.7 3248.72 1572.09 3250.65 1571.48 3252.23 1570.74 3253.48 1569.85 3254.6 1569.06 3255.49 1568.67 3256.15 1568.67 3257 1568.67 3257.84 1569.19 3258.66 1570.24 3259.48 1571.3 3259.89 1572.38 3259.89 1573.5 3259.89 1575.87 3258.41 1578.15 3255.45 1580.35 3250.23 1584.27 3244.19 1586.22 3237.36 1586.22 3230.45 1586.22 3224.66 1584.22 3220 1580.21 3217.73 1578.23 3215.85 1575.85 3214.37 1573.05 3212.43 1569.34 3211.46 1565.43 3211.46 1561.32 3211.46 1555.79 3213.14 1550.83 3216.49 1546.42 3219.39 1542.61 3223.07 1539.77 3227.54 1537.89 3230.9 1536.48 3234.53 1535.77 3238.44 1535.77ZM3139.44 1535.77C3145.69 1535.77 3151 1537.55 3155.37 1541.1 3157.57 1542.87 3159.35 1544.98 3160.7 1547.41 3162.24 1550.17 3163.01 1552.87 3163.01 1555.5 3163.01 1557.63 3162.57 1559.39 3161.68 1560.75 3160.79 1562.11 3159.64 1562.8 3158.23 1562.8L3135.05 1562.8C3134.03 1562.8 3133.52 1563.24 3133.52 1564.13 3133.52 1566.27 3134.68 1568.28 3137 1570.17 3139.32 1572.06 3141.81 1573.01 3144.47 1573.01 3146.05 1573.01 3147.8 1572.7 3149.72 1572.09 3151.65 1571.48 3153.23 1570.74 3154.48 1569.85 3155.6 1569.06 3156.49 1568.67 3157.15 1568.67 3158 1568.67 3158.84 1569.19 3159.66 1570.24 3160.48 1571.3 3160.89 1572.38 3160.89 1573.5 3160.89 1575.87 3159.41 1578.15 3156.45 1580.35 3151.23 1584.27 3145.19 1586.22 3138.36 1586.22 3131.45 1586.22 3125.66 1584.22 3121 1580.21 3118.73 1578.23 3116.85 1575.85 3115.37 1573.05 3113.43 1569.34 3112.46 1565.43 3112.46 1561.32 3112.46 1555.79 3114.14 1550.83 3117.49 1546.42 3120.39 1542.61 3124.07 1539.77 3128.54 1537.89 3131.9 1536.48 3135.53 1535.77 3139.44 1535.77ZM3054.15 1535.72C3058.32 1535.72 3062.05 1537.17 3065.34 1540.06 3067.84 1542.26 3069.78 1545.04 3071.16 1548.4 3072.61 1551.91 3073.33 1555.61 3073.33 1559.49 3073.33 1567.78 3070.53 1574.6 3064.95 1579.96 3060.64 1584.13 3055.74 1586.22 3050.25 1586.22 3047.45 1586.22 3044.58 1585.56 3041.62 1584.25 3041.03 1583.99 3040.55 1583.85 3040.19 1583.85 3039.2 1583.85 3038.71 1584.84 3038.71 1586.81 3038.71 1589.41 3039.58 1591.29 3041.32 1592.44 3042.93 1593.52 3043.9 1594.25 3044.21 1594.63 3044.52 1595.01 3044.68 1595.64 3044.68 1596.53 3044.68 1598.5 3043.57 1600.02 3041.37 1601.09 3039.17 1602.16 3036.06 1602.69 3032.05 1602.69 3024.92 1602.69 3018.67 1601.26 3013.31 1598.4 3010.58 1596.96 3009.22 1595.16 3009.22 1593.03 3009.22 1592.04 3009.42 1591.29 3009.83 1590.78 3010.25 1590.27 3011.04 1589.74 3012.23 1589.18 3013.94 1588.39 3014.98 1586.96 3015.36 1584.89 3015.74 1582.82 3016.02 1576.87 3016.22 1567.04 3015.99 1558.95 3015.69 1554.41 3015.33 1553.43 3015.2 1553.1 3015.01 1552.88 3014.77 1552.79 3014.52 1552.69 3013.71 1552.51 3012.32 1552.24 3011.27 1552.05 3010.42 1551.56 3009.76 1550.79 3009.1 1550.02 3008.77 1549.09 3008.77 1548 3008.77 1546.69 3009.23 1545.53 3010.15 1544.52 3011.08 1543.52 3012.57 1542.54 3014.64 1541.59 3022.7 1537.94 3029.09 1536.08 3033.83 1536.02 3035.83 1536.02 3037.08 1536.19 3037.57 1536.54 3038.07 1536.88 3038.31 1537.74 3038.31 1539.12 3038.31 1540.34 3038.71 1540.95 3039.5 1540.95 3039.83 1540.95 3040.93 1540.32 3042.8 1539.08 3044.22 1538.12 3046.02 1537.32 3048.2 1536.68 3050.39 1536.04 3052.37 1535.72 3054.15 1535.72ZM2882.19 1535.72C2888.21 1535.72 2893.48 1537.28 2898.02 1540.41 2901.27 1542.64 2903.89 1545.55 2905.86 1549.14 2907.9 1552.88 2908.92 1556.8 2908.92 1560.87 2908.92 1568.01 2905.65 1574.07 2899.1 1579.07 2892.86 1583.84 2885.71 1586.22 2877.65 1586.22 2869.79 1586.22 2863.43 1583.99 2858.57 1579.51 2853.83 1575.18 2851.46 1569.52 2851.46 1562.55 2851.46 1554.79 2854.36 1548.45 2860.14 1543.51 2866.19 1538.32 2873.54 1535.72 2882.19 1535.72ZM2740.48 1535.72C2741.99 1535.72 2743.52 1536.69 2745.07 1538.63 2746.31 1540.18 2747.33 1541.87 2748.12 1543.71 2748.91 1545.55 2749.31 1547.15 2749.31 1548.49 2749.31 1549.81 2748.85 1550.9 2747.93 1551.77 2747.01 1552.65 2745.85 1553.08 2744.47 1553.08 2743.32 1553.08 2742.3 1552.8 2741.39 1552.24 2740.49 1551.68 2739.03 1550.45 2737.03 1548.54 2734.92 1546.51 2733.18 1545.49 2731.8 1545.49 2730.88 1545.49 2730.08 1545.82 2729.41 1546.5 2728.73 1547.17 2728.4 1547.97 2728.4 1548.89 2728.4 1550.5 2729.94 1552.01 2733.03 1553.43 2738.59 1555.93 2742.85 1558.65 2745.81 1561.61 2748.3 1564.11 2749.55 1567.17 2749.55 1570.79 2749.55 1575.36 2747.55 1579.17 2743.54 1582.23 2740.08 1584.89 2735.86 1586.22 2730.86 1586.22 2729.58 1586.22 2727.25 1586.01 2723.86 1585.58 2720.67 1585.22 2718.88 1585.04 2718.48 1585.04 2718.06 1585.04 2717.56 1585.09 2717 1585.19 2716.05 1585.32 2715.36 1585.38 2714.93 1585.38 2713.39 1585.38 2712.17 1584.99 2711.28 1584.2 2709.94 1582.98 2708.69 1581.07 2707.54 1578.45 2706.39 1575.84 2705.81 1573.6 2705.81 1571.72 2705.81 1568.7 2706.99 1567.19 2709.36 1567.19 2710.28 1567.19 2711.13 1567.49 2711.9 1568.1 2712.67 1568.71 2714.29 1570.33 2716.76 1572.96 2718.11 1574.4 2719.22 1575.4 2720.11 1575.94 2721 1576.48 2721.95 1576.75 2722.97 1576.75 2724.06 1576.75 2724.93 1576.47 2725.59 1575.89 2726.24 1575.31 2726.57 1574.55 2726.57 1573.6 2726.57 1572.12 2725.31 1570.77 2722.77 1569.55 2717.48 1566.96 2713.66 1564.28 2711.31 1561.51 2708.96 1558.75 2707.78 1555.56 2707.78 1551.95 2707.78 1548.03 2708.98 1544.66 2711.38 1541.84 2714.8 1537.79 2719.47 1535.77 2725.39 1535.77 2727.03 1535.77 2729.71 1536.13 2733.43 1536.86 2734.18 1536.99 2734.81 1537.05 2735.3 1537.05 2735.86 1537.05 2736.94 1536.76 2738.56 1536.17 2739.31 1535.87 2739.95 1535.72 2740.48 1535.72ZM3188.89 1523.89 3192.88 1523.89C3193.71 1523.89 3194.26 1524.08 3194.54 1524.45 3194.82 1524.83 3194.96 1525.58 3194.96 1526.7L3194.96 1533.35C3194.96 1534.34 3195.11 1534.98 3195.42 1535.28 3195.74 1535.57 3196.4 1535.72 3197.42 1535.72L3206.54 1535.72C3207.76 1535.72 3208.55 1535.94 3208.91 1536.39 3209.27 1536.83 3209.45 1537.78 3209.45 1539.22L3209.45 1542.13C3209.45 1543.71 3209.22 1544.8 3208.76 1545.41 3208.3 1546.02 3207.47 1546.32 3206.25 1546.32L3197.32 1546.32C3196.4 1546.32 3195.78 1546.49 3195.45 1546.82 3195.12 1547.15 3194.96 1547.77 3194.96 1548.69L3194.96 1565.36C3194.96 1567.33 3195.44 1568.94 3196.41 1570.19 3197.38 1571.44 3198.62 1572.07 3200.13 1572.07 3201.42 1572.07 3203.11 1571.48 3205.21 1570.29 3205.71 1570 3206.2 1569.85 3206.69 1569.85 3207.48 1569.85 3208.21 1570.33 3208.86 1571.28 3209.52 1572.23 3209.85 1573.27 3209.85 1574.39 3209.85 1576.42 3208.73 1578.38 3206.5 1580.25 3201.83 1584.23 3196.17 1586.22 3189.53 1586.22 3184.27 1586.22 3180.05 1584.73 3176.86 1581.76 3173.67 1578.78 3172.07 1574.86 3172.07 1570L3172.07 1547.21C3172.07 1546.46 3171.98 1545.99 3171.8 1545.81 3171.62 1545.63 3171.15 1545.54 3170.4 1545.54L3165.32 1545.54C3164.36 1545.54 3163.75 1545.38 3163.49 1545.07 3163.23 1544.76 3163.1 1544.02 3163.1 1542.87L3163.1 1540.7C3163.13 1539.72 3163.51 1538.99 3164.23 1538.53L3186.82 1524.33C3187.38 1524.03 3188.07 1523.89 3188.89 1523.89ZM3102.16 1517.52C3104.76 1517.52 3106.05 1519.14 3106.05 1522.36 3106.05 1523.41 3105.89 1525.83 3105.56 1529.61 3105.13 1535.49 3104.89 1540.88 3104.82 1545.78L3104.82 1561.61C3104.82 1568.62 3104.93 1572.69 3105.14 1573.84 3105.36 1574.99 3106.17 1575.88 3107.58 1576.51 3108.8 1577.03 3109.61 1577.53 3110.02 1577.99 3110.44 1578.45 3110.64 1579.1 3110.64 1579.96 3110.64 1581.04 3110.25 1582.03 3109.48 1582.92 3108.71 1583.81 3107.68 1584.43 3106.4 1584.79 3104.03 1585.52 3100.04 1585.88 3094.42 1585.88 3088.07 1585.88 3083.62 1585.4 3081.05 1584.45 3079.87 1584.02 3078.9 1583.35 3078.14 1582.45 3077.39 1581.55 3077.01 1580.6 3077.01 1579.61 3077.01 1578.82 3077.21 1578.22 3077.62 1577.79 3078.03 1577.36 3078.93 1576.85 3080.31 1576.26 3081.59 1575.7 3082.38 1574.17 3082.68 1571.67 3083.2 1567.4 3083.47 1561.32 3083.47 1553.43 3083.47 1545.4 3083.24 1540.24 3082.78 1537.94 3082.32 1535.64 3081.17 1533.93 3079.32 1532.81 3077.94 1532.02 3077 1531.28 3076.49 1530.57 3075.98 1529.86 3075.72 1529 3075.72 1527.98 3075.72 1526.37 3076.5 1524.96 3078.04 1523.76 3079.59 1522.56 3082.05 1521.45 3085.44 1520.43 3087.71 1519.74 3090.65 1519.09 3094.27 1518.46 3097.88 1517.84 3100.51 1517.52 3102.16 1517.52ZM3318.07 1517.47C3320.9 1517.47 3322.31 1518.82 3322.31 1521.52L3322.31 1566.54C3322.31 1569.11 3322.42 1570.75 3322.63 1571.48 3322.85 1572.2 3323.45 1572.91 3324.43 1573.6 3325.62 1574.42 3326.41 1575.14 3326.82 1575.77 3327.24 1576.39 3327.44 1577.15 3327.44 1578.04 3327.44 1580.67 3324.79 1582.67 3319.5 1584.05 3314.73 1585.27 3309.97 1585.88 3305.2 1585.88 3304.15 1585.88 3303.47 1585.72 3303.15 1585.41 3302.84 1585.1 3302.64 1584.35 3302.54 1583.16 3302.37 1581.49 3301.78 1580.65 3300.76 1580.65 3300.2 1580.65 3299.33 1581.14 3298.15 1582.13 3294.79 1584.86 3291.06 1586.22 3286.95 1586.22 3281.86 1586.22 3277.27 1584.33 3273.19 1580.55 3270.79 1578.28 3268.85 1575.67 3267.37 1572.71 3265.4 1568.86 3264.42 1564.97 3264.42 1561.02 3264.42 1556.39 3265.7 1551.91 3268.26 1547.61 3270.63 1543.63 3273.85 1540.57 3277.93 1538.43 3281.35 1536.66 3284.72 1535.77 3288.04 1535.77 3291.85 1535.77 3295.27 1536.63 3298.3 1538.34 3298.79 1538.6 3299.18 1538.73 3299.48 1538.73 3300.53 1538.73 3301.06 1537.32 3301.06 1534.49 3301.06 1533.27 3300.77 1532.34 3300.19 1531.7 3299.62 1531.06 3298.59 1530.51 3297.11 1530.05 3295.04 1529.39 3294 1528.24 3294 1526.6 3294 1524.2 3296.39 1522.32 3301.16 1520.98 3309.57 1518.64 3315.21 1517.47 3318.07 1517.47ZM2684.87 1516.54C2688.62 1516.54 2692.15 1516.87 2695.47 1517.52 2699.94 1518.41 2702.18 1520.3 2702.18 1523.2 2702.18 1524.15 2701.96 1524.86 2701.51 1525.34 2701.07 1525.82 2699.94 1526.52 2698.13 1527.44 2696.62 1528.19 2695.63 1529.85 2695.15 1532.42 2694.67 1534.98 2694.44 1539.98 2694.44 1547.41 2694.44 1559.97 2694.75 1567.74 2695.37 1570.74 2695.6 1571.69 2695.96 1572.42 2696.43 1572.93 2696.91 1573.44 2697.74 1573.99 2698.92 1574.58 2701.09 1575.57 2702.18 1577 2702.18 1578.87 2702.18 1581.5 2700.17 1583.31 2696.16 1584.3 2691.82 1585.35 2686.51 1585.88 2680.23 1585.88 2669.51 1585.88 2664.15 1583.84 2664.15 1579.76 2664.15 1578.28 2665.21 1576.9 2667.31 1575.62 2668.92 1574.63 2669.88 1573.28 2670.17 1571.57 2670.8 1567.83 2671.11 1559.87 2671.11 1547.71 2671.11 1539.29 2670.68 1533.9 2669.83 1531.53 2669.37 1530.18 2668.26 1528.97 2666.52 1527.88 2665.17 1526.99 2664.27 1526.25 2663.81 1525.66 2663.35 1525.07 2663.12 1524.31 2663.12 1523.39 2663.12 1521.98 2663.8 1520.85 2665.17 1520.01 2666.53 1519.18 2668.94 1518.43 2672.39 1517.77 2676.5 1516.95 2680.66 1516.54 2684.87 1516.54ZM2816.34 1516.19C2821.14 1516.19 2825.78 1517.24 2830.25 1519.35 2832.35 1520.34 2833.81 1520.83 2834.64 1520.83 2835.23 1520.83 2836.18 1520.68 2837.5 1520.38 2837.92 1520.29 2838.4 1520.24 2838.93 1520.24 2840.64 1520.24 2842.13 1521.03 2843.41 1522.6 2846.57 1526.42 2848.15 1531.15 2848.15 1536.81 2848.15 1540.79 2846.78 1543.69 2844.06 1545.54 2842.58 1546.52 2840.92 1547.02 2839.07 1547.02 2837.4 1547.02 2836.03 1546.65 2834.98 1545.93 2833.93 1545.21 2832.91 1543.92 2831.92 1542.08 2830.51 1539.49 2829.36 1537.62 2828.47 1536.49 2827.58 1535.35 2826.5 1534.32 2825.22 1533.4 2822.03 1531.17 2818.69 1530.05 2815.21 1530.05 2811.82 1530.05 2809.13 1531.28 2807.14 1533.72 2805.15 1536.17 2804.16 1539.45 2804.16 1543.56 2804.16 1549.22 2805.59 1554.4 2808.45 1559.1 2812.33 1565.38 2817.88 1568.52 2825.12 1568.52 2827.78 1568.52 2830.42 1568.07 2833.03 1567.19 2835.65 1566.3 2837.68 1565.15 2839.12 1563.73 2840.37 1562.55 2841.39 1561.96 2842.18 1561.96 2843.33 1561.96 2844.32 1562.49 2845.14 1563.56 2845.96 1564.63 2846.37 1565.92 2846.37 1567.43 2846.37 1569.34 2845.8 1571.48 2844.65 1573.84 2843.5 1576.21 2842.12 1578.07 2840.5 1579.42 2839.81 1579.98 2838.38 1580.47 2836.21 1580.9 2834.96 1581.13 2833.3 1581.73 2831.23 1582.72 2826.37 1585.05 2821.3 1586.22 2816.04 1586.22 2810.55 1586.22 2805.08 1584.99 2799.62 1582.52 2793.28 1579.66 2788.26 1575.27 2784.58 1569.36 2780.96 1563.6 2779.15 1557.59 2779.15 1551.31 2779.15 1544.01 2781.42 1537.35 2785.96 1531.33 2789.91 1526.11 2795.05 1522.11 2801.4 1519.35 2806.23 1517.24 2811.21 1516.19 2816.34 1516.19Z" fill="url(#fill1)" fill-rule="evenodd"/><text fill="#000000" fill-opacity="0" font-family="Arial,Arial_MSFontService,sans-serif" font-size="86.501" x="2663.12" y="1591.88">Is Completed</text></g></svg>