<svg xmlns="http://www.w3.org/2000/svg" xmlns:xlink="http://www.w3.org/1999/xlink" width="500" zoomAndPan="magnify" viewBox="0 0 375 374.999991" height="500" preserveAspectRatio="xMidYMid meet" version="1.0"><defs><g/><clipPath id="91c1851ec3"><path d="M 275.359375 145.308594 L 298.207031 145.308594 L 298.207031 168.382812 L 275.359375 168.382812 Z M 252.285156 168.382812 L 321.285156 168.382812 L 321.285156 191.230469 L 252.285156 191.230469 Z M 275.359375 191.230469 L 298.207031 191.230469 L 298.207031 214.308594 L 275.359375 214.308594 Z M 275.359375 191.230469 " clip-rule="nonzero"/></clipPath><linearGradient x1="74.791054" gradientTransform="matrix(0.138, 0, 0, -0.138, 244.556229, 194.297145)" y1="371.313985" x2="537.208993" gradientUnits="userSpaceOnUse" y2="-161.314041" id="1382db6542"><stop stop-opacity="1" stop-color="rgb(100%, 0%, 0%)" offset="0"/><stop stop-opacity="1" stop-color="rgb(100%, 0%, 0%)" offset="0.125"/><stop stop-opacity="1" stop-color="rgb(99.990845%, 0%, 0.00152588%)" offset="0.15625"/><stop stop-opacity="1" stop-color="rgb(99.809265%, 0%, 0.038147%)" offset="0.171875"/><stop stop-opacity="1" stop-color="rgb(99.464417%, 0%, 0.108337%)" offset="0.1875"/><stop stop-opacity="1" stop-color="rgb(99.121094%, 0%, 0.178528%)" offset="0.203125"/><stop stop-opacity="1" stop-color="rgb(98.776245%, 0%, 0.250244%)" offset="0.21875"/><stop stop-opacity="1" stop-color="rgb(98.432922%, 0%, 0.320435%)" offset="0.234375"/><stop stop-opacity="1" stop-color="rgb(98.088074%, 0%, 0.390625%)" offset="0.25"/><stop stop-opacity="1" stop-color="rgb(97.744751%, 0%, 0.460815%)" offset="0.265625"/><stop stop-opacity="1" stop-color="rgb(97.399902%, 0%, 0.532532%)" offset="0.28125"/><stop stop-opacity="1" stop-color="rgb(97.05658%, 0%, 0.602722%)" offset="0.296875"/><stop stop-opacity="1" stop-color="rgb(96.711731%, 0%, 0.672913%)" offset="0.3125"/><stop stop-opacity="1" stop-color="rgb(96.368408%, 0%, 0.743103%)" offset="0.328125"/><stop stop-opacity="1" stop-color="rgb(96.086121%, 0%, 0.799561%)" offset="0.335938"/><stop stop-opacity="1" stop-color="rgb(95.834351%, 0%, 0.845337%)" offset="0.34375"/><stop stop-opacity="1" stop-color="rgb(95.552063%, 0%, 0.894165%)" offset="0.351562"/><stop stop-opacity="1" stop-color="rgb(95.26825%, 0%, 0.942993%)" offset="0.359375"/><stop stop-opacity="1" stop-color="rgb(94.985962%, 0%, 0.991821%)" offset="0.367187"/><stop stop-opacity="1" stop-color="rgb(94.703674%, 0%, 1.040649%)" offset="0.375"/><stop stop-opacity="1" stop-color="rgb(94.419861%, 0%, 1.089478%)" offset="0.382812"/><stop stop-opacity="1" stop-color="rgb(94.137573%, 0%, 1.138306%)" offset="0.390625"/><stop stop-opacity="1" stop-color="rgb(93.855286%, 0%, 1.187134%)" offset="0.398437"/><stop stop-opacity="1" stop-color="rgb(93.571472%, 0%, 1.235962%)" offset="0.40625"/><stop stop-opacity="1" stop-color="rgb(93.289185%, 0%, 1.28479%)" offset="0.414062"/><stop stop-opacity="1" stop-color="rgb(93.006897%, 0%, 1.333618%)" offset="0.421875"/><stop stop-opacity="1" stop-color="rgb(92.723083%, 0%, 1.382446%)" offset="0.429688"/><stop stop-opacity="1" stop-color="rgb(92.440796%, 0%, 1.431274%)" offset="0.4375"/><stop stop-opacity="1" stop-color="rgb(92.158508%, 0%, 1.480103%)" offset="0.445312"/><stop stop-opacity="1" stop-color="rgb(91.874695%, 0%, 1.528931%)" offset="0.453125"/><stop stop-opacity="1" stop-color="rgb(91.592407%, 0%, 1.577759%)" offset="0.460938"/><stop stop-opacity="1" stop-color="rgb(91.31012%, 0%, 1.626587%)" offset="0.46472"/><stop stop-opacity="1" stop-color="rgb(91.169739%, 0%, 1.651001%)" offset="0.46875"/><stop stop-opacity="1" stop-color="rgb(91.027832%, 0%, 1.675415%)" offset="0.476562"/><stop stop-opacity="1" stop-color="rgb(90.744019%, 0%, 1.724243%)" offset="0.484375"/><stop stop-opacity="1" stop-color="rgb(90.461731%, 0%, 1.773071%)" offset="0.492187"/><stop stop-opacity="1" stop-color="rgb(90.179443%, 0%, 1.821899%)" offset="0.5"/><stop stop-opacity="1" stop-color="rgb(89.89563%, 0%, 1.870728%)" offset="0.507812"/><stop stop-opacity="1" stop-color="rgb(89.613342%, 0%, 1.919556%)" offset="0.515625"/><stop stop-opacity="1" stop-color="rgb(89.331055%, 0%, 1.968384%)" offset="0.523438"/><stop stop-opacity="1" stop-color="rgb(89.047241%, 0%, 2.017212%)" offset="0.53125"/><stop stop-opacity="1" stop-color="rgb(88.764954%, 0%, 2.06604%)" offset="0.53528"/><stop stop-opacity="1" stop-color="rgb(88.624573%, 0%, 2.090454%)" offset="0.539062"/><stop stop-opacity="1" stop-color="rgb(88.482666%, 0%, 2.114868%)" offset="0.546875"/><stop stop-opacity="1" stop-color="rgb(88.198853%, 0%, 2.163696%)" offset="0.554687"/><stop stop-opacity="1" stop-color="rgb(87.916565%, 0%, 2.212524%)" offset="0.5625"/><stop stop-opacity="1" stop-color="rgb(87.634277%, 0%, 2.261353%)" offset="0.570312"/><stop stop-opacity="1" stop-color="rgb(87.35199%, 0%, 2.310181%)" offset="0.578125"/><stop stop-opacity="1" stop-color="rgb(87.068176%, 0%, 2.359009%)" offset="0.585937"/><stop stop-opacity="1" stop-color="rgb(86.785889%, 0%, 2.407837%)" offset="0.59375"/><stop stop-opacity="1" stop-color="rgb(86.503601%, 0%, 2.456665%)" offset="0.601562"/><stop stop-opacity="1" stop-color="rgb(86.219788%, 0%, 2.505493%)" offset="0.609375"/><stop stop-opacity="1" stop-color="rgb(85.9375%, 0%, 2.554321%)" offset="0.617188"/><stop stop-opacity="1" stop-color="rgb(85.655212%, 0%, 2.603149%)" offset="0.625"/><stop stop-opacity="1" stop-color="rgb(85.371399%, 0%, 2.651978%)" offset="0.632812"/><stop stop-opacity="1" stop-color="rgb(85.073853%, 0%, 2.703857%)" offset="0.640625"/><stop stop-opacity="1" stop-color="rgb(84.74884%, 0%, 2.760315%)" offset="0.648438"/><stop stop-opacity="1" stop-color="rgb(84.411621%, 0%, 2.82135%)" offset="0.65625"/><stop stop-opacity="1" stop-color="rgb(84.074402%, 0%, 2.880859%)" offset="0.664063"/><stop stop-opacity="1" stop-color="rgb(83.735657%, 0%, 2.940369%)" offset="0.671875"/><stop stop-opacity="1" stop-color="rgb(83.398438%, 0%, 3.001404%)" offset="0.679688"/><stop stop-opacity="1" stop-color="rgb(83.059692%, 0%, 3.060913%)" offset="0.6875"/><stop stop-opacity="1" stop-color="rgb(82.722473%, 0%, 3.121948%)" offset="0.695313"/><stop stop-opacity="1" stop-color="rgb(82.385254%, 0%, 3.181458%)" offset="0.703125"/><stop stop-opacity="1" stop-color="rgb(82.046509%, 0%, 3.240967%)" offset="0.710938"/><stop stop-opacity="1" stop-color="rgb(81.70929%, 0%, 3.302002%)" offset="0.71875"/><stop stop-opacity="1" stop-color="rgb(81.370544%, 0%, 3.361511%)" offset="0.726562"/><stop stop-opacity="1" stop-color="rgb(81.033325%, 0%, 3.421021%)" offset="0.734375"/><stop stop-opacity="1" stop-color="rgb(80.696106%, 0%, 3.482056%)" offset="0.742188"/><stop stop-opacity="1" stop-color="rgb(80.357361%, 0%, 3.541565%)" offset="0.75"/><stop stop-opacity="1" stop-color="rgb(80.020142%, 0%, 3.601074%)" offset="0.757812"/><stop stop-opacity="1" stop-color="rgb(79.681396%, 0%, 3.662109%)" offset="0.765625"/><stop stop-opacity="1" stop-color="rgb(79.344177%, 0%, 3.721619%)" offset="0.773438"/><stop stop-opacity="1" stop-color="rgb(79.006958%, 0%, 3.781128%)" offset="0.78125"/><stop stop-opacity="1" stop-color="rgb(78.668213%, 0%, 3.842163%)" offset="0.789062"/><stop stop-opacity="1" stop-color="rgb(78.330994%, 0%, 3.901672%)" offset="0.796875"/><stop stop-opacity="1" stop-color="rgb(77.992249%, 0%, 3.962708%)" offset="0.804688"/><stop stop-opacity="1" stop-color="rgb(77.655029%, 0%, 4.022217%)" offset="0.8125"/><stop stop-opacity="1" stop-color="rgb(77.31781%, 0%, 4.081726%)" offset="0.820312"/><stop stop-opacity="1" stop-color="rgb(76.979065%, 0%, 4.142761%)" offset="0.828125"/><stop stop-opacity="1" stop-color="rgb(76.641846%, 0%, 4.202271%)" offset="0.835938"/><stop stop-opacity="1" stop-color="rgb(76.303101%, 0%, 4.26178%)" offset="0.84375"/><stop stop-opacity="1" stop-color="rgb(76.116943%, 0%, 4.295349%)" offset="0.875"/><stop stop-opacity="1" stop-color="rgb(76.098633%, 0%, 4.299927%)" offset="1"/></linearGradient></defs><rect x="-37.5" width="450" fill="#ffffff" y="-37.499999" height="449.999989" fill-opacity="1"/><rect x="-37.5" width="450" fill="#fefefe" y="-37.499999" height="449.999989" fill-opacity="1"/><g clip-path="url(#91c1851ec3)"><path fill="url(#1382db6542)" d="M 252.285156 214.308594 L 252.285156 145.308594 L 321.285156 145.308594 L 321.285156 214.308594 Z M 252.285156 214.308594 " fill-rule="nonzero"/></g><g fill="#098c4d" fill-opacity="1"><g transform="translate(37.500002, 214.580679)"><g><path d="M 8.265625 -73.203125 L 40.390625 -73.203125 C 46.691406 -73.203125 51.71875 -71.488281 55.46875 -68.0625 C 59.21875 -64.644531 61.09375 -60.21875 61.09375 -54.78125 C 61.09375 -51.488281 60.269531 -48.488281 58.625 -45.78125 C 56.988281 -43.082031 54.546875 -40.984375 51.296875 -39.484375 C 55.835938 -37.765625 59.175781 -35.472656 61.3125 -32.609375 C 63.457031 -29.753906 64.53125 -26.085938 64.53125 -21.609375 C 64.53125 -15.304688 62.253906 -10.128906 57.703125 -6.078125 C 53.160156 -2.023438 47.15625 0 39.6875 0 L 8.265625 0 Z M 18.03125 -8.46875 L 39.140625 -8.46875 C 44.316406 -8.46875 48.195312 -9.671875 50.78125 -12.078125 C 53.375 -14.484375 54.671875 -17.726562 54.671875 -21.8125 C 54.671875 -25.957031 53.226562 -29.050781 50.34375 -31.09375 C 47.457031 -33.132812 43.191406 -34.15625 37.546875 -34.15625 L 18.03125 -34.15625 Z M 18.03125 -42.234375 L 36 -42.234375 C 41.25 -42.234375 45.09375 -43.1875 47.53125 -45.09375 C 49.96875 -47 51.1875 -49.976562 51.1875 -54.03125 C 51.1875 -57.519531 50.03125 -60.175781 47.71875 -62 C 45.414062 -63.820312 41.546875 -64.734375 36.109375 -64.734375 L 18.03125 -64.734375 Z M 18.03125 -42.234375 "/></g></g></g><g fill="#098c4d" fill-opacity="1"><g transform="translate(106.014892, 214.580679)"><g><path d="M 18.171875 -39.890625 L 41.078125 -39.890625 C 46.390625 -39.890625 50.195312 -40.972656 52.5 -43.140625 C 54.8125 -45.316406 55.96875 -48.445312 55.96875 -52.53125 C 55.96875 -56.25 54.972656 -59.210938 52.984375 -61.421875 C 50.992188 -63.628906 47.570312 -64.734375 42.71875 -64.734375 L 18.171875 -64.734375 Z M 18.171875 0 L 8.265625 0 L 8.265625 -73.203125 L 42.125 -73.203125 C 50 -73.203125 55.957031 -71.523438 60 -68.171875 C 64.050781 -64.816406 66.078125 -59.9375 66.078125 -53.53125 C 66.078125 -49.3125 65.265625 -45.789062 63.640625 -42.96875 C 62.015625 -40.144531 59.457031 -37.820312 55.96875 -36 C 58.957031 -34.90625 61.113281 -33.367188 62.4375 -31.390625 C 63.769531 -29.421875 64.535156 -26.359375 64.734375 -22.203125 L 65.390625 -8.5625 C 65.453125 -6.300781 65.804688 -4.710938 66.453125 -3.796875 C 67.097656 -2.890625 68.003906 -2.171875 69.171875 -1.640625 L 69.171875 0 L 56.921875 0 C 56.285156 -1.820312 55.832031 -4.59375 55.5625 -8.3125 C 55.300781 -12.03125 55.171875 -15.382812 55.171875 -18.375 C 55.171875 -19.863281 55.035156 -21.390625 54.765625 -22.953125 C 54.503906 -24.515625 53.925781 -25.925781 53.03125 -27.1875 C 52.132812 -28.445312 50.820312 -29.46875 49.09375 -30.25 C 47.375 -31.03125 45.050781 -31.421875 42.125 -31.421875 L 18.171875 -31.421875 Z M 18.171875 0 "/></g></g></g><g fill="#098c4d" fill-opacity="1"><g transform="translate(178.811963, 214.580679)"><g><path d="M 18.171875 -8.46875 L 37.34375 -8.46875 C 43.988281 -8.46875 49.1875 -11.015625 52.9375 -16.109375 C 56.6875 -21.203125 58.5625 -28.164062 58.5625 -37 C 58.5625 -45.726562 56.664062 -52.515625 52.875 -57.359375 C 49.09375 -62.210938 43.632812 -64.671875 36.5 -64.734375 L 18.171875 -64.734375 Z M 8.265625 -73.203125 L 37.953125 -73.203125 C 47.546875 -73.203125 55.054688 -69.90625 60.484375 -63.3125 C 65.910156 -56.726562 68.625 -48.171875 68.625 -37.640625 C 68.625 -26.359375 65.910156 -17.265625 60.484375 -10.359375 C 55.054688 -3.453125 47.410156 0 37.546875 0 L 8.265625 0 Z M 8.265625 -73.203125 "/></g></g></g></svg>