<svg width="3936" height="469" xmlns="http://www.w3.org/2000/svg" xmlns:xlink="http://www.w3.org/1999/xlink" xml:space="preserve" overflow="hidden"><defs><linearGradient x1="2451.71" y1="1469.45" x2="2451.71" y2="1029.45" gradientUnits="userSpaceOnUse" spreadMethod="reflect" id="fill0"><stop offset="0" stop-color="#002060"/><stop offset="0.00632911" stop-color="#002161"/><stop offset="0.0126582" stop-color="#002263"/><stop offset="0.0189873" stop-color="#002465"/><stop offset="0.0253165" stop-color="#002567"/><stop offset="0.0316456" stop-color="#002669"/><stop offset="0.0379747" stop-color="#00286B"/><stop offset="0.0443038" stop-color="#00296C"/><stop offset="0.0506329" stop-color="#002A6E"/><stop offset="0.056962" stop-color="#002C70"/><stop offset="0.0632911" stop-color="#002D72"/><stop offset="0.0696203" stop-color="#002E74"/><stop offset="0.0759494" stop-color="#003075"/><stop offset="0.0822785" stop-color="#003177"/><stop offset="0.0886076" stop-color="#003279"/><stop offset="0.0949367" stop-color="#00337B"/><stop offset="0.101266" stop-color="#00357C"/><stop offset="0.107595" stop-color="#00367E"/><stop offset="0.113924" stop-color="#003780"/><stop offset="0.120253" stop-color="#003881"/><stop offset="0.126582" stop-color="#003A83"/><stop offset="0.132911" stop-color="#003B85"/><stop offset="0.139241" stop-color="#003C86"/><stop offset="0.14557" stop-color="#003D88"/><stop offset="0.151899" stop-color="#003F8A"/><stop offset="0.158228" stop-color="#00408B"/><stop offset="0.164557" stop-color="#00418D"/><stop offset="0.170886" stop-color="#00428F"/><stop offset="0.177215" stop-color="#004390"/><stop offset="0.183544" stop-color="#004592"/><stop offset="0.189873" stop-color="#004693"/><stop offset="0.196203" stop-color="#004795"/><stop offset="0.202532" stop-color="#004896"/><stop offset="0.208861" stop-color="#004998"/><stop offset="0.21519" stop-color="#004A9A"/><stop offset="0.221519" stop-color="#004B9B"/><stop offset="0.227848" stop-color="#004C9D"/><stop offset="0.234177" stop-color="#004E9E"/><stop offset="0.240506" stop-color="#004FA0"/><stop offset="0.246835" stop-color="#0050A1"/><stop offset="0.253165" stop-color="#0051A3"/><stop offset="0.259494" stop-color="#0052A4"/><stop offset="0.265823" stop-color="#0053A5"/><stop offset="0.272152" stop-color="#0054A7"/><stop offset="0.278481" stop-color="#0055A8"/><stop offset="0.28481" stop-color="#0056AA"/><stop offset="0.291139" stop-color="#0057AB"/><stop offset="0.297468" stop-color="#0058AC"/><stop offset="0.303797" stop-color="#0059AE"/><stop offset="0.310127" stop-color="#005AAF"/><stop offset="0.316456" stop-color="#005BB1"/><stop offset="0.322785" stop-color="#005CB2"/><stop offset="0.329114" stop-color="#005DB3"/><stop offset="0.335443" stop-color="#005EB5"/><stop offset="0.341772" stop-color="#005FB6"/><stop offset="0.348101" stop-color="#0060B7"/><stop offset="0.35443" stop-color="#0061B9"/><stop offset="0.360759" stop-color="#0062BA"/><stop offset="0.367089" stop-color="#0063BB"/><stop offset="0.373418" stop-color="#0064BC"/><stop offset="0.379747" stop-color="#0065BE"/><stop offset="0.386076" stop-color="#0066BF"/><stop offset="0.392405" stop-color="#0067C0"/><stop offset="0.398734" stop-color="#0067C1"/><stop offset="0.405063" stop-color="#0068C2"/><stop offset="0.411392" stop-color="#0069C4"/><stop offset="0.417722" stop-color="#006AC5"/><stop offset="0.424051" stop-color="#006BC6"/><stop offset="0.43038" stop-color="#006CC7"/><stop offset="0.436709" stop-color="#006DC8"/><stop offset="0.443038" stop-color="#006DC9"/><stop offset="0.449367" stop-color="#006ECB"/><stop offset="0.455696" stop-color="#006FCC"/><stop offset="0.462025" stop-color="#0070CD"/><stop offset="0.468354" stop-color="#0071CE"/><stop offset="0.474684" stop-color="#0072CF"/><stop offset="0.481013" stop-color="#0072D0"/><stop offset="0.487342" stop-color="#0073D1"/><stop offset="0.493671" stop-color="#0074D2"/><stop offset="0.5" stop-color="#0075D3"/><stop offset="0.506329" stop-color="#0075D4"/><stop offset="0.512658" stop-color="#0076D5"/><stop offset="0.518987" stop-color="#0077D6"/><stop offset="0.525316" stop-color="#0078D7"/><stop offset="0.531646" stop-color="#0078D8"/><stop offset="0.537975" stop-color="#0079D9"/><stop offset="0.544304" stop-color="#007ADA"/><stop offset="0.550633" stop-color="#007ADB"/><stop offset="0.556962" stop-color="#007BDC"/><stop offset="0.563291" stop-color="#007CDD"/><stop offset="0.56962" stop-color="#007CDE"/><stop offset="0.575949" stop-color="#007DDF"/><stop offset="0.582278" stop-color="#007EE0"/><stop offset="0.588608" stop-color="#007EE0"/><stop offset="0.594937" stop-color="#007FE1"/><stop offset="0.601266" stop-color="#0080E2"/><stop offset="0.607595" stop-color="#0080E3"/><stop offset="0.613924" stop-color="#0081E4"/><stop offset="0.620253" stop-color="#0081E5"/><stop offset="0.626582" stop-color="#0082E5"/><stop offset="0.632911" stop-color="#0083E6"/><stop offset="0.639241" stop-color="#0083E7"/><stop offset="0.64557" stop-color="#0084E8"/><stop offset="0.651899" stop-color="#0084E9"/><stop offset="0.658228" stop-color="#0085E9"/><stop offset="0.664557" stop-color="#0085EA"/><stop offset="0.670886" stop-color="#0086EB"/><stop offset="0.677215" stop-color="#0086EB"/><stop offset="0.683544" stop-color="#0087EC"/><stop offset="0.689873" stop-color="#0087ED"/><stop offset="0.696203" stop-color="#0088ED"/><stop offset="0.702532" stop-color="#0088EE"/><stop offset="0.708861" stop-color="#0089EF"/><stop offset="0.71519" stop-color="#0089EF"/><stop offset="0.721519" stop-color="#008AF0"/><stop offset="0.727848" stop-color="#008AF1"/><stop offset="0.734177" stop-color="#008BF1"/><stop offset="0.740506" stop-color="#008BF2"/><stop offset="0.746835" stop-color="#008CF2"/><stop offset="0.753165" stop-color="#008CF3"/><stop offset="0.759494" stop-color="#008CF4"/><stop offset="0.765823" stop-color="#008DF4"/><stop offset="0.772152" stop-color="#008DF5"/><stop offset="0.778481" stop-color="#008EF5"/><stop offset="0.78481" stop-color="#008EF6"/><stop offset="0.791139" stop-color="#008EF6"/><stop offset="0.797468" stop-color="#008FF7"/><stop offset="0.803797" stop-color="#008FF7"/><stop offset="0.810127" stop-color="#008FF7"/><stop offset="0.816456" stop-color="#0090F8"/><stop offset="0.822785" stop-color="#0090F8"/><stop offset="0.829114" stop-color="#0090F9"/><stop offset="0.835443" stop-color="#0091F9"/><stop offset="0.841772" stop-color="#0091F9"/><stop offset="0.848101" stop-color="#0091FA"/><stop offset="0.85443" stop-color="#0091FA"/><stop offset="0.860759" stop-color="#0092FB"/><stop offset="0.867089" stop-color="#0092FB"/><stop offset="0.873418" stop-color="#0092FB"/><stop offset="0.879747" stop-color="#0092FC"/><stop offset="0.886076" stop-color="#0093FC"/><stop offset="0.892405" stop-color="#0093FC"/><stop offset="0.898734" stop-color="#0093FC"/><stop offset="0.905063" stop-color="#0093FD"/><stop offset="0.911392" stop-color="#0093FD"/><stop offset="0.917722" stop-color="#0093FD"/><stop offset="0.924051" stop-color="#0094FD"/><stop offset="0.93038" stop-color="#0094FD"/><stop offset="0.936709" stop-color="#0094FE"/><stop offset="0.943038" stop-color="#0094FE"/><stop offset="0.949367" stop-color="#0094FE"/><stop offset="0.955696" stop-color="#0094FE"/><stop offset="0.962025" stop-color="#0094FE"/><stop offset="0.968354" stop-color="#0094FE"/><stop offset="0.974684" stop-color="#0094FE"/><stop offset="0.981013" stop-color="#0094FE"/><stop offset="0.987342" stop-color="#0094FE"/><stop offset="0.993671" stop-color="#0094FE"/><stop offset="1" stop-color="#0095FF"/></linearGradient><linearGradient x1="2816.5" y1="1214" x2="2816.5" y2="1473" gradientUnits="userSpaceOnUse" spreadMethod="reflect" id="fill1"><stop offset="0" stop-color="#F6CA2A"/><stop offset="0.0196078" stop-color="#F5C929"/><stop offset="0.0392157" stop-color="#F5C929"/><stop offset="0.0588235" stop-color="#F5C929"/><stop offset="0.0784314" stop-color="#F5C929"/><stop offset="0.0980392" stop-color="#F5C929"/><stop offset="0.117647" stop-color="#F5C929"/><stop offset="0.137255" stop-color="#F5C828"/><stop offset="0.156863" stop-color="#F5C828"/><stop offset="0.176471" stop-color="#F5C728"/><stop offset="0.196078" stop-color="#F5C728"/><stop offset="0.215686" stop-color="#F5C727"/><stop offset="0.235294" stop-color="#F5C627"/><stop offset="0.254902" stop-color="#F5C526"/><stop offset="0.27451" stop-color="#F5C526"/><stop offset="0.294118" stop-color="#F5C425"/><stop offset="0.313726" stop-color="#F5C425"/><stop offset="0.333333" stop-color="#F5C324"/><stop offset="0.352941" stop-color="#F5C224"/><stop offset="0.372549" stop-color="#F5C123"/><stop offset="0.392157" stop-color="#F5C122"/><stop offset="0.411765" stop-color="#F5C022"/><stop offset="0.431373" stop-color="#F5BF21"/><stop offset="0.45098" stop-color="#F5BE20"/><stop offset="0.470588" stop-color="#F5BD1F"/><stop offset="0.490196" stop-color="#F4BC1E"/><stop offset="0.509804" stop-color="#F4BB1E"/><stop offset="0.529412" stop-color="#F4BA1D"/><stop offset="0.54902" stop-color="#F4B91C"/><stop offset="0.568627" stop-color="#F4B71B"/><stop offset="0.588235" stop-color="#F4B61A"/><stop offset="0.607843" stop-color="#F4B519"/><stop offset="0.627451" stop-color="#F4B418"/><stop offset="0.647059" stop-color="#F4B317"/><stop offset="0.666667" stop-color="#F4B116"/><stop offset="0.686275" stop-color="#F4B015"/><stop offset="0.705882" stop-color="#F3AE14"/><stop offset="0.72549" stop-color="#F3AD12"/><stop offset="0.745098" stop-color="#F3AC11"/><stop offset="0.764706" stop-color="#F3AA10"/><stop offset="0.784314" stop-color="#F3A90F"/><stop offset="0.803922" stop-color="#F3A70E"/><stop offset="0.823529" stop-color="#F3A50C"/><stop offset="0.843137" stop-color="#F3A40B"/><stop offset="0.862745" stop-color="#F2A20A"/><stop offset="0.882353" stop-color="#F2A008"/><stop offset="0.901961" stop-color="#F29F07"/><stop offset="0.921569" stop-color="#F29D05"/><stop offset="0.941176" stop-color="#F29B04"/><stop offset="0.960784" stop-color="#F29903"/><stop offset="0.980392" stop-color="#F29701"/><stop offset="1" stop-color="#F29600"/></linearGradient><linearGradient x1="0" y1="110.5" x2="260" y2="110.5" gradientUnits="userSpaceOnUse" spreadMethod="reflect" id="fill2"><stop offset="0" stop-color="#F6CA2A"/><stop offset="0.0196078" stop-color="#F5C929"/><stop offset="0.0392157" stop-color="#F5C929"/><stop offset="0.0588235" stop-color="#F5C929"/><stop offset="0.0784314" stop-color="#F5C929"/><stop offset="0.0980392" stop-color="#F5C929"/><stop offset="0.117647" stop-color="#F5C929"/><stop offset="0.137255" stop-color="#F5C828"/><stop offset="0.156863" stop-color="#F5C828"/><stop offset="0.176471" stop-color="#F5C728"/><stop offset="0.196078" stop-color="#F5C728"/><stop offset="0.215686" stop-color="#F5C727"/><stop offset="0.235294" stop-color="#F5C627"/><stop offset="0.254902" stop-color="#F5C526"/><stop offset="0.27451" stop-color="#F5C526"/><stop offset="0.294118" stop-color="#F5C425"/><stop offset="0.313726" stop-color="#F5C425"/><stop offset="0.333333" stop-color="#F5C324"/><stop offset="0.352941" stop-color="#F5C224"/><stop offset="0.372549" stop-color="#F5C123"/><stop offset="0.392157" stop-color="#F5C122"/><stop offset="0.411765" stop-color="#F5C022"/><stop offset="0.431373" stop-color="#F5BF21"/><stop offset="0.45098" stop-color="#F5BE20"/><stop offset="0.470588" stop-color="#F5BD1F"/><stop offset="0.490196" stop-color="#F4BC1E"/><stop offset="0.509804" stop-color="#F4BB1E"/><stop offset="0.529412" stop-color="#F4BA1D"/><stop offset="0.54902" stop-color="#F4B91C"/><stop offset="0.568627" stop-color="#F4B71B"/><stop offset="0.588235" stop-color="#F4B61A"/><stop offset="0.607843" stop-color="#F4B519"/><stop offset="0.627451" stop-color="#F4B418"/><stop offset="0.647059" stop-color="#F4B317"/><stop offset="0.666667" stop-color="#F4B116"/><stop offset="0.686275" stop-color="#F4B015"/><stop offset="0.705882" stop-color="#F3AE14"/><stop offset="0.72549" stop-color="#F3AD12"/><stop offset="0.745098" stop-color="#F3AC11"/><stop offset="0.764706" stop-color="#F3AA10"/><stop offset="0.784314" stop-color="#F3A90F"/><stop offset="0.803922" stop-color="#F3A70E"/><stop offset="0.823529" stop-color="#F3A50C"/><stop offset="0.843137" stop-color="#F3A40B"/><stop offset="0.862745" stop-color="#F2A20A"/><stop offset="0.882353" stop-color="#F2A008"/><stop offset="0.901961" stop-color="#F29F07"/><stop offset="0.921569" stop-color="#F29D05"/><stop offset="0.941176" stop-color="#F29B04"/><stop offset="0.960784" stop-color="#F29903"/><stop offset="0.980392" stop-color="#F29701"/><stop offset="1" stop-color="#F29600"/></linearGradient><linearGradient x1="1255.16" y1="1389.08" x2="1502.84" y2="1093.92" gradientUnits="userSpaceOnUse" spreadMethod="reflect" id="fill3"><stop offset="0" stop-color="#F5C30B"/><stop offset="0.0227273" stop-color="#F4C20A"/><stop offset="0.0454545" stop-color="#F4C20A"/><stop offset="0.0681818" stop-color="#F4C20A"/><stop offset="0.0909091" stop-color="#F4C20A"/><stop offset="0.113636" stop-color="#F4C20A"/><stop offset="0.136364" stop-color="#F4C10A"/><stop offset="0.159091" stop-color="#F4C10A"/><stop offset="0.181818" stop-color="#F4C10A"/><stop offset="0.204545" stop-color="#F4C00A"/><stop offset="0.227273" stop-color="#F4C00A"/><stop offset="0.25" stop-color="#F4BF0A"/><stop offset="0.272727" stop-color="#F4BF0A"/><stop offset="0.295455" stop-color="#F4BE09"/><stop offset="0.318182" stop-color="#F4BD09"/><stop offset="0.340909" stop-color="#F4BD09"/><stop offset="0.363636" stop-color="#F4BC09"/><stop offset="0.386364" stop-color="#F4BB09"/><stop offset="0.409091" stop-color="#F4BA08"/><stop offset="0.431818" stop-color="#F4B908"/><stop offset="0.454545" stop-color="#F4B808"/><stop offset="0.477273" stop-color="#F4B708"/><stop offset="0.5" stop-color="#F4B608"/><stop offset="0.522727" stop-color="#F4B507"/><stop offset="0.545455" stop-color="#F4B407"/><stop offset="0.568182" stop-color="#F3B307"/><stop offset="0.590909" stop-color="#F3B206"/><stop offset="0.613636" stop-color="#F3B006"/><stop offset="0.636364" stop-color="#F3AF06"/><stop offset="0.659091" stop-color="#F3AE05"/><stop offset="0.681818" stop-color="#F3AD05"/><stop offset="0.704545" stop-color="#F3AB05"/><stop offset="0.727273" stop-color="#F3AA04"/><stop offset="0.75" stop-color="#F3A804"/><stop offset="0.772727" stop-color="#F3A704"/><stop offset="0.795455" stop-color="#F3A503"/><stop offset="0.818182" stop-color="#F2A403"/><stop offset="0.840909" stop-color="#F2A203"/><stop offset="0.863636" stop-color="#F2A002"/><stop offset="0.886364" stop-color="#F29F02"/><stop offset="0.909091" stop-color="#F29D01"/><stop offset="0.931818" stop-color="#F29B01"/><stop offset="0.954545" stop-color="#F29900"/><stop offset="0.977273" stop-color="#F29700"/><stop offset="1" stop-color="#F29600"/></linearGradient><linearGradient x1="227.92" y1="1343.49" x2="590.249" y2="1033" gradientUnits="userSpaceOnUse" spreadMethod="reflect" id="fill4"><stop offset="0" stop-color="#002060"/><stop offset="0.00632911" stop-color="#002161"/><stop offset="0.0126582" stop-color="#002263"/><stop offset="0.0189873" stop-color="#002465"/><stop offset="0.0253165" stop-color="#002567"/><stop offset="0.0316456" stop-color="#002669"/><stop offset="0.0379747" stop-color="#00286B"/><stop offset="0.0443038" stop-color="#00296C"/><stop offset="0.0506329" stop-color="#002A6E"/><stop offset="0.056962" stop-color="#002C70"/><stop offset="0.0632911" stop-color="#002D72"/><stop offset="0.0696203" stop-color="#002E74"/><stop offset="0.0759494" stop-color="#003075"/><stop offset="0.0822785" stop-color="#003177"/><stop offset="0.0886076" stop-color="#003279"/><stop offset="0.0949367" stop-color="#00337B"/><stop offset="0.101266" stop-color="#00357C"/><stop offset="0.107595" stop-color="#00367E"/><stop offset="0.113924" stop-color="#003780"/><stop offset="0.120253" stop-color="#003881"/><stop offset="0.126582" stop-color="#003A83"/><stop offset="0.132911" stop-color="#003B85"/><stop offset="0.139241" stop-color="#003C86"/><stop offset="0.14557" stop-color="#003D88"/><stop offset="0.151899" stop-color="#003F8A"/><stop offset="0.158228" stop-color="#00408B"/><stop offset="0.164557" stop-color="#00418D"/><stop offset="0.170886" stop-color="#00428F"/><stop offset="0.177215" stop-color="#004390"/><stop offset="0.183544" stop-color="#004592"/><stop offset="0.189873" stop-color="#004693"/><stop offset="0.196203" stop-color="#004795"/><stop offset="0.202532" stop-color="#004896"/><stop offset="0.208861" stop-color="#004998"/><stop offset="0.21519" stop-color="#004A9A"/><stop offset="0.221519" stop-color="#004B9B"/><stop offset="0.227848" stop-color="#004C9D"/><stop offset="0.234177" stop-color="#004E9E"/><stop offset="0.240506" stop-color="#004FA0"/><stop offset="0.246835" stop-color="#0050A1"/><stop offset="0.253165" stop-color="#0051A3"/><stop offset="0.259494" stop-color="#0052A4"/><stop offset="0.265823" stop-color="#0053A5"/><stop offset="0.272152" stop-color="#0054A7"/><stop offset="0.278481" stop-color="#0055A8"/><stop offset="0.28481" stop-color="#0056AA"/><stop offset="0.291139" stop-color="#0057AB"/><stop offset="0.297468" stop-color="#0058AC"/><stop offset="0.303797" stop-color="#0059AE"/><stop offset="0.310127" stop-color="#005AAF"/><stop offset="0.316456" stop-color="#005BB1"/><stop offset="0.322785" stop-color="#005CB2"/><stop offset="0.329114" stop-color="#005DB3"/><stop offset="0.335443" stop-color="#005EB5"/><stop offset="0.341772" stop-color="#005FB6"/><stop offset="0.348101" stop-color="#0060B7"/><stop offset="0.35443" stop-color="#0061B9"/><stop offset="0.360759" stop-color="#0062BA"/><stop offset="0.367089" stop-color="#0063BB"/><stop offset="0.373418" stop-color="#0064BC"/><stop offset="0.379747" stop-color="#0065BE"/><stop offset="0.386076" stop-color="#0066BF"/><stop offset="0.392405" stop-color="#0067C0"/><stop offset="0.398734" stop-color="#0067C1"/><stop offset="0.405063" stop-color="#0068C2"/><stop offset="0.411392" stop-color="#0069C4"/><stop offset="0.417722" stop-color="#006AC5"/><stop offset="0.424051" stop-color="#006BC6"/><stop offset="0.43038" stop-color="#006CC7"/><stop offset="0.436709" stop-color="#006DC8"/><stop offset="0.443038" stop-color="#006DC9"/><stop offset="0.449367" stop-color="#006ECB"/><stop offset="0.455696" stop-color="#006FCC"/><stop offset="0.462025" stop-color="#0070CD"/><stop offset="0.468354" stop-color="#0071CE"/><stop offset="0.474684" stop-color="#0072CF"/><stop offset="0.481013" stop-color="#0072D0"/><stop offset="0.487342" stop-color="#0073D1"/><stop offset="0.493671" stop-color="#0074D2"/><stop offset="0.5" stop-color="#0075D3"/><stop offset="0.506329" stop-color="#0075D4"/><stop offset="0.512658" stop-color="#0076D5"/><stop offset="0.518987" stop-color="#0077D6"/><stop offset="0.525316" stop-color="#0078D7"/><stop offset="0.531646" stop-color="#0078D8"/><stop offset="0.537975" stop-color="#0079D9"/><stop offset="0.544304" stop-color="#007ADA"/><stop offset="0.550633" stop-color="#007ADB"/><stop offset="0.556962" stop-color="#007BDC"/><stop offset="0.563291" stop-color="#007CDD"/><stop offset="0.56962" stop-color="#007CDE"/><stop offset="0.575949" stop-color="#007DDF"/><stop offset="0.582278" stop-color="#007EE0"/><stop offset="0.588608" stop-color="#007EE0"/><stop offset="0.594937" stop-color="#007FE1"/><stop offset="0.601266" stop-color="#0080E2"/><stop offset="0.607595" stop-color="#0080E3"/><stop offset="0.613924" stop-color="#0081E4"/><stop offset="0.620253" stop-color="#0081E5"/><stop offset="0.626582" stop-color="#0082E5"/><stop offset="0.632911" stop-color="#0083E6"/><stop offset="0.639241" stop-color="#0083E7"/><stop offset="0.64557" stop-color="#0084E8"/><stop offset="0.651899" stop-color="#0084E9"/><stop offset="0.658228" stop-color="#0085E9"/><stop offset="0.664557" stop-color="#0085EA"/><stop offset="0.670886" stop-color="#0086EB"/><stop offset="0.677215" stop-color="#0086EB"/><stop offset="0.683544" stop-color="#0087EC"/><stop offset="0.689873" stop-color="#0087ED"/><stop offset="0.696203" stop-color="#0088ED"/><stop offset="0.702532" stop-color="#0088EE"/><stop offset="0.708861" stop-color="#0089EF"/><stop offset="0.71519" stop-color="#0089EF"/><stop offset="0.721519" stop-color="#008AF0"/><stop offset="0.727848" stop-color="#008AF1"/><stop offset="0.734177" stop-color="#008BF1"/><stop offset="0.740506" stop-color="#008BF2"/><stop offset="0.746835" stop-color="#008CF2"/><stop offset="0.753165" stop-color="#008CF3"/><stop offset="0.759494" stop-color="#008CF4"/><stop offset="0.765823" stop-color="#008DF4"/><stop offset="0.772152" stop-color="#008DF5"/><stop offset="0.778481" stop-color="#008EF5"/><stop offset="0.78481" stop-color="#008EF6"/><stop offset="0.791139" stop-color="#008EF6"/><stop offset="0.797468" stop-color="#008FF7"/><stop offset="0.803797" stop-color="#008FF7"/><stop offset="0.810127" stop-color="#008FF7"/><stop offset="0.816456" stop-color="#0090F8"/><stop offset="0.822785" stop-color="#0090F8"/><stop offset="0.829114" stop-color="#0090F9"/><stop offset="0.835443" stop-color="#0091F9"/><stop offset="0.841772" stop-color="#0091F9"/><stop offset="0.848101" stop-color="#0091FA"/><stop offset="0.85443" stop-color="#0091FA"/><stop offset="0.860759" stop-color="#0092FB"/><stop offset="0.867089" stop-color="#0092FB"/><stop offset="0.873418" stop-color="#0092FB"/><stop offset="0.879747" stop-color="#0092FC"/><stop offset="0.886076" stop-color="#0093FC"/><stop offset="0.892405" stop-color="#0093FC"/><stop offset="0.898734" stop-color="#0093FC"/><stop offset="0.905063" stop-color="#0093FD"/><stop offset="0.911392" stop-color="#0093FD"/><stop offset="0.917722" stop-color="#0093FD"/><stop offset="0.924051" stop-color="#0094FD"/><stop offset="0.93038" stop-color="#0094FD"/><stop offset="0.936709" stop-color="#0094FE"/><stop offset="0.943038" stop-color="#0094FE"/><stop offset="0.949367" stop-color="#0094FE"/><stop offset="0.955696" stop-color="#0094FE"/><stop offset="0.962025" stop-color="#0094FE"/><stop offset="0.968354" stop-color="#0094FE"/><stop offset="0.974684" stop-color="#0094FE"/><stop offset="0.981013" stop-color="#0094FE"/><stop offset="0.987342" stop-color="#0094FE"/><stop offset="0.993671" stop-color="#0094FE"/><stop offset="1" stop-color="#0095FF"/></linearGradient><linearGradient x1="554.513" y1="1179.38" x2="360.487" y2="1410.62" gradientUnits="userSpaceOnUse" spreadMethod="reflect" id="fill5"><stop offset="0" stop-color="#F5C30B"/><stop offset="0.0333333" stop-color="#F5C30C"/><stop offset="0.0666667" stop-color="#F5C30E"/><stop offset="0.1" stop-color="#F5C410"/><stop offset="0.133333" stop-color="#F5C412"/><stop offset="0.166667" stop-color="#F5C513"/><stop offset="0.2" stop-color="#F5C515"/><stop offset="0.233333" stop-color="#F5C517"/><stop offset="0.266667" stop-color="#F5C618"/><stop offset="0.3" stop-color="#F5C61A"/><stop offset="0.333333" stop-color="#F5C61B"/><stop offset="0.366667" stop-color="#F5C71C"/><stop offset="0.4" stop-color="#F5C71E"/><stop offset="0.433333" stop-color="#F5C71F"/><stop offset="0.466667" stop-color="#F5C720"/><stop offset="0.5" stop-color="#F5C821"/><stop offset="0.533333" stop-color="#F5C822"/><stop offset="0.566667" stop-color="#F5C823"/><stop offset="0.6" stop-color="#F5C824"/><stop offset="0.633333" stop-color="#F5C825"/><stop offset="0.666667" stop-color="#F5C926"/><stop offset="0.7" stop-color="#F5C926"/><stop offset="0.733333" stop-color="#F5C927"/><stop offset="0.766667" stop-color="#F5C927"/><stop offset="0.8" stop-color="#F5C928"/><stop offset="0.833333" stop-color="#F5C928"/><stop offset="0.866667" stop-color="#F5C929"/><stop offset="0.9" stop-color="#F5C929"/><stop offset="0.933333" stop-color="#F5C929"/><stop offset="0.966667" stop-color="#F5C929"/><stop offset="1" stop-color="#F6CA2A"/></linearGradient><linearGradient x1="531.026" y1="1181.47" x2="457.974" y2="1268.53" gradientUnits="userSpaceOnUse" spreadMethod="reflect" id="fill6"><stop offset="0" stop-color="#002060"/><stop offset="0.00632911" stop-color="#002161"/><stop offset="0.0126582" stop-color="#002263"/><stop offset="0.0189873" stop-color="#002465"/><stop offset="0.0253165" stop-color="#002567"/><stop offset="0.0316456" stop-color="#002669"/><stop offset="0.0379747" stop-color="#00286B"/><stop offset="0.0443038" stop-color="#00296C"/><stop offset="0.0506329" stop-color="#002A6E"/><stop offset="0.056962" stop-color="#002C70"/><stop offset="0.0632911" stop-color="#002D72"/><stop offset="0.0696203" stop-color="#002E74"/><stop offset="0.0759494" stop-color="#003075"/><stop offset="0.0822785" stop-color="#003177"/><stop offset="0.0886076" stop-color="#003279"/><stop offset="0.0949367" stop-color="#00337B"/><stop offset="0.101266" stop-color="#00357C"/><stop offset="0.107595" stop-color="#00367E"/><stop offset="0.113924" stop-color="#003780"/><stop offset="0.120253" stop-color="#003881"/><stop offset="0.126582" stop-color="#003A83"/><stop offset="0.132911" stop-color="#003B85"/><stop offset="0.139241" stop-color="#003C86"/><stop offset="0.14557" stop-color="#003D88"/><stop offset="0.151899" stop-color="#003F8A"/><stop offset="0.158228" stop-color="#00408B"/><stop offset="0.164557" stop-color="#00418D"/><stop offset="0.170886" stop-color="#00428F"/><stop offset="0.177215" stop-color="#004390"/><stop offset="0.183544" stop-color="#004592"/><stop offset="0.189873" stop-color="#004693"/><stop offset="0.196203" stop-color="#004795"/><stop offset="0.202532" stop-color="#004896"/><stop offset="0.208861" stop-color="#004998"/><stop offset="0.21519" stop-color="#004A9A"/><stop offset="0.221519" stop-color="#004B9B"/><stop offset="0.227848" stop-color="#004C9D"/><stop offset="0.234177" stop-color="#004E9E"/><stop offset="0.240506" stop-color="#004FA0"/><stop offset="0.246835" stop-color="#0050A1"/><stop offset="0.253165" stop-color="#0051A3"/><stop offset="0.259494" stop-color="#0052A4"/><stop offset="0.265823" stop-color="#0053A5"/><stop offset="0.272152" stop-color="#0054A7"/><stop offset="0.278481" stop-color="#0055A8"/><stop offset="0.28481" stop-color="#0056AA"/><stop offset="0.291139" stop-color="#0057AB"/><stop offset="0.297468" stop-color="#0058AC"/><stop offset="0.303797" stop-color="#0059AE"/><stop offset="0.310127" stop-color="#005AAF"/><stop offset="0.316456" stop-color="#005BB1"/><stop offset="0.322785" stop-color="#005CB2"/><stop offset="0.329114" stop-color="#005DB3"/><stop offset="0.335443" stop-color="#005EB5"/><stop offset="0.341772" stop-color="#005FB6"/><stop offset="0.348101" stop-color="#0060B7"/><stop offset="0.35443" stop-color="#0061B9"/><stop offset="0.360759" stop-color="#0062BA"/><stop offset="0.367089" stop-color="#0063BB"/><stop offset="0.373418" stop-color="#0064BC"/><stop offset="0.379747" stop-color="#0065BE"/><stop offset="0.386076" stop-color="#0066BF"/><stop offset="0.392405" stop-color="#0067C0"/><stop offset="0.398734" stop-color="#0067C1"/><stop offset="0.405063" stop-color="#0068C2"/><stop offset="0.411392" stop-color="#0069C4"/><stop offset="0.417722" stop-color="#006AC5"/><stop offset="0.424051" stop-color="#006BC6"/><stop offset="0.43038" stop-color="#006CC7"/><stop offset="0.436709" stop-color="#006DC8"/><stop offset="0.443038" stop-color="#006DC9"/><stop offset="0.449367" stop-color="#006ECB"/><stop offset="0.455696" stop-color="#006FCC"/><stop offset="0.462025" stop-color="#0070CD"/><stop offset="0.468354" stop-color="#0071CE"/><stop offset="0.474684" stop-color="#0072CF"/><stop offset="0.481013" stop-color="#0072D0"/><stop offset="0.487342" stop-color="#0073D1"/><stop offset="0.493671" stop-color="#0074D2"/><stop offset="0.5" stop-color="#0075D3"/><stop offset="0.506329" stop-color="#0075D4"/><stop offset="0.512658" stop-color="#0076D5"/><stop offset="0.518987" stop-color="#0077D6"/><stop offset="0.525316" stop-color="#0078D7"/><stop offset="0.531646" stop-color="#0078D8"/><stop offset="0.537975" stop-color="#0079D9"/><stop offset="0.544304" stop-color="#007ADA"/><stop offset="0.550633" stop-color="#007ADB"/><stop offset="0.556962" stop-color="#007BDC"/><stop offset="0.563291" stop-color="#007CDD"/><stop offset="0.56962" stop-color="#007CDE"/><stop offset="0.575949" stop-color="#007DDF"/><stop offset="0.582278" stop-color="#007EE0"/><stop offset="0.588608" stop-color="#007EE0"/><stop offset="0.594937" stop-color="#007FE1"/><stop offset="0.601266" stop-color="#0080E2"/><stop offset="0.607595" stop-color="#0080E3"/><stop offset="0.613924" stop-color="#0081E4"/><stop offset="0.620253" stop-color="#0081E5"/><stop offset="0.626582" stop-color="#0082E5"/><stop offset="0.632911" stop-color="#0083E6"/><stop offset="0.639241" stop-color="#0083E7"/><stop offset="0.64557" stop-color="#0084E8"/><stop offset="0.651899" stop-color="#0084E9"/><stop offset="0.658228" stop-color="#0085E9"/><stop offset="0.664557" stop-color="#0085EA"/><stop offset="0.670886" stop-color="#0086EB"/><stop offset="0.677215" stop-color="#0086EB"/><stop offset="0.683544" stop-color="#0087EC"/><stop offset="0.689873" stop-color="#0087ED"/><stop offset="0.696203" stop-color="#0088ED"/><stop offset="0.702532" stop-color="#0088EE"/><stop offset="0.708861" stop-color="#0089EF"/><stop offset="0.71519" stop-color="#0089EF"/><stop offset="0.721519" stop-color="#008AF0"/><stop offset="0.727848" stop-color="#008AF1"/><stop offset="0.734177" stop-color="#008BF1"/><stop offset="0.740506" stop-color="#008BF2"/><stop offset="0.746835" stop-color="#008CF2"/><stop offset="0.753165" stop-color="#008CF3"/><stop offset="0.759494" stop-color="#008CF4"/><stop offset="0.765823" stop-color="#008DF4"/><stop offset="0.772152" stop-color="#008DF5"/><stop offset="0.778481" stop-color="#008EF5"/><stop offset="0.78481" stop-color="#008EF6"/><stop offset="0.791139" stop-color="#008EF6"/><stop offset="0.797468" stop-color="#008FF7"/><stop offset="0.803797" stop-color="#008FF7"/><stop offset="0.810127" stop-color="#008FF7"/><stop offset="0.816456" stop-color="#0090F8"/><stop offset="0.822785" stop-color="#0090F8"/><stop offset="0.829114" stop-color="#0090F9"/><stop offset="0.835443" stop-color="#0091F9"/><stop offset="0.841772" stop-color="#0091F9"/><stop offset="0.848101" stop-color="#0091FA"/><stop offset="0.85443" stop-color="#0091FA"/><stop offset="0.860759" stop-color="#0092FB"/><stop offset="0.867089" stop-color="#0092FB"/><stop offset="0.873418" stop-color="#0092FB"/><stop offset="0.879747" stop-color="#0092FC"/><stop offset="0.886076" stop-color="#0093FC"/><stop offset="0.892405" stop-color="#0093FC"/><stop offset="0.898734" stop-color="#0093FC"/><stop offset="0.905063" stop-color="#0093FD"/><stop offset="0.911392" stop-color="#0093FD"/><stop offset="0.917722" stop-color="#0093FD"/><stop offset="0.924051" stop-color="#0094FD"/><stop offset="0.93038" stop-color="#0094FD"/><stop offset="0.936709" stop-color="#0094FE"/><stop offset="0.943038" stop-color="#0094FE"/><stop offset="0.949367" stop-color="#0094FE"/><stop offset="0.955696" stop-color="#0094FE"/><stop offset="0.962025" stop-color="#0094FE"/><stop offset="0.968354" stop-color="#0094FE"/><stop offset="0.974684" stop-color="#0094FE"/><stop offset="0.981013" stop-color="#0094FE"/><stop offset="0.987342" stop-color="#0094FE"/><stop offset="0.993671" stop-color="#0094FE"/><stop offset="1" stop-color="#0095FF"/></linearGradient><linearGradient x1="555.01" y1="1095.7" x2="285.99" y2="1416.3" gradientUnits="userSpaceOnUse" spreadMethod="reflect" id="fill7"><stop offset="0" stop-color="#F6CA2A"/><stop offset="1" stop-color="#F6CA2A"/></linearGradient></defs><g transform="translate(-232 -1004)"><path d="M3462.65 1166.73C3446.28 1166.73 3433.14 1172.52 3423.23 1184.11 3413.31 1195.7 3408.35 1214.87 3408.35 1241.63 3408.35 1268.15 3413.28 1287.21 3423.14 1298.8 3432.99 1310.38 3446.4 1316.18 3463.37 1316.18 3480.81 1316.18 3494.31 1310.5 3503.86 1299.15 3513.42 1287.81 3518.2 1267.44 3518.2 1238.05 3518.2 1213.32 3513.21 1195.25 3503.24 1183.84 3493.26 1172.43 3479.73 1166.73 3462.65 1166.73ZM3725 1162.78 3725 1216.19 3759.23 1216.19C3762.93 1216.19 3770.1 1214.99 3780.73 1212.6 3786.11 1211.53 3790.5 1208.78 3793.9 1204.36 3797.31 1199.94 3799.01 1194.86 3799.01 1189.13 3799.01 1180.64 3796.32 1174.13 3790.95 1169.59 3785.57 1165.05 3775.47 1162.78 3760.66 1162.78ZM1620 1162.78 1620 1216.19 1654.23 1216.19C1657.93 1216.19 1665.1 1214.99 1675.73 1212.6 1681.11 1211.53 1685.5 1208.78 1688.9 1204.36 1692.31 1199.94 1694.01 1194.86 1694.01 1189.13 1694.01 1180.64 1691.32 1174.13 1685.95 1169.59 1680.57 1165.05 1670.47 1162.78 1655.66 1162.78ZM3643.46 1109.74 3778.76 1109.74C3803.85 1109.74 3823.02 1111.89 3836.28 1116.19 3849.54 1120.49 3860.24 1128.47 3868.36 1140.12 3876.48 1151.76 3880.54 1165.95 3880.54 1182.68 3880.54 1197.25 3877.44 1209.82 3871.22 1220.4 3865 1230.97 3856.46 1239.54 3845.58 1246.11 3838.65 1250.29 3829.15 1253.76 3817.07 1256.51 3826.74 1259.73 3833.78 1262.96 3838.2 1266.19 3841.19 1268.34 3845.52 1272.95 3851.19 1280 3856.86 1287.06 3860.65 1292.5 3862.56 1296.32L3901.87 1372.45 3810.14 1372.45 3766.75 1292.17C3761.26 1281.77 3756.36 1275.02 3752.06 1271.92 3746.21 1267.85 3739.57 1265.82 3732.17 1265.82L3725 1265.82 3725 1372.45 3643.46 1372.45ZM3066.93 1109.74 3313.69 1109.74 3313.69 1174.61 3230.9 1174.61 3230.9 1372.45 3149.72 1372.45 3149.72 1174.61 3066.93 1174.61ZM2454.21 1109.74 2671.76 1109.74 2671.76 1165.83 2535.57 1165.83 2535.57 1207.58 2661.9 1207.58 2661.9 1261.16 2535.57 1261.16 2535.57 1312.95 2675.7 1312.95 2675.7 1372.45 2454.21 1372.45ZM2209.39 1109.74 2290.57 1109.74 2290.57 1307.76 2417.26 1307.76 2417.26 1372.45 2209.39 1372.45ZM1945.21 1109.74 2162.76 1109.74 2162.76 1165.83 2026.57 1165.83 2026.57 1207.58 2152.9 1207.58 2152.9 1261.16 2026.57 1261.16 2026.57 1312.95 2166.7 1312.95 2166.7 1372.45 1945.21 1372.45ZM1538.46 1109.74 1673.76 1109.74C1698.85 1109.74 1718.02 1111.89 1731.28 1116.19 1744.54 1120.49 1755.24 1128.47 1763.36 1140.12 1771.48 1151.76 1775.54 1165.95 1775.54 1182.68 1775.54 1197.25 1772.44 1209.82 1766.22 1220.4 1760 1230.97 1751.46 1239.54 1740.58 1246.11 1733.65 1250.29 1724.15 1253.76 1712.07 1256.51 1721.74 1259.73 1728.79 1262.96 1733.2 1266.19 1736.19 1268.34 1740.52 1272.95 1746.19 1280 1751.86 1287.06 1755.65 1292.5 1757.56 1296.32L1796.87 1372.45 1705.14 1372.45 1661.75 1292.17C1656.26 1281.77 1651.36 1275.02 1647.06 1271.92 1641.21 1267.85 1634.57 1265.82 1627.17 1265.82L1620 1265.82 1620 1372.45 1538.46 1372.45ZM1010.93 1109.74 1257.69 1109.74 1257.69 1174.61 1174.9 1174.61 1174.9 1372.45 1093.72 1372.45 1093.72 1174.61 1010.93 1174.61ZM4035.73 1105.26C4069.3 1105.26 4094.9 1111.5 4112.52 1123.99 4130.14 1136.47 4140.62 1156.33 4143.97 1183.57L4067.45 1188.05C4065.42 1176.22 4061.15 1167.62 4054.63 1162.25 4048.12 1156.87 4039.13 1154.18 4027.67 1154.18 4018.23 1154.18 4011.12 1156.18 4006.34 1160.19 4001.56 1164.19 3999.17 1169.06 3999.17 1174.79 3999.17 1178.97 4001.14 1182.73 4005.09 1186.08 4008.91 1189.54 4017.99 1192.77 4032.32 1195.76 4067.81 1203.4 4093.22 1211.14 4108.57 1218.96 4123.93 1226.79 4135.09 1236.49 4142.08 1248.08 4149.07 1259.67 4152.57 1272.63 4152.57 1286.97 4152.57 1303.81 4147.91 1319.34 4138.59 1333.56 4129.27 1347.78 4116.25 1358.56 4099.52 1365.91 4082.8 1373.25 4061.71 1376.93 4036.27 1376.93 3991.59 1376.93 3960.64 1368.33 3943.44 1351.12 3926.24 1333.92 3916.5 1312.06 3914.23 1285.54L3991.47 1280.7C3993.14 1293.24 3996.54 1302.8 4001.68 1309.37 4010.04 1320 4021.99 1325.32 4037.52 1325.32 4049.11 1325.32 4058.04 1322.6 4064.31 1317.16 4070.58 1311.73 4073.72 1305.43 4073.72 1298.26 4073.72 1291.45 4070.73 1285.36 4064.76 1279.98 4058.79 1274.6 4044.93 1269.53 4023.19 1264.75 3987.58 1256.74 3962.2 1246.11 3947.03 1232.85 3931.73 1219.59 3924.09 1202.69 3924.09 1182.14 3924.09 1168.64 3928 1155.88 3935.83 1143.88 3943.65 1131.87 3955.42 1122.43 3971.13 1115.57 3986.84 1108.7 4008.37 1105.26 4035.73 1105.26ZM3462.83 1105.26C3506.55 1105.26 3540.24 1117 3563.9 1140.47 3587.55 1163.95 3599.38 1196.83 3599.38 1239.12 3599.38 1269.83 3594.21 1295 3583.88 1314.66 3573.54 1334.31 3558.61 1349.6 3539.08 1360.53 3519.54 1371.46 3495.2 1376.93 3466.05 1376.93 3436.43 1376.93 3411.91 1372.21 3392.49 1362.77 3373.08 1353.33 3357.34 1338.4 3345.27 1317.97 3333.21 1297.54 3327.17 1271.98 3327.17 1241.27 3327.17 1198.39 3339.12 1164.99 3363.01 1141.1 3386.91 1117.21 3420.18 1105.26 3462.83 1105.26ZM871.729 1105.26C905.299 1105.26 930.895 1111.5 948.516 1123.99 966.138 1136.47 976.621 1156.33 979.966 1183.57L903.448 1188.05C901.417 1176.22 897.146 1167.62 890.635 1162.25 884.124 1156.87 875.134 1154.18 863.666 1154.18 854.228 1154.18 847.119 1156.18 842.341 1160.19 837.562 1164.19 835.173 1169.06 835.173 1174.79 835.173 1178.97 837.144 1182.73 841.086 1186.08 844.909 1189.54 853.989 1192.77 868.325 1195.76 903.806 1203.4 929.223 1211.14 944.574 1218.96 959.925 1226.79 971.095 1236.49 978.084 1248.08 985.073 1259.67 988.567 1272.63 988.567 1286.97 988.567 1303.81 983.908 1319.34 974.59 1333.56 965.271 1347.78 952.25 1358.56 935.524 1365.91 918.799 1373.25 897.713 1376.93 872.267 1376.93 827.587 1376.93 796.645 1368.33 779.442 1351.12 762.239 1333.92 752.502 1312.06 750.232 1285.54L827.467 1280.7C829.14 1293.24 832.545 1302.8 837.682 1309.37 846.044 1320 857.991 1325.32 873.521 1325.32 885.11 1325.32 894.04 1322.6 900.312 1317.16 906.584 1311.73 909.72 1305.43 909.72 1298.26 909.72 1291.45 906.733 1285.36 900.76 1279.98 894.786 1274.6 880.928 1269.53 859.186 1264.75 823.585 1256.74 798.198 1246.11 783.026 1232.85 767.734 1219.59 760.088 1202.69 760.088 1182.14 760.088 1168.64 764.001 1155.88 771.826 1143.88 779.651 1131.87 791.418 1122.43 807.128 1115.57 822.838 1108.7 844.372 1105.26 871.729 1105.26Z" fill="url(#fill0)" fill-rule="evenodd"/><text fill="#000000" fill-opacity="0" font-family="Arial,Arial_MSFontService,sans-serif" font-size="271.666" x="750.232" y="1342.97">ST  R ELE   TORS</text><path d="M2927 1214 2927 1339.82 2816.5 1473 2706 1339.82 2706 1214 2816.5 1347.18Z" fill="url(#fill1)" fill-rule="evenodd"/><path d="M0 0 126.816 0 260 110.5 126.816 221 0 221 133.183 110.5Z" fill="url(#fill2)" fill-rule="evenodd" transform="matrix(-1.83697e-16 -1 -1 1.83697e-16 3037 1285)"/><path d="M1333.98 1110 1422.35 1110 1522 1373 1436.77 1373 1436.46 1372 1437.55 1372.82 1414.78 1300.98 1474.4 1256.57 1400.71 1256.57 1377.94 1184.73 1377.81 1185.12 1377.38 1183.73 1354.82 1256.57 1281.48 1256.57 1341.07 1300.96 1339.68 1305.43 1318.32 1372.82 1318.95 1372.35 1318.75 1373 1236 1373Z" fill="url(#fill3)" fill-rule="evenodd"/><path d="M412.874 1379.37C319.324 1371.12 252.083 1280.56 262.687 1177.1 273.29 1073.65 357.723 996.474 451.272 1004.73 501.833 1009.19 547.19 1038.4 574.947 1084.36L506.864 1135.68C483.556 1087.86 431.176 1074.33 389.87 1105.47 348.564 1136.6 333.974 1200.6 357.282 1248.42 370.66 1275.87 394.487 1293.22 421.503 1295.18Z" fill="url(#fill4)" fill-rule="evenodd"/><path d="M581.622 1211.96C581.622 1211.96 510.643 1276.03 507.615 1275.95 507.322 1275.95 506.275 1276.3 504.615 1276.97 486.374 1292.82 466.725 1302.02 445.652 1304.59 430.747 1311.99 418.075 1318.66 414.531 1321.39 410.93 1324.18 394.435 1329.04 374.966 1334.08 358.052 1338.46 338.877 1342.99 324 1346.4 324.782 1346.99 325.577 1347.58 326.359 1348.14 336.393 1355.37 347.222 1361.46 358.848 1366.44 365.77 1369.41 372.845 1371.89 380.06 1373.88 394.825 1377.97 410.204 1380 426.197 1380 462.259 1380 494.05 1367.21 521.613 1341.64L521.613 1377.44 591 1377.44 591 1210C585.25 1211.23 581.622 1211.96 581.622 1211.96" fill="url(#fill5)" fill-rule="evenodd"/><rect x="449" y="1189" width="91.0001" height="71.9999" fill="url(#fill6)"/><path d="M591 1165 591 1235.33 581.645 1227.36C539.587 1280.89 456.278 1346.05 380.571 1374 373.374 1372.01 366.315 1369.53 359.41 1366.56 358.895 1366.33 358.394 1366.12 357.879 1365.89 346.852 1361.04 336.564 1355.15 327 1348.24 329.548 1347.8 332.165 1347.31 334.852 1346.77 348.551 1343.99 362.166 1339.65 375.49 1334.17 469.142 1295.65 548.97 1200.92 547.494 1198.69 546.742 1197.56 543.777 1195.09 540.714 1192.69 545.364 1187.12 547.745 1183.68 547.48 1183.28 547.23 1182.91 546.742 1182.39 546.102 1181.78L591 1165" fill="#F29600" fill-rule="evenodd"/><path d="M609 1141 606.424 1157.34 595.77 1224.83 579.31 1210.83C548.644 1249.77 496.072 1294.89 440.479 1327.29 412.083 1343.84 382.908 1357.08 355.473 1364.48 340.028 1368.65 325.127 1370.97 311.229 1371 292.693 1371.03 275.689 1366.17 262.236 1358.14 229.12 1338.4 217.45 1299.44 256.972 1266.83 251.68 1272.52 236.333 1310.07 262.236 1326.51 274.519 1334.32 296.105 1337.37 332.439 1330.02 336.881 1329.13 341.31 1328.06 345.724 1326.85 395.218 1313.26 442.763 1280.85 478.999 1250.14 482.188 1247.44 485.279 1244.75 488.288 1242.11 511.6 1221.46 529.286 1202.46 538.366 1191.6 543.018 1186.03 545.399 1182.61 545.134 1182.2 544.884 1181.84 544.396 1181.32 543.756 1180.7 539.926 1177.12 530.428 1170.28 530.428 1170.28L609 1141" fill="url(#fill7)" fill-rule="evenodd"/></g></svg>