<svg width="2931" height="796" xmlns="http://www.w3.org/2000/svg" xmlns:xlink="http://www.w3.org/1999/xlink" xml:space="preserve" overflow="hidden"><defs><clipPath id="clip0"><rect x="370" y="818" width="2931" height="796"/></clipPath><linearGradient x1="389.764" y1="-3.7444e-05" x2="389.764" y2="779.528" gradientUnits="userSpaceOnUse" spreadMethod="reflect" id="fill1"><stop offset="0" stop-color="#E65400"/><stop offset="0.75" stop-color="#FFC000"/><stop offset="1" stop-color="#C7D5ED"/></linearGradient><linearGradient x1="2200" y1="743.157" x2="2200" y2="1458.16" gradientUnits="userSpaceOnUse" spreadMethod="reflect" id="fill2"><stop offset="0" stop-color="#02AAAE"/><stop offset="0.45" stop-color="#02AAAE"/><stop offset="1" stop-color="#0070C0"/></linearGradient><linearGradient x1="2200" y1="743.157" x2="2200" y2="1458.16" gradientUnits="userSpaceOnUse" spreadMethod="reflect" id="fill3"><stop offset="0" stop-color="#02AAAE"/><stop offset="0.45" stop-color="#02AAAE"/><stop offset="1" stop-color="#0070C0"/></linearGradient><linearGradient x1="2200" y1="743.157" x2="2200" y2="1458.16" gradientUnits="userSpaceOnUse" spreadMethod="reflect" id="fill4"><stop offset="0" stop-color="#02AAAE"/><stop offset="0.45" stop-color="#02AAAE"/><stop offset="1" stop-color="#0070C0"/></linearGradient><linearGradient x1="2596.69" y1="1356.4" x2="2596.69" y2="1576.4" gradientUnits="userSpaceOnUse" spreadMethod="reflect" id="fill5"><stop offset="0" stop-color="#00B050"/><stop offset="0.02" stop-color="#00B050"/><stop offset="0.6" stop-color="#1B9483"/><stop offset="1" stop-color="#337D58"/></linearGradient><linearGradient x1="952.164" y1="-2.29167" x2="952.164" y2="2.83914" gradientUnits="userSpaceOnUse" spreadMethod="reflect" id="stroke6"><stop offset="0" stop-color="#F6F8FC"/><stop offset="0.74" stop-color="#ABC0E4"/><stop offset="0.78" stop-color="#00B0F0"/><stop offset="1" stop-color="#C7D5ED"/></linearGradient><linearGradient x1="3191.82" y1="1311.84" x2="3191.82" y2="1417.16" gradientUnits="userSpaceOnUse" spreadMethod="reflect" id="stroke7"><stop offset="0" stop-color="#F6F8FC"/><stop offset="0.74" stop-color="#ABC0E4"/><stop offset="0.83" stop-color="#ABC0E4"/><stop offset="1" stop-color="#C7D5ED"/></linearGradient><linearGradient x1="3191.5" y1="1312.5" x2="3191.5" y2="1416.5" gradientUnits="userSpaceOnUse" spreadMethod="reflect" id="fill8"><stop offset="0" stop-color="#F6F8FC"/><stop offset="0.01" stop-color="#ABC0E4"/><stop offset="0.64" stop-color="#71DAFF"/><stop offset="1" stop-color="#C7D5ED"/></linearGradient><linearGradient x1="1195.69" y1="1488.89" x2="865.652" y2="1459.66" gradientUnits="userSpaceOnUse" spreadMethod="reflect" id="stroke9"><stop offset="0" stop-color="#ABC0E4"/><stop offset="0.83" stop-color="#00B0F0"/><stop offset="1" stop-color="#C7D5ED"/></linearGradient></defs><g clip-path="url(#clip0)" transform="translate(-370 -818)"><path d="M658.463 392.146C660.648 393.183 663.364 388.764 663.364 382.272 663.364 376.662 663.062 376.181 660.95 377.944 657.329 381.31 655.519 385.799 656.575 389.165 657.065 390.848 657.734 391.8 658.463 392.146ZM645.828 510.701C645.267 509.581 646.195 505.631 648.317 496.253 649.826 489.521 652.542 481.667 654.352 478.621L657.671 473.331 656.766 484.552C655.408 499.94 653.447 507.474 649.977 509.398 648.619 510.159 647.6 510.76 646.896 510.973 646.367 511.133 646.015 511.074 645.828 510.701ZM708.815 580.569C708.815 579.447 710.173 575.6 711.832 571.753 713.492 567.906 714.85 562.936 714.85 560.852 714.85 557.005 713.794 556.845 706.703 560.051 703.082 561.494 703.384 560.051 711.531 535.045 718.32 514.527 724.053 488.239 727.523 462.912 733.558 418.991 734.312 360.964 729.182 330.668 726.467 314.799 725.863 294.602 728.126 290.434 729.786 287.388 733.105 305.181 737.631 341.087 741.101 368.337 742.61 435.501 740.346 460.508 736.877 498.818 730.389 530.557 720.734 556.685 715.152 571.913 708.815 584.416 708.815 580.569ZM339.928 468.733C357.128 473.542 378.551 467.451 386.396 455.268 391.525 447.574 393.034 442.765 394.996 429.781 396.957 417.278 394.845 394.035 390.469 379.288 388.961 374.159 387.905 369.991 388.056 369.991 388.056 369.991 390.922 371.113 394.241 372.395 397.56 373.678 405.405 374.639 411.742 374.8L423.208 374.8 429.393 367.747C432.712 363.9 436.937 357.648 438.747 354.121 444.179 342.58 456.701 329.917 462.584 329.917 463.339 329.917 464.093 335.848 464.093 343.222 464.093 350.435 464.847 359.572 465.904 363.579 477.369 409.263 529.721 439.88 572.115 426.094 588.107 420.804 599.874 409.904 607.87 392.913 614.056 379.929 615.565 359.732 611.491 345.145 606.362 326.39 592.331 300.583 579.206 286.156 565.628 270.928 542.243 257.624 529.721 257.944L523.988 257.944 531.23 260.028C535.152 261.15 538.924 262.753 539.527 263.394 540.131 264.196 539.226 264.196 537.566 263.394 532.135 261.15 514.181 260.349 514.181 262.433 514.181 263.394 515.388 264.196 516.897 264.196 523.384 264.196 539.075 274.295 548.73 284.714 574.378 312.445 581.469 353.48 564.42 374.8 559.744 380.57 558.537 381.212 552.049 381.212 528.966 381.212 511.013 365.663 503.319 338.894 498.642 322.704 498.793 296.095 503.47 276.378 507.241 261.15 507.09 260.509 499.396 258.425 494.418 256.982 483.857 259.066 478.426 262.593 471.486 267.081 466.658 276.218 460.472 295.934 457.606 305.392 453.985 315.651 452.476 318.536L449.61 324.147 448.553 305.713C447.045 280.706 444.179 263.234 437.842 243.357 420.492 188.216 387.754 157.76 345.963 157.92 313.828 157.92 282.9 178.758 272.943 207.13 271.284 211.779 268.115 226.847 266.003 240.312 263.74 253.937 260.723 268.043 259.214 271.73 255.141 281.668 244.429 295.774 237.037 301.384 233.265 303.949 230.7 306.514 231.002 306.995 232.812 308.758 246.088 300.743 253.179 293.69 257.253 289.522 260.723 286.637 260.723 287.278 260.723 289.362 252.576 305.392 246.239 315.49 240.205 325.108 231.454 336.81 213.35 359.251 209.277 364.38 206.259 368.709 206.561 369.189 207.617 370.312 242.619 340.016 254.386 327.833 276.111 305.232 286.521 286.797 293.914 257.784 299.345 236.785 301.457 231.816 307.039 227.648 319.41 218.511 337.364 218.672 355.317 228.129 372.214 236.945 389.413 255.54 397.711 273.814 407.819 295.614 409.026 317.093 401.483 334.085 396.504 344.824 384.585 340.016 367.99 320.46 354.714 304.911 349.282 301.064 340.532 301.064 326.35 301.064 318.053 312.285 316.846 333.123 316.544 339.855 316.997 349.473 318.053 354.442 319.712 363.258 320.165 363.9 327.256 367.426 349.735 378.967 364.671 398.844 364.822 417.118 364.822 425.453 359.994 438.437 356.373 440.04 353.507 441.162 341.135 434.911 332.234 427.697 328.01 424.331 320.316 415.515 315.186 408.141 294.668 378.807 289.237 371.594 287.276 371.594 284.409 371.594 275.055 382.814 263.891 399.646 258.611 407.66 252.274 416.477 250.011 419.362 244.58 425.934 244.58 427.056 249.86 428.178 266.305 431.705 271.284 433.308 281.241 438.117 287.426 441.162 298.892 447.574 306.888 452.543 323.484 462.962 329.368 465.848 339.928 468.733ZM379.571 500.495 386.059 493.762C394.658 485.106 411.555 473.886 422.87 469.237 430.112 466.191 434.789 465.39 446.255 465.39 470.394 465.39 480.351 471.481 499.813 497.93 504.037 503.54 509.77 509.632 512.637 511.235 522.142 516.685 541.302 511.876 541.302 504.021 541.302 497.289 536.776 481.58 532.099 472.443 518.973 446.315 492.27 430.606 461.341 430.446 446.104 430.446 431.922 433.491 421.513 439.102 400.24 450.483 385.304 470.84 380.627 494.884ZM406.892 573.373C407.948 574.015 416.397 573.213 425.6 571.77 445.967 568.404 455.17 563.916 464.675 552.695 476.141 539.231 478.102 521.919 469.804 507.011 466.183 500.279 465.278 499.638 460.149 499.638 443.101 499.798 432.691 512.621 422.281 546.604 417.151 562.634 414.737 566.801 410.362 567.122 408.854 567.282 409.306 567.763 411.569 568.404 415.19 569.526 415.19 569.687 410.211 570.809 407.194 571.61 405.836 572.572 406.892 573.373ZM362.912 662.84C361.29 662.119 362.95 661.678 368.306 661.678 379.923 661.678 430.916 657.03 449.322 654.305 474.517 650.618 499.259 643.405 514.497 635.39 521.889 631.543 527.773 628.657 527.773 628.978 527.773 629.138 523.851 632.665 519.174 636.512 500.617 651.58 476.931 661.037 446.305 665.686 426.691 668.571 396.971 668.571 377.207 665.686 369.437 664.564 364.534 663.562 362.912 662.84ZM405.462 732.594C404.071 732.178 403.081 731.768 402.704 731.407 402.402 730.926 409.795 730.606 419.299 730.606 434.687 730.766 436.196 730.926 433.631 733.01 431.821 734.452 427.597 735.415 423.071 735.254 417.413 735.134 409.634 733.842 405.462 732.594ZM384.203 731.808C383.279 731.567 383.015 731.086 383.242 730.285 383.996 727.88 394.859 727.399 395.462 729.804 395.613 730.766 392.746 731.567 389.126 731.888 386.712 732.048 385.127 732.048 384.203 731.808ZM131.523 685.843C136.091 688.307 127.633 674.182 108.058 647.252 95.2345 629.619 93.7256 625.612 100.515 627.375 106.7 628.978 108.963 631.062 118.921 644.527 128.274 657.19 131.594 659.274 132.951 653.503 133.706 650.297 134.007 650.297 140.646 655.106 144.417 657.992 150.603 663.121 154.375 666.487 160.862 672.579 161.616 672.739 164.634 670.495 166.444 669.212 169.914 668.09 172.479 668.09 177.457 668.09 180.022 669.693 192.544 680.433 200.54 687.486 205.821 689.73 201.596 684.601 194.807 676.265 206.575 675.304 218.494 683.158 223.02 686.043 228.3 689.089 230.261 689.57 233.279 690.692 233.58 690.211 233.58 684.28 233.58 680.593 234.184 677.708 234.787 677.708 237.956 677.708 253.193 683.318 259.983 686.845 269.185 691.814 285.479 704.477 291.665 711.37L296.191 716.66 290.156 715.538C286.837 714.896 278.539 712.011 271.75 708.966 264.81 706.08 259.228 703.836 259.228 704.157 259.228 704.477 263.905 708.004 269.487 712.011 282.914 721.469 301.622 730.926 321.536 738.3L337.378 744.23 379.47 743.75C438.46 743.108 457.167 740.384 458.072 731.888 458.374 729.644 457.469 726.919 456.262 725.797 449.473 719.866 455.507 717.782 479.043 717.782 493.526 717.782 494.884 717.461 494.13 715.057 491.112 704.958 490.509 705.76 501.522 706.24 509.368 706.721 515.553 705.76 527.321 702.233 542.106 697.905 542.86 697.585 542.86 693.417 542.86 691.013 541.804 688.448 540.597 687.646 538.636 686.684 539.692 685.242 545.274 680.914 549.197 678.028 565.792 661.678 582.086 644.847 622.519 603.01 627.799 599.484 615.428 621.925 608.186 635.069 595.061 652.702 581.634 667.128 571.223 678.509 569.866 682.517 576.806 682.517 580.879 682.517 588.121 675.784 588.121 671.937 588.121 670.334 589.026 670.334 592.647 671.777 596.871 673.54 597.474 673.22 604.867 664.884 666.723 594.034 701.875 516.451 713.643 424.441L715.604 409.213 716.057 433.257C717.264 499.78 703.686 557.486 676.228 600.766 668.382 613.269 647.563 635.39 638.209 641 634.89 643.084 630.967 646.771 629.609 649.336 624.631 658.152 603.66 685.081 595.815 692.616 589.026 698.867 588.121 700.63 589.629 702.554 590.685 703.836 594.005 704.958 597.022 704.958 600.039 704.958 603.358 705.599 604.414 706.241 606.828 708.004 604.716 709.927 590.384 719.705 580.125 726.758 573.336 733.17 574.694 734.613 576.805 736.697 601.246 721.148 615.729 708.645 639.567 688.127 654.503 676.105 656.162 676.105 659.481 676.105 657.067 683.479 651.485 689.89 645.903 696.302 643.187 704.958 646.808 704.958 650.882 704.958 665.667 689.249 680.754 669.052 696.293 648.374 707.457 636.031 710.776 636.031 711.38 636.031 711.229 637.474 710.324 639.077 709.419 641.161 709.268 642.603 710.324 643.244 711.078 643.725 714.85 639.878 718.622 634.749 751.058 590.347 771.576 526.068 778.365 446.401 780.779 417.548 779.271 353.43 775.348 324.256 766.296 256.131 747.89 199.706 722.091 161.236 716.359 152.74 702.63 135.749 670.947 97.9189 667.025 93.2705 666.12 92.9499 662.499 94.3923 658.878 95.8353 657.218 95.1938 648.317 88.6218 637.605 80.9277 628.402 71.1497 625.687 64.7376 621.764 55.7614 552.214 25.7858 508.915 14.2448 461.391 1.74164 440.722-0.662555 383.845 0.138948 339.188 0.779841 334.662 1.26074 332.55 7.03126 331.041 11.0388 332.399 11.68 347.486 14.7257 375.397 20.4962 446.606 49.0288 449.02 55.4408 449.473 56.8835 448.266 59.2877 445.55 61.3716 443.287 63.4555 441.779 65.6994 442.382 66.6612 442.835 67.4627 447.361 68.5849 452.339 69.2261 464.258 70.6688 476.327 75.3172 485.078 81.5689 489 84.454 500.466 95.5147 510.424 106.255 523.096 119.719 531.545 127.093 538.183 130.78 548.14 136.55 552.667 136.39 545.123 130.619 542.558 128.696 538.032 124.528 534.864 121.483 529.735 116.674 529.282 115.872 531.847 114.91 536.222 113.307 542.558 116.513 547.235 122.925 550.404 127.093 554.93 130.299 562.02 133.504 590.534 146.008 622.217 168.128 635.946 185.12 646.808 198.585 653.598 209.645 651.033 209.645 645.149 209.645 624.329 188.807 615.277 173.899 610.148 165.403 609.846 165.243 602.906 165.243 596.72 165.403 594.155 164.121 583.142 156.267 570.167 146.969 566.999 145.527 566.999 149.053 566.999 152.58 579.37 162.999 590.836 168.93 604.414 176.143 604.113 175.662 620.406 201.63 647.412 244.269 661.744 280.976 670.645 329.065 674.568 350.865 674.267 398.794 669.891 421.075 668.081 430.212 666.421 438.066 665.969 438.387 665.667 438.707 664.912 435.181 664.309 430.532 661.895 410.175 655.257 389.657 649.373 384.527 647.412 382.764 646.959 379.077 646.959 366.895 646.959 343.332 644.545 344.454 643.338 368.658 640.019 440.471 618.596 506.993 583.745 554.28L578.314 561.654 573.637 558.288C568.357 554.601 568.508 552.517 574.694 544.983 577.107 542.098 579.068 538.572 579.068 537.129 579.068 535.526 578.616 535.045 577.862 536.007 577.258 536.808 572.732 542.579 567.904 548.991 556.891 563.738 527.321 594.034 510.424 607.979 496.242 619.841 490.207 622.727 468.03 628.657 441.628 635.55 431.67 636.833 401.798 636.672 369.362 636.672 352.314 633.787 325.007 623.688 234.636 590.347 171.574 502.665 159.806 393.985 157.543 373.307 158.901 335.317 162.672 312.234 165.992 291.716 173.535 263.184 179.871 246.513 183.341 237.376 183.341 237.216 180.626 234.17 177.759 231.124 177.759 230.964 182.285 221.346 189.376 206.439 206.726 189.929 240.369 166.045 272.354 143.443 286.233 131.421 295.889 117.956 321.838 82.2101 313.691 37.3272 278.237 19.0535 262.849 11.1991 251.534 8.79457 230.563 8.63426 200.239 8.63426 191.337 13.6036 158.146 49.67L136.27 73.3939 127.218 73.3936 118.166 73.5542 101.571 95.1938C45.1461 169.411 16.3305 229.522 5.01527 297.808-0.868617 332.592-1.77374 431.975 3.35568 462.111 6.52391 480.865 8.33446 485.834 23.1192 517.412 29.9085 531.999 39.4132 553.639 44.241 565.501 54.6508 591.789 57.2155 596.438 63.8539 600.766 67.0221 602.85 73.6602 611.346 80.6001 622.085 95.6871 645.489 110.321 664.724 122.542 677.708 127.03 682.357 130 685.021 131.523 685.843ZM337.148 772.23C346.973 775.656 354.102 777.179 362.626 778.221 369.264 779.022 386.463 779.663 400.796 779.503L427.047 779.183 432.176 773.091C435.043 769.725 437.155 766.519 436.702 765.878 436.4 765.237 428.706 764.435 419.654 764.275 331.547 762.031 261.544 740.391 209.646 699.035 200.443 691.661 192.9 686.211 192.9 686.852 192.9 689.257 201.499 700.638 207.383 706.088 222.168 719.873 241.63 730.613 295.49 754.818 314.801 763.474 327.323 768.804 337.148 772.23Z" fill="url(#fill1)" fill-rule="evenodd" transform="matrix(0.939693 0.34202 0.34202 -0.939693 270.436 1429.1)"/><path d="M1379.85 945.432C1319.66 945.432 1289.57 1000 1289.57 1109.15 1289.57 1181.44 1304.87 1227.75 1335.48 1248.09L1336.85 1248.93 1332.98 1245.27C1322.09 1234.12 1314.03 1221.42 1308.81 1207.19 1300.44 1184.41 1296.26 1153.83 1296.26 1115.45 1296.26 1005.98 1325.95 951.252 1385.33 951.252 1412.74 951.252 1433.3 963.637 1447.03 988.407L1434.14 985.337C1416.09 975.225 1399.99 970.168 1385.85 970.168 1339.9 970.168 1316.93 1017.43 1316.93 1111.96 1316.93 1182.06 1332.43 1229.48 1363.42 1254.2L1360.14 1258.19 1362.55 1258.69C1367.58 1259.58 1372.88 1260.02 1378.43 1260.02 1405.62 1260.02 1426.51 1246.89 1441.11 1220.64 1455.71 1194.39 1463.02 1155.13 1463.02 1102.87 1463.02 1043.74 1457.57 1003.63 1446.69 982.536 1428.81 957.8 1406.53 945.432 1379.85 945.432ZM1379.88 909.346C1410.01 909.346 1436.34 916.438 1458.86 930.623L1465.06 934.791 1465.06 923.974C1499.22 938.179 1524.45 961.664 1540.73 994.427 1557.02 1027.19 1565.16 1064.8 1565.16 1107.26 1565.16 1169.84 1549.08 1220.59 1516.93 1259.53 1484.77 1298.46 1442.41 1317.93 1389.84 1317.93 1356.09 1317.93 1323.91 1306.01 1293.29 1282.17L1293.29 1271.99C1322.12 1289.43 1353.66 1298.14 1387.9 1298.14 1433.89 1298.14 1471.68 1280.78 1501.27 1246.05 1530.87 1211.32 1545.66 1166.69 1545.66 1112.17 1545.66 1071.46 1538.85 1035.93 1525.23 1005.58 1515.01 982.815 1501.17 964.124 1483.72 949.506L1476.62 944.029 1478.1 945.305C1484.18 950.837 1489.91 957.007 1495.29 963.816 1524.02 1000.13 1538.39 1048.19 1538.39 1108 1538.39 1164.67 1524.21 1210.09 1495.85 1244.26 1467.49 1278.44 1429.31 1295.52 1381.3 1295.52 1343.51 1295.52 1309.92 1283.5 1280.54 1259.45 1237.47 1224.07 1215.94 1171.88 1215.94 1102.86 1215.94 1044.03 1230.73 997.064 1260.32 961.977 1289.9 926.889 1329.75 909.346 1379.88 909.346Z" fill="url(#fill2)" fill-rule="evenodd"/><text fill="#000000" fill-opacity="0" font-family="Arial,Arial_MSFontService,sans-serif" font-size="408.586" x="1215.94" y="1266.86">O</text><path d="M1652.51 1017.24 1652.51 1200.92C1652.51 1229.07 1655.01 1248.05 1660.02 1257.87 1661.27 1260.33 1662.72 1262.61 1664.36 1264.72L1666.18 1266.85 1664.65 1264.39C1658.88 1254.4 1656 1242.55 1656 1228.83L1656 1209.35 1656 1054.77ZM1917.84 984.196 1914.62 988.132 1914.62 1254.3 1917.84 1258.12ZM1586.06 944.08 1733.23 944.08 1695.06 985.543 1764.51 1198.98 1768.04 1181.26 1700.63 984.095 1740.66 955.141 1751.67 965.325 1718.75 990.221 1776 1166.33 1838.34 985.207 1806.22 944.08 1950.69 944.08 1918.11 983.87 1954.46 960.147 1965.32 970.323 1935.56 994.065 1935.56 1254.84 1981.38 1314.15 1832.78 1314.15 1827 1296.42 1954.31 1296.42 1935.15 1278.63 1947 1292.66 1814.91 1292.66 1851.51 1254.01 1851.51 1084.65 1777.41 1314.15 1744.07 1314.15 1740.66 1296.42 1765.11 1296.42 1851.51 1055.84 1851.51 1021.97 1762.94 1292.4 1736.6 1292.4 1673.99 1079.91 1673.99 1213.83C1673.99 1232.11 1675.1 1244.74 1677.32 1251.72 1679.55 1258.71 1685.09 1266.71 1693.94 1275.74L1718.75 1314.15 1572.51 1314.15 1565.26 1296.42 1694.58 1296.42 1687.25 1292.66 1567.37 1292.66 1574.06 1280.58C1593.74 1269.77 1606.45 1259.3 1612.2 1249.18 1617.94 1239.06 1620.82 1222.62 1620.82 1199.87L1620.82 984.473Z" fill="url(#fill3)" fill-rule="evenodd"/><text fill="#000000" fill-opacity="0" font-family="Arial,Arial_MSFontService,sans-serif" font-size="370.068" x="1565.26" y="1267.89">M</text><path d="M2509.54 1149.16C2509.35 1152.69 2507.57 1159.71 2504.2 1170.22L2495.55 1197.08C2491.08 1210.75 2488.84 1222.13 2488.84 1231.21 2488.84 1240.34 2490.32 1247.8 2493.29 1253.6L2493.95 1254.78 2493.23 1251.95C2492.27 1247.01 2491.79 1241.68 2491.79 1235.96 2491.79 1217.25 2499.12 1190.98 2513.77 1157.14ZM2989.62 1133.29 2986.62 1134.28C2978.43 1136.68 2963.88 1139.25 2942.97 1141.99L2934.45 1143.06 2934.45 1253.93 2937.94 1258.45 2937.94 1150.47 2947.23 1149.14C2962.3 1147.55 2974.77 1145.41 2984.63 1142.72L2992.07 1140.35 2992.04 1140.29ZM2135.37 1117.3 2087.49 1178.56 2087.49 1256.39 2090.98 1260.35 2090.98 1177.95 2136.93 1122.87ZM2571.84 1039.36 2548.48 1109.27C2549.5 1109.89 2550.11 1110.38 2550.28 1110.74L2557.71 1120.25C2564.52 1126.99 2571.84 1135.98 2579.67 1147.22L2582.73 1151.7 2585.34 1147.54C2589.65 1141.41 2595.37 1135.36 2602.51 1129.37ZM2559.9 1008.81 2523.73 1112.83C2536.22 1125.14 2547.34 1138.03 2557.07 1151.48L2567.7 1166.26 2569 1164.69C2569.58 1163.9 2570.31 1163.54 2571.17 1163.59 2559.69 1147.29 2545.38 1130.83 2528.25 1114.22L2561.95 1023.79ZM2978.2 992.957C2968.14 992.957 2960.63 993.562 2955.66 994.77L2955.66 1108.34 2964.1 1106.64C2991.57 1100.53 3012.21 1091.87 3026 1080.67 3041.77 1067.87 3049.66 1051.43 3049.66 1031.36 3049.66 1026.92 3049.22 1022.66 3048.35 1018.59L3047.99 1017.29 3046.59 1016.48C3031.34 1007.75 3019.64 1001.76 3011.51 998.515 3002.22 994.81 2991.11 992.957 2978.2 992.957ZM3101.27 973.311C3126.3 991.536 3138.82 1013.86 3138.82 1040.29 3138.82 1083.06 3113.12 1114.74 3061.73 1135.31 3072.43 1167.78 3091.56 1200.97 3119.12 1234.89 3136.4 1256.13 3159.05 1277.32 3187.06 1298.48 3144.69 1311.1 3106.29 1328.12 3071.86 1349.53L3065.63 1352.33 3055.2 1342.31C3090.7 1317.43 3126.42 1300.76 3162.36 1292.3 3112.44 1262.35 3072.72 1209.62 3043.18 1134.11L3041.5 1125.15C3095.1 1104.41 3121.9 1074.37 3121.9 1035.02 3121.9 1019.01 3115.02 998.437 3101.27 973.311ZM2975.35 969.324C2957.99 969.324 2944.35 972.006 2934.45 977.369L2934.45 1110.77C2935.64 1110.77 2936.8 1110.66 2937.94 1110.45L2937.94 981.2C2950.84 977.759 2964.2 976.038 2978.02 976.038 3005.35 976.038 3026.3 984.355 3040.89 1000.99L3041.77 1002.08 3041.48 1001.53C3038.2 996.27 3033.95 991.428 3028.71 987.007 3014.75 975.219 2996.96 969.324 2975.35 969.324ZM2510.09 944.08 2642.48 944.08 2615.09 981.737 2655.61 1089.97 2657.8 1087.09 2618.83 984.716 2650.58 948.293 2664.6 954.592 2638.01 988.488 2670.83 1077.46 2677.03 1072.19C2682.8 1067.58 2688.64 1063.85 2694.55 1061.01 2700.72 1083.45 2708.64 1104.94 2718.31 1125.46 2709.13 1125.03 2703.56 1124.82 2701.62 1124.82 2686.17 1124.82 2675.85 1126.37 2670.66 1129.47L2717.49 1253.62 2720.03 1256.08 2674.92 1132.33C2684.06 1129.47 2692.7 1128.04 2700.83 1128.04 2708.04 1128.04 2714.76 1128.51 2720.99 1129.44L2723.04 1129.81 2716.58 1116.82C2709.38 1100.89 2704.27 1084.83 2701.25 1068.64L2719.75 1075.75C2723.87 1092.6 2733.75 1117.16 2749.38 1149.43 2741.26 1148.91 2737.02 1148.64 2736.66 1148.64L2715.33 1146.81C2708.08 1146.15 2702.42 1145.74 2698.33 1145.58L2695.22 1145.51 2738.19 1253.89 2797.83 1314.15 2636.86 1314.15 2629.36 1296.42 2769.18 1296.42 2740.55 1275.95 2757.81 1292.66 2613.83 1292.66 2650.17 1255.13 2624.3 1185.23C2609.36 1203.32 2596.12 1221.84 2584.58 1240.8L2570.38 1237.25C2578.71 1220.96 2589.84 1204.65 2603.77 1188.32L2618.59 1172.03 2617.13 1167.33C2600.48 1183.5 2583.93 1203.69 2567.47 1227.89L2557.97 1217.74C2551.1 1206.76 2542.99 1194.92 2533.67 1182.22L2525.09 1170.77 2522.57 1177.3C2514.23 1200.05 2510.05 1219.32 2510.05 1235.11 2510.05 1245.41 2511.82 1254.12 2515.35 1261.22 2518.89 1268.32 2527.74 1280.61 2541.9 1298.09 2543.16 1299.7 2545.53 1305.05 2549 1314.15L2398.4 1314.15 2390.54 1296.42 2518.57 1296.42 2516.96 1294.44 2515.57 1292.66 2376.85 1292.66C2403 1273.4 2423.21 1253.1 2437.46 1231.76 2450.83 1211.75 2464.35 1180.66 2478.04 1138.49L2480.44 1130.99 2478.12 1129.41C2470.45 1124.81 2458.02 1121.53 2440.83 1119.57 2450.83 1100.56 2459.27 1082.27 2466.15 1064.69 2472.82 1068.01 2476.84 1070.35 2478.23 1071.71L2490.55 1084.79C2493.48 1086.51 2495.62 1088.85 2496.96 1091.81L2498.76 1087.23 2496.18 1086.04C2487.94 1078.78 2481.04 1072.95 2475.5 1068.55L2471.12 1063.55 2479.41 1051.26C2491.81 1058.14 2500.43 1065.25 2505.27 1072.59L2537.99 980.725ZM1989.88 944.08 2124.24 944.08 2087.49 986.407 2087.49 1137.89 2090.98 1124.6 2090.98 984.087 2126.92 952.242 2135.56 964.117 2108.44 991.891 2108.44 1113.14 2180.31 1017.64C2191.3 1004.53 2196.79 993.037 2196.79 983.159 2196.79 978.113 2193.92 972.987 2188.17 967.782 2182.43 962.578 2173.86 958.819 2162.47 956.505L2162.47 944.08 2312.24 944.08 2312.24 956.325C2280.21 964.104 2247.48 988.004 2214.03 1028.02L2177.43 1070.55 2273.3 1255.02 2275.28 1256.66 2183.02 1069.29 2233.34 1011.24C2259.9 981.579 2288.75 965.338 2319.87 962.518L2325.16 978.22C2297.22 980.248 2270.82 995.037 2245.98 1022.59L2201.4 1070.94 2293.15 1255.07 2368.87 1314.15 2193.49 1314.15 2183.02 1296.42 2335.48 1296.42 2301.73 1278.53 2318.82 1292.66 2171.16 1292.66 2205.65 1259.9 2144.65 1136.26 2108.44 1185.12 2108.44 1256.8 2151.36 1314.15 2008.28 1314.15 1998.04 1296.42 2124.55 1296.42 2111.74 1283.86 2119.5 1292.66 1987.77 1292.66 2023.85 1254.04 2023.85 983.268ZM2983.53 939.515C3021.86 939.515 3053.75 948.034 3079.18 965.072 3104.62 982.109 3117.33 1004.01 3117.33 1030.78 3117.33 1052.61 3109.01 1071.82 3092.35 1088.39 3075.7 1104.97 3054.53 1116.41 3028.87 1122.72 3040.61 1152.09 3056.76 1182.37 3077.3 1213.58 3097.85 1244.79 3119 1270.64 3140.77 1291.15L3132.94 1295.57C3107.25 1304.34 3082.04 1316.75 3057.33 1332.8L3046.3 1336.27 3043.89 1324.79C3033.26 1260.55 3018.76 1205.74 3000.4 1160.35L2997.31 1152.91 2990.09 1156.53C2981.18 1160.26 2969.1 1163.38 2953.85 1165.87L2955.66 1165.65 2955.66 1257.47 3002.01 1314.15 2857.28 1314.15 2850.79 1296.42 2975.99 1296.42 2949.52 1273.45 2964.35 1292.66 2837.1 1292.66 2871.34 1253.55 2871.34 1174.16 2861.3 1176.66C2856.7 1177.94 2852.32 1179.28 2848.14 1180.7L2841.95 1181.55 2837.1 1168C2847.38 1163.53 2854.79 1160.75 2859.34 1159.65L2871.34 1156.7 2871.34 1152.58C2865.24 1152.58 2854.72 1154.79 2839.78 1159.2L2829.73 1160.48C2830.12 1153.62 2832 1145.45 2835.34 1135.96 2835.69 1135.27 2836.88 1131.49 2838.89 1124.64 2839.09 1124.03 2839.8 1121.95 2841.02 1118.41 2850.82 1118.92 2858.24 1119.18 2863.28 1119.18 2867.95 1119.18 2870.55 1119.15 2871.07 1119.08L2871.07 997.304C2864.95 993.581 2857.75 990.105 2849.45 986.877L2843.95 982.11C2888.13 953.713 2934.66 939.515 2983.53 939.515Z" fill="url(#fill4)" fill-rule="evenodd"/><text fill="#000000" fill-opacity="0" font-family="Arial,Arial_MSFontService,sans-serif" font-size="412.815" x="1987.77" y="1300.73">KAR</text><path d="M3082.01 1407.27 3080.83 1429.78 3070.65 1429.34C3068.35 1429.22 3065.22 1429.14 3061.24 1429.08 3057.26 1429.02 3053.16 1428.99 3048.96 1428.99 3039.86 1428.99 3033.98 1429.01 3031.35 1429.03 3028.71 1429.06 3025.28 1429.15 3021.05 1429.29L3019.73 1456.93C3025.62 1457.06 3033.06 1457.13 3042.02 1457.13 3048.29 1457.13 3058.38 1456.95 3072.27 1456.6 3071.78 1463.28 3071.33 1470.85 3070.93 1479.3 3054.18 1479.12 3044.66 1479.03 3042.38 1479.03 3035.54 1479.03 3027.55 1479.19 3018.43 1479.5L3017.11 1508.73 3023.08 1508.78C3028.32 1508.78 3035.32 1508.73 3044.08 1508.63L3062.99 1508.27 3077.72 1507.62C3077.11 1515.75 3076.67 1523.34 3076.4 1530.4 3060.03 1530.29 3045.74 1530.23 3033.54 1530.23L3004.72 1530.31 2985.59 1530.4 2988.14 1494.89 2989.98 1456.12 2991.11 1420.93 2991.11 1407.28C3005.53 1407.39 3021.16 1407.45 3037.98 1407.45L3054.79 1407.36ZM2874.23 1407.27C2871.82 1439.28 2870.29 1480.33 2869.64 1530.4L2854.92 1530.23C2852.75 1530.23 2847.07 1530.29 2837.86 1530.4 2839.26 1508.99 2840.4 1487.75 2841.27 1466.69 2842.14 1445.62 2842.57 1429.55 2842.57 1418.46L2842.49 1407.28 2858.93 1407.46C2861 1407.45 2866.1 1407.39 2874.23 1407.27ZM2482.01 1407.27 2480.83 1429.78 2470.65 1429.34C2468.35 1429.22 2465.22 1429.14 2461.24 1429.08 2457.26 1429.02 2453.16 1428.99 2448.96 1428.99 2439.86 1428.99 2433.98 1429.01 2431.35 1429.03 2428.71 1429.06 2425.28 1429.15 2421.05 1429.29L2419.73 1456.93C2425.63 1457.06 2433.06 1457.13 2442.02 1457.13 2448.29 1457.13 2458.38 1456.95 2472.27 1456.6 2471.78 1463.28 2471.33 1470.85 2470.93 1479.3 2454.18 1479.12 2444.66 1479.03 2442.38 1479.03 2435.54 1479.03 2427.55 1479.19 2418.43 1479.5L2417.11 1508.73 2423.08 1508.78C2428.32 1508.78 2435.32 1508.73 2444.08 1508.63L2462.99 1508.27 2477.72 1507.62C2477.11 1515.75 2476.67 1523.34 2476.4 1530.4 2460.03 1530.29 2445.74 1530.23 2433.54 1530.23L2404.72 1530.31 2385.59 1530.4 2388.14 1494.89 2389.98 1456.12 2391.11 1420.93 2391.11 1407.28C2405.53 1407.39 2421.16 1407.45 2437.98 1407.45L2454.79 1407.36ZM2273.47 1407.27C2291.49 1407.39 2309.7 1407.45 2328.1 1407.45L2359.59 1407.36 2378.33 1407.27C2377.75 1416.6 2377.45 1424.19 2377.45 1430.06 2365.55 1429.52 2354.78 1429.25 2345.14 1429.25L2340.13 1429.25 2339.17 1443.72 2336.6 1505.12 2336.43 1515.37C2336.39 1518.4 2336.37 1523.41 2336.37 1530.4L2321.2 1530.23C2319.74 1530.23 2314.39 1530.29 2305.15 1530.4L2307.08 1502.85 2309 1464.81 2310.22 1429.25 2305.9 1429.25 2300.19 1429.34 2294.75 1429.43 2272.66 1430.06C2273.13 1420.38 2273.4 1412.78 2273.47 1407.27ZM2140.29 1407.27C2147.18 1407.39 2153.54 1407.45 2159.35 1407.45 2163.89 1407.45 2169.36 1407.39 2175.78 1407.28 2182.57 1419.11 2191.79 1434.33 2203.46 1452.92 2215.13 1471.52 2223.5 1486.63 2228.58 1498.27L2231.61 1418.61C2231.66 1416.76 2231.69 1412.99 2231.69 1407.27 2237.49 1407.39 2242.24 1407.45 2245.91 1407.45 2248.11 1407.45 2252.82 1407.39 2260.05 1407.27L2257.83 1441.39 2255.12 1496.37 2254.02 1530.4C2246.69 1530.29 2240.92 1530.23 2236.7 1530.23 2233.3 1530.23 2227.45 1530.29 2219.14 1530.4 2215.93 1524.69 2213.55 1520.56 2212.01 1518 2209.47 1513.91 2204.37 1505.98 2196.72 1494.21 2191.4 1485.98 2184.97 1475.81 2177.43 1463.7 2171.6 1454.29 2167.79 1446.63 2165.98 1440.71 2165.71 1449.12 2165.07 1466.1 2164.07 1491.65 2163.66 1502.12 2163.32 1515.04 2163.07 1530.4 2156.32 1530.29 2151.75 1530.23 2149.34 1530.23 2147.43 1530.23 2142.55 1530.29 2134.68 1530.4 2135.8 1518.6 2136.66 1506.02 2137.25 1492.65L2139.27 1449.65C2139.95 1434.64 2140.29 1420.51 2140.29 1407.27ZM2119.01 1407.27 2117.83 1429.78 2107.65 1429.34C2105.35 1429.22 2102.22 1429.14 2098.24 1429.08 2094.26 1429.02 2090.16 1428.99 2085.96 1428.99 2076.86 1428.99 2070.98 1429.01 2068.35 1429.03 2065.71 1429.06 2062.28 1429.15 2058.05 1429.29L2056.73 1456.93C2062.63 1457.06 2070.06 1457.13 2079.02 1457.13 2085.29 1457.13 2095.38 1456.95 2109.27 1456.6 2108.78 1463.28 2108.33 1470.85 2107.93 1479.3 2091.18 1479.12 2081.66 1479.03 2079.38 1479.03 2072.54 1479.03 2064.55 1479.19 2055.43 1479.5L2054.11 1508.73 2060.08 1508.78C2065.32 1508.78 2072.32 1508.73 2081.08 1508.63L2099.99 1508.27 2114.72 1507.62C2114.11 1515.75 2113.67 1523.34 2113.4 1530.4 2097.03 1530.29 2082.74 1530.23 2070.54 1530.23L2041.72 1530.31 2022.59 1530.4 2025.14 1494.89 2026.98 1456.12 2028.11 1420.93 2028.11 1407.28C2042.53 1407.39 2058.16 1407.45 2074.98 1407.45L2091.79 1407.36ZM2776.52 1406.92C2783.32 1406.92 2789.51 1407.31 2795.08 1408.1 2800.65 1408.89 2805.63 1410.74 2810.02 1413.65 2814.42 1416.55 2817.69 1420.1 2819.86 1424.3 2822.02 1428.49 2823.1 1433.3 2823.1 1438.73 2823.1 1442.07 2822.7 1445.31 2821.89 1448.46 2821.08 1451.61 2819.89 1454.55 2818.31 1457.29 2816.74 1460.04 2814.89 1462.43 2812.75 1464.47 2810.62 1466.51 2808.47 1468.14 2806.33 1469.36 2804.18 1470.57 2801.76 1471.6 2799.09 1472.45 2796.41 1473.31 2793.38 1474.12 2790 1474.89L2795.72 1484.51C2797.63 1488.15 2801.27 1494.74 2806.65 1504.26L2815.5 1519.77C2815.97 1520.59 2817.46 1524.14 2819.97 1530.4 2811.52 1530.29 2806.18 1530.23 2803.95 1530.23 2801.16 1530.23 2795.81 1530.29 2787.89 1530.4L2777.62 1505.71C2776.26 1502.85 2774.27 1498.77 2771.66 1493.47L2760.92 1471.74C2759.99 1470.03 2758.53 1466.32 2756.55 1460.62 2761.66 1461.33 2765.82 1461.69 2769.03 1461.69 2773.84 1461.69 2778.18 1460.93 2782.03 1459.41 2785.89 1457.89 2788.83 1455.58 2790.85 1452.48 2792.87 1449.38 2793.88 1445.99 2793.88 1442.32 2793.88 1440.17 2793.46 1438.17 2792.61 1436.33 2791.76 1434.49 2790.34 1432.92 2788.33 1431.64 2786.32 1430.36 2783.8 1429.52 2780.77 1429.13 2777.73 1428.74 2774.72 1428.54 2771.73 1428.54 2770 1428.54 2767.6 1428.57 2764.55 1428.63 2761.5 1428.69 2758.35 1428.72 2755.09 1428.72L2753.61 1463.06 2751.93 1530.4 2736.53 1530.23C2734.39 1530.23 2729.38 1530.29 2721.5 1530.4 2723.24 1511.65 2724.54 1491 2725.4 1468.46 2726.27 1445.92 2726.7 1425.52 2726.7 1407.27 2733.78 1407.39 2740.24 1407.45 2746.1 1407.45 2751.65 1407.45 2756.87 1407.36 2761.75 1407.18 2766.63 1407.01 2771.55 1406.92 2776.52 1406.92ZM2670.13 1406.92C2678.35 1406.92 2683.86 1407.5 2686.66 1408.67 2692.17 1410.12 2696.55 1412.31 2699.79 1415.24 2703.03 1418.18 2705.49 1421.67 2707.14 1425.73 2708.99 1430.29 2709.92 1435.15 2709.92 1440.32 2709.92 1448.16 2707.94 1455.32 2703.99 1461.79 2700.03 1468.26 2694.59 1473.08 2687.65 1476.24 2680.71 1479.41 2673.04 1480.99 2664.62 1480.99 2660.53 1480.99 2655.79 1480.49 2650.41 1479.49 2648.99 1472.76 2647.44 1465.96 2645.76 1459.1 2650.65 1459.87 2654.82 1460.26 2658.29 1460.26 2662.89 1460.26 2666.81 1459.59 2670.07 1458.25 2673.34 1456.91 2675.92 1454.74 2677.83 1451.73 2679.74 1448.72 2680.7 1445.33 2680.7 1441.56 2680.7 1439.37 2680.32 1437.39 2679.56 1435.6 2678.8 1433.82 2677.7 1432.4 2676.26 1431.34 2674.82 1430.27 2673.18 1429.54 2671.35 1429.14 2669.52 1428.74 2666.83 1428.54 2663.28 1428.54 2660.06 1428.54 2656.79 1428.6 2653.47 1428.72 2650.14 1428.84 2647.77 1428.89 2646.34 1428.89 2645.7 1439.24 2645.2 1449.62 2644.85 1460.03L2643.76 1494.17C2643.44 1504.89 2643.28 1513.34 2643.28 1519.51 2643.28 1522.8 2643.31 1526.43 2643.37 1530.4L2628.79 1530.23C2627.17 1530.23 2622.2 1530.29 2613.86 1530.4L2615.45 1507.68 2617.64 1461.73 2618.69 1428.36C2618.75 1425.42 2618.78 1422.4 2618.78 1419.31 2618.78 1417.05 2618.75 1413.03 2618.69 1407.27 2626.16 1407.39 2632.83 1407.45 2638.69 1407.45 2643.1 1407.45 2648.63 1407.36 2655.28 1407.18 2661.94 1407.01 2666.88 1406.92 2670.13 1406.92ZM2552.52 1406.92C2559.32 1406.92 2565.51 1407.31 2571.08 1408.1 2576.65 1408.89 2581.63 1410.74 2586.02 1413.65 2590.42 1416.55 2593.69 1420.1 2595.86 1424.3 2598.02 1428.49 2599.1 1433.3 2599.1 1438.73 2599.1 1442.07 2598.7 1445.31 2597.89 1448.46 2597.08 1451.61 2595.89 1454.55 2594.31 1457.29 2592.74 1460.04 2590.89 1462.43 2588.75 1464.47 2586.62 1466.51 2584.47 1468.14 2582.33 1469.36 2580.18 1470.57 2577.76 1471.6 2575.09 1472.45 2572.41 1473.31 2569.38 1474.12 2566 1474.89L2571.72 1484.51C2573.63 1488.15 2577.27 1494.74 2582.65 1504.26L2591.5 1519.77C2591.97 1520.59 2593.46 1524.14 2595.97 1530.4 2587.52 1530.29 2582.18 1530.23 2579.95 1530.23 2577.16 1530.23 2571.81 1530.29 2563.89 1530.4L2553.62 1505.71C2552.26 1502.85 2550.27 1498.77 2547.66 1493.47L2536.92 1471.74C2535.99 1470.03 2534.53 1466.32 2532.55 1460.62 2537.66 1461.33 2541.82 1461.69 2545.03 1461.69 2549.84 1461.69 2554.18 1460.93 2558.03 1459.41 2561.89 1457.89 2564.83 1455.58 2566.85 1452.48 2568.87 1449.38 2569.88 1445.99 2569.88 1442.32 2569.88 1440.17 2569.46 1438.17 2568.61 1436.33 2567.76 1434.49 2566.34 1432.92 2564.33 1431.64 2562.32 1430.36 2559.8 1429.52 2556.77 1429.13 2553.73 1428.74 2550.72 1428.54 2547.73 1428.54 2546 1428.54 2543.6 1428.57 2540.55 1428.63 2537.5 1428.69 2534.35 1428.72 2531.09 1428.72L2529.61 1463.06 2527.93 1530.4 2512.53 1530.23C2510.39 1530.23 2505.38 1530.29 2497.5 1530.4 2499.24 1511.65 2500.54 1491 2501.4 1468.46 2502.27 1445.92 2502.7 1425.52 2502.7 1407.27 2509.78 1407.39 2516.24 1407.45 2522.1 1407.45 2527.65 1407.45 2532.87 1407.36 2537.75 1407.18 2542.63 1407.01 2547.55 1406.92 2552.52 1406.92ZM3140.82 1405.13C3149.21 1405.13 3159.21 1406.25 3170.81 1408.5 3171.13 1415.37 3171.75 1423.42 3172.65 1432.65 3162.05 1429.13 3153.03 1427.38 3145.6 1427.38 3140.32 1427.38 3136.06 1428.53 3132.83 1430.84 3129.59 1433.15 3127.97 1435.72 3127.97 1438.56 3127.97 1439.37 3128.09 1440.23 3128.31 1441.14 3128.54 1442.04 3128.87 1442.91 3129.3 1443.73 3129.73 1444.55 3130.56 1445.68 3131.78 1447.14 3133.01 1448.59 3134.86 1450.35 3137.35 1452.4 3139.83 1454.45 3142 1456.14 3143.84 1457.48L3154.79 1467.42C3157.46 1469.64 3159.88 1471.83 3162.05 1474 3164.21 1476.17 3166.09 1478.28 3167.7 1480.35 3169.31 1482.42 3170.59 1484.43 3171.53 1486.39 3172.48 1488.34 3173.19 1490.33 3173.65 1492.35 3174.12 1494.37 3174.35 1496.48 3174.35 1498.68 3174.35 1503.85 3173.14 1508.75 3170.71 1513.39 3168.28 1518.03 3164.82 1521.82 3160.34 1524.77 3155.85 1527.72 3150.98 1529.75 3145.73 1530.87 3140.47 1531.99 3134.92 1532.55 3129.09 1532.55 3125.18 1532.55 3120.74 1532.22 3115.76 1531.58 3110.78 1530.94 3103.75 1529.6 3094.68 1527.58 3094.17 1517.95 3093.54 1509.63 3092.77 1502.61 3105.68 1507.8 3116.68 1510.39 3125.77 1510.39 3129.31 1510.39 3132.57 1509.87 3135.53 1508.82 3138.5 1507.78 3140.65 1506.37 3141.98 1504.59 3143.3 1502.81 3143.97 1500.84 3143.97 1498.68 3143.97 1496.98 3143.66 1495.46 3143.03 1494.14 3142.02 1492.19 3140.16 1490 3137.46 1487.57 3134.23 1484.47 3128.21 1478.82 3119.38 1470.6 3115.87 1468.19 3113.56 1466.28 3112.47 1464.88 3108.23 1461.18 3105.12 1457.93 3103.14 1455.11 3101.16 1452.3 3099.74 1449.51 3098.88 1446.75 3098.02 1443.99 3097.59 1441 3097.59 1437.76 3097.59 1431.9 3099.22 1426.42 3102.46 1421.32 3105.71 1416.22 3110.52 1412.24 3116.92 1409.4 3123.31 1406.55 3131.28 1405.13 3140.82 1405.13ZM2934.82 1405.13C2943.21 1405.13 2953.21 1406.25 2964.8 1408.5 2965.13 1415.37 2965.75 1423.42 2966.65 1432.65 2956.05 1429.13 2947.03 1427.38 2939.6 1427.38 2934.32 1427.38 2930.06 1428.53 2926.83 1430.84 2923.59 1433.15 2921.97 1435.72 2921.97 1438.56 2921.97 1439.37 2922.09 1440.23 2922.31 1441.14 2922.54 1442.04 2922.87 1442.91 2923.3 1443.73 2923.73 1444.55 2924.56 1445.68 2925.78 1447.14 2927.01 1448.59 2928.86 1450.35 2931.35 1452.4 2933.83 1454.45 2936 1456.14 2937.84 1457.48L2948.79 1467.42C2951.46 1469.64 2953.88 1471.83 2956.05 1474 2958.21 1476.17 2960.09 1478.28 2961.7 1480.35 2963.31 1482.42 2964.59 1484.43 2965.53 1486.39 2966.48 1488.34 2967.19 1490.33 2967.65 1492.35 2968.12 1494.37 2968.35 1496.48 2968.35 1498.68 2968.35 1503.85 2967.14 1508.75 2964.71 1513.39 2962.28 1518.03 2958.82 1521.82 2954.34 1524.77 2949.85 1527.72 2944.98 1529.75 2939.73 1530.87 2934.47 1531.99 2928.92 1532.55 2923.09 1532.55 2919.18 1532.55 2914.74 1532.22 2909.76 1531.58 2904.78 1530.94 2897.75 1529.6 2888.68 1527.58 2888.17 1517.95 2887.54 1509.63 2886.77 1502.61 2899.68 1507.8 2910.68 1510.39 2919.77 1510.39 2923.31 1510.39 2926.57 1509.87 2929.53 1508.82 2932.5 1507.78 2934.65 1506.37 2935.98 1504.59 2937.3 1502.81 2937.97 1500.84 2937.97 1498.68 2937.97 1496.98 2937.66 1495.46 2937.03 1494.14 2936.02 1492.19 2934.16 1490 2931.46 1487.57 2928.23 1484.47 2922.21 1478.82 2913.38 1470.6 2909.87 1468.19 2907.56 1466.28 2906.47 1464.88 2902.23 1461.18 2899.12 1457.93 2897.14 1455.11 2895.16 1452.3 2893.74 1449.51 2892.88 1446.75 2892.02 1443.99 2891.59 1441 2891.59 1437.76 2891.59 1431.9 2893.22 1426.42 2896.46 1421.32 2899.71 1416.22 2904.52 1412.24 2910.92 1409.4 2917.31 1406.55 2925.28 1405.13 2934.82 1405.13Z" fill="url(#fill5)" fill-rule="evenodd"/><text fill="#000000" fill-opacity="0" font-family="Arial,Arial_MSFontService,sans-serif" font-size="127.421" x="2022.59" y="1516.62">ENTERPRISES</text><path d="M0 0 1904.33 0.547474" stroke="url(#stroke6)" stroke-width="4.58333" stroke-linecap="round" stroke-miterlimit="8" fill="#A6A6A6" fill-rule="evenodd" transform="matrix(1 0 0 -1 1204.5 1364.05)"/><path d="M3127.96 1345.91C3137.34 1345.91 3143.76 1351.69 3145.82 1359.52L3154.18 1359.52C3158.96 1355.02 3161.71 1348.69 3164.26 1342.8 3169.79 1330.09 3174.58 1319.03 3193.05 1322.63 3194.64 1316.79 3200.03 1312.5 3206.45 1312.5 3214.11 1312.5 3220.33 1318.62 3220.33 1326.18 3220.33 1333.74 3214.11 1339.88 3206.45 1339.88 3200.92 1339.88 3196.16 1336.69 3193.92 1332.07L3193.88 1332.23C3191.87 1331.7 3190.09 1331.44 3188.48 1331.4 3179.42 1331.2 3176.33 1338.31 3172.83 1346.38 3172.62 1346.87 3172.4 1347.36 3172.19 1347.86 3170.48 1351.75 3168.65 1355.76 3166.16 1359.51L3243.07 1359.51 3243.07 1349.28 3243.07 1346.92 3245.61 1348.41 3273.5 1364.74 3243.06 1382.55 3243.06 1368.71 3184.37 1368.71C3186.92 1372.47 3188.79 1376.5 3190.51 1380.42 3190.78 1381.01 3191.03 1381.62 3191.3 1382.21 3194.84 1390.37 3197.97 1397.56 3207.29 1397.18 3208.54 1397.13 3209.9 1396.95 3211.4 1396.6L3211.4 1390.1C3211.4 1389.01 3212.31 1388.12 3213.4 1388.12L3237.75 1388.12C3238.85 1388.12 3239.75 1389.02 3239.75 1390.1L3239.75 1414.53C3239.75 1415.62 3238.85 1416.5 3237.75 1416.5L3213.4 1416.5C3212.31 1416.5 3211.4 1415.6 3211.4 1414.53L3211.4 1405.99C3193.05 1409.51 3188.24 1398.47 3182.74 1385.79 3180.12 1379.75 3177.29 1373.23 3172.27 1368.7L3145.83 1368.7C3143.76 1376.54 3137.35 1382.32 3127.97 1382.32 3118.56 1382.32 3109.5 1374.17 3109.5 1364.12 3109.5 1354.07 3118.56 1345.91 3127.96 1345.91L3127.96 1345.91Z" stroke="url(#stroke7)" stroke-width="1.31365" stroke-miterlimit="8" fill="url(#fill8)" fill-rule="evenodd"/><path d="M1204.4 1363.62C1191.61 1468.62 1128.48 1560.81 1035.22 1610.72" stroke="url(#stroke9)" stroke-width="4.58333" stroke-linecap="round" stroke-miterlimit="8" fill="none" fill-rule="evenodd"/></g></svg>