<svg width="1299" height="1559" xmlns="http://www.w3.org/2000/svg" xmlns:xlink="http://www.w3.org/1999/xlink" xml:space="preserve" overflow="hidden"><defs><clipPath id="clip0"><rect x="901" y="588" width="1299" height="1559"/></clipPath><linearGradient x1="783.796" y1="728.662" x2="2317.2" y2="2006.34" gradientUnits="userSpaceOnUse" spreadMethod="reflect" id="fill1"><stop offset="0" stop-color="#F2F2F2"/><stop offset="0.5" stop-color="#D9D9D9"/><stop offset="1" stop-color="#BFBFBF"/></linearGradient><radialGradient cx="2134349" cy="777240" r="2077188" gradientUnits="userSpaceOnUse" spreadMethod="pad" id="fill2" gradientTransform="matrix(0.000360892 0 0 0.000360892 1130.93 1233.32)"><stop offset="0" stop-color="#2F5597"/><stop offset="0.5" stop-color="#3B3838"/><stop offset="1" stop-color="#767171"/></radialGradient></defs><g clip-path="url(#clip0)" transform="translate(-901 -588)"><rect x="901" y="588" width="1299" height="1559" fill="url(#fill1)"/><path d="M1689.8 1360.11C1681.42 1360.11 1674.89 1362.67 1670.2 1367.79 1665.5 1372.91 1662.73 1380.38 1661.87 1390.19L1716.23 1390.19C1716.01 1380.45 1713.61 1373 1709.03 1367.85 1704.45 1362.69 1698.04 1360.11 1689.8 1360.11ZM1439.8 1360.11C1431.42 1360.11 1424.89 1362.67 1420.2 1367.79 1415.5 1372.91 1412.73 1380.38 1411.87 1390.19L1466.23 1390.19C1466.01 1380.45 1463.61 1373 1459.03 1367.85 1454.45 1362.69 1448.04 1360.11 1439.8 1360.11ZM1744.23 1348.19 1762.92 1348.19 1787.74 1432.62 1812.87 1348.19 1832.75 1348.19 1858.2 1432.52 1882.8 1348.19 1900.42 1348.19 1867.01 1452.82 1848 1452.82 1822.43 1367.63 1796.76 1452.82 1777.75 1452.82ZM1602.76 1348.19 1620.7 1348.19 1620.7 1452.82 1602.76 1452.82ZM1493.16 1348.19 1512.06 1348.19 1541.39 1435.2 1570.93 1348.19 1589.19 1348.19 1551.27 1452.82 1531.51 1452.82ZM1383.93 1346.9 1386.08 1346.9 1386.08 1363.34 1383.61 1363.34C1378.38 1363.34 1373.8 1364.02 1369.86 1365.38 1365.92 1366.74 1362.5 1368.62 1359.6 1371.02 1356.7 1373.42 1354.07 1376.19 1351.7 1379.34L1351.7 1452.82 1333.77 1452.82 1333.77 1348.19 1350.63 1348.19 1351.27 1365.91C1354.28 1360.54 1358.4 1356.03 1363.63 1352.38 1368.86 1348.73 1375.62 1346.9 1383.93 1346.9ZM1689.8 1346.36C1703.62 1346.36 1714.44 1350.66 1722.24 1359.25 1730.05 1367.85 1733.95 1380.2 1733.95 1396.31 1733.95 1397.39 1733.93 1398.66 1733.9 1400.13 1733.86 1401.6 1733.77 1402.65 1733.63 1403.3L1661.76 1403.3C1661.83 1410.1 1662.87 1416.35 1664.88 1422.04 1666.88 1427.74 1670.09 1432.3 1674.49 1435.74 1678.9 1439.18 1684.64 1440.89 1691.73 1440.89 1699.4 1440.89 1705.36 1439.01 1709.62 1435.26 1713.88 1431.5 1716.12 1426.07 1716.33 1418.98L1734.06 1418.98C1733.84 1426.36 1732 1432.71 1728.53 1438.05 1725.05 1443.38 1720.2 1447.5 1713.97 1450.4 1707.74 1453.3 1700.33 1454.75 1691.73 1454.75 1680.85 1454.75 1671.86 1452.37 1664.77 1447.61 1657.68 1442.85 1652.4 1436.36 1648.93 1428.17 1645.45 1419.97 1643.72 1410.74 1643.72 1400.5 1643.72 1389.83 1645.4 1380.43 1648.76 1372.31 1652.13 1364.18 1657.23 1357.82 1664.07 1353.24 1670.91 1348.66 1679.49 1346.36 1689.8 1346.36ZM1439.8 1346.36C1453.62 1346.36 1464.44 1350.66 1472.24 1359.25 1480.05 1367.85 1483.95 1380.2 1483.95 1396.31 1483.95 1397.39 1483.93 1398.66 1483.9 1400.13 1483.86 1401.6 1483.77 1402.65 1483.63 1403.3L1411.76 1403.3C1411.83 1410.1 1412.87 1416.35 1414.88 1422.04 1416.88 1427.74 1420.09 1432.3 1424.49 1435.74 1428.9 1439.18 1434.64 1440.89 1441.73 1440.89 1449.4 1440.89 1455.36 1439.01 1459.62 1435.26 1463.88 1431.5 1466.12 1426.07 1466.33 1418.98L1484.06 1418.98C1483.84 1426.36 1482 1432.71 1478.53 1438.05 1475.05 1443.38 1470.2 1447.5 1463.97 1450.4 1457.74 1453.3 1450.33 1454.75 1441.73 1454.75 1430.85 1454.75 1421.86 1452.37 1414.77 1447.61 1407.68 1442.85 1402.4 1436.36 1398.93 1428.17 1395.45 1419.97 1393.72 1410.74 1393.72 1400.5 1393.72 1389.83 1395.4 1380.43 1398.76 1372.31 1402.13 1364.18 1407.23 1357.82 1414.07 1353.24 1420.91 1348.66 1429.49 1346.36 1439.8 1346.36ZM1235.14 1324.13 1235.14 1379.77 1266.51 1379.77C1275.17 1379.77 1282.23 1377.53 1287.67 1373.06 1293.11 1368.58 1295.84 1361.8 1295.84 1352.7 1295.84 1342.96 1293.11 1335.76 1287.67 1331.11 1282.23 1326.45 1275.17 1324.13 1266.51 1324.13ZM1215.81 1308.23 1268.01 1308.23C1276.96 1308.23 1285 1309.93 1292.13 1313.33 1299.25 1316.73 1304.89 1321.75 1309.05 1328.37 1313.2 1334.99 1315.28 1343.1 1315.28 1352.7 1315.28 1362.08 1313.2 1369.96 1309.05 1376.33 1304.89 1382.71 1299.25 1387.54 1292.13 1390.84 1285 1394.13 1276.96 1395.78 1268.01 1395.78L1235.14 1395.78 1235.14 1452.82 1215.81 1452.82ZM1611.79 1307.69C1615.15 1307.69 1617.88 1308.68 1619.95 1310.65 1622.03 1312.61 1623.07 1315.1 1623.07 1318.11 1623.07 1321.12 1622.03 1323.61 1619.95 1325.58 1617.88 1327.55 1615.15 1328.53 1611.79 1328.53 1608.35 1328.53 1605.63 1327.55 1603.62 1325.58 1601.62 1323.61 1600.62 1321.12 1600.62 1318.11 1600.62 1315.1 1601.62 1312.61 1603.62 1310.65 1605.63 1308.68 1608.35 1307.69 1611.79 1307.69Z" fill="url(#fill2)" fill-rule="evenodd"/><text fill="#000000" fill-opacity="0" font-family="Arial,Arial_MSFontService,sans-serif" font-size="147.061" x="1215.81" y="1436.37">Preview</text></g></svg>