<svg width="1299" height="1299" xmlns="http://www.w3.org/2000/svg" xmlns:xlink="http://www.w3.org/1999/xlink" xml:space="preserve" overflow="hidden"><defs><clipPath id="clip0"><rect x="901" y="588" width="1299" height="1299"/></clipPath><linearGradient x1="901" y1="588" x2="2200" y2="1887" gradientUnits="userSpaceOnUse" spreadMethod="reflect" id="fill1"><stop offset="0" stop-color="#F2F2F2"/><stop offset="0.5" stop-color="#D9D9D9"/><stop offset="1" stop-color="#BFBFBF"/></linearGradient><radialGradient cx="2134349" cy="777240" r="2077188" gradientUnits="userSpaceOnUse" spreadMethod="pad" id="fill2" gradientTransform="matrix(0.000360892 0 0 0.000360892 1130.93 1087.55)"><stop offset="0" stop-color="#2F5597"/><stop offset="0.5" stop-color="#3B3838"/><stop offset="1" stop-color="#767171"/></radialGradient></defs><g clip-path="url(#clip0)" transform="translate(-901 -588)"><rect x="901" y="588" width="1299" height="1299" fill="url(#fill1)"/><path d="M1689.8 1214.34C1681.42 1214.34 1674.89 1216.9 1670.2 1222.02 1665.5 1227.14 1662.73 1234.61 1661.87 1244.42L1716.23 1244.42C1716.01 1234.68 1713.61 1227.23 1709.03 1222.07 1704.45 1216.92 1698.04 1214.34 1689.8 1214.34ZM1439.8 1214.34C1431.42 1214.34 1424.89 1216.9 1420.2 1222.02 1415.5 1227.14 1412.73 1234.61 1411.87 1244.42L1466.23 1244.42C1466.01 1234.68 1463.61 1227.23 1459.03 1222.07 1454.45 1216.92 1448.04 1214.34 1439.8 1214.34ZM1744.23 1202.42 1762.92 1202.42 1787.74 1286.85 1812.87 1202.42 1832.75 1202.42 1858.2 1286.74 1882.8 1202.42 1900.42 1202.42 1867.01 1307.05 1848 1307.05 1822.43 1221.86 1796.76 1307.05 1777.75 1307.05ZM1602.76 1202.42 1620.7 1202.42 1620.7 1307.05 1602.76 1307.05ZM1493.16 1202.42 1512.06 1202.42 1541.39 1289.43 1570.93 1202.42 1589.19 1202.42 1551.27 1307.05 1531.51 1307.05ZM1383.93 1201.13 1386.08 1201.13 1386.08 1217.56 1383.61 1217.56C1378.38 1217.56 1373.8 1218.24 1369.86 1219.6 1365.92 1220.96 1362.5 1222.84 1359.6 1225.24 1356.7 1227.64 1354.07 1230.42 1351.7 1233.57L1351.7 1307.05 1333.77 1307.05 1333.77 1202.42 1350.63 1202.42 1351.27 1220.14C1354.28 1214.77 1358.4 1210.26 1363.63 1206.61 1368.86 1202.95 1375.62 1201.13 1383.93 1201.13ZM1689.8 1200.59C1703.62 1200.59 1714.44 1204.89 1722.24 1213.48 1730.05 1222.07 1733.95 1234.43 1733.95 1250.54 1733.95 1251.62 1733.93 1252.89 1733.9 1254.35 1733.86 1255.82 1733.77 1256.88 1733.63 1257.52L1661.76 1257.52C1661.83 1264.33 1662.87 1270.58 1664.88 1276.27 1666.88 1281.96 1670.09 1286.53 1674.49 1289.97 1678.9 1293.4 1684.64 1295.12 1691.73 1295.12 1699.4 1295.12 1705.36 1293.24 1709.62 1289.48 1713.88 1285.72 1716.12 1280.3 1716.33 1273.21L1734.06 1273.21C1733.84 1280.58 1732 1286.94 1728.53 1292.27 1725.05 1297.61 1720.2 1301.73 1713.97 1304.63 1707.74 1307.53 1700.33 1308.98 1691.73 1308.98 1680.85 1308.98 1671.86 1306.6 1664.77 1301.84 1657.68 1297.07 1652.4 1290.59 1648.93 1282.39 1645.45 1274.19 1643.72 1264.97 1643.72 1254.73 1643.72 1244.06 1645.4 1234.66 1648.76 1226.53 1652.13 1218.4 1657.23 1212.05 1664.07 1207.47 1670.91 1202.88 1679.49 1200.59 1689.8 1200.59ZM1439.8 1200.59C1453.62 1200.59 1464.44 1204.89 1472.24 1213.48 1480.05 1222.07 1483.95 1234.43 1483.95 1250.54 1483.95 1251.62 1483.93 1252.89 1483.9 1254.35 1483.86 1255.82 1483.77 1256.88 1483.63 1257.52L1411.76 1257.52C1411.83 1264.33 1412.87 1270.58 1414.88 1276.27 1416.88 1281.96 1420.09 1286.53 1424.49 1289.97 1428.9 1293.4 1434.64 1295.12 1441.73 1295.12 1449.4 1295.12 1455.36 1293.24 1459.62 1289.48 1463.88 1285.72 1466.12 1280.3 1466.33 1273.21L1484.06 1273.21C1483.84 1280.58 1482 1286.94 1478.53 1292.27 1475.05 1297.61 1470.2 1301.73 1463.97 1304.63 1457.74 1307.53 1450.33 1308.98 1441.73 1308.98 1430.85 1308.98 1421.86 1306.6 1414.77 1301.84 1407.68 1297.07 1402.4 1290.59 1398.93 1282.39 1395.45 1274.19 1393.72 1264.97 1393.72 1254.73 1393.72 1244.06 1395.4 1234.66 1398.76 1226.53 1402.13 1218.4 1407.23 1212.05 1414.07 1207.47 1420.91 1202.88 1429.49 1200.59 1439.8 1200.59ZM1235.14 1178.35 1235.14 1234 1266.51 1234C1275.17 1234 1282.23 1231.76 1287.67 1227.28 1293.11 1222.81 1295.84 1216.02 1295.84 1206.93 1295.84 1197.19 1293.11 1189.99 1287.67 1185.34 1282.23 1180.68 1275.17 1178.35 1266.51 1178.35ZM1215.81 1162.46 1268.01 1162.46C1276.96 1162.46 1285 1164.16 1292.13 1167.56 1299.25 1170.96 1304.89 1175.97 1309.05 1182.6 1313.2 1189.22 1315.28 1197.33 1315.28 1206.93 1315.28 1216.31 1313.2 1224.19 1309.05 1230.56 1304.89 1236.93 1299.25 1241.77 1292.13 1245.06 1285 1248.36 1276.96 1250 1268.01 1250L1235.14 1250 1235.14 1307.05 1215.81 1307.05ZM1611.79 1161.92C1615.15 1161.92 1617.88 1162.9 1619.95 1164.87 1622.03 1166.84 1623.07 1169.33 1623.07 1172.34 1623.07 1175.35 1622.03 1177.83 1619.95 1179.8 1617.88 1181.77 1615.15 1182.76 1611.79 1182.76 1608.35 1182.76 1605.63 1181.77 1603.62 1179.8 1601.62 1177.83 1600.62 1175.35 1600.62 1172.34 1600.62 1169.33 1601.62 1166.84 1603.62 1164.87 1605.63 1162.9 1608.35 1161.92 1611.79 1161.92Z" fill="url(#fill2)" fill-rule="evenodd"/><text fill="#000000" fill-opacity="0" font-family="Arial,Arial_MSFontService,sans-serif" font-size="147.061" x="1215.81" y="1290.6">Preview</text></g></svg>