<svg width="325" height="325" xmlns="http://www.w3.org/2000/svg" xmlns:xlink="http://www.w3.org/1999/xlink" xml:space="preserve" overflow="hidden"><defs><clipPath id="clip0"><rect x="1342" y="1075" width="325" height="325"/></clipPath></defs><g clip-path="url(#clip0)" transform="translate(-1342 -1075)"><rect x="1342" y="1075" width="325" height="325" fill="#FFFFFF"/><path d="M1544.22 1134C1546.12 1146.57 1540.88 1158.89 1533.97 1167.61 1526.57 1176.95 1513.83 1184.18 1501.48 1183.81 1499.23 1171.77 1505 1159.37 1512.02 1151.03 1519.72 1141.83 1532.93 1134.77 1544.22 1134ZM1581.32 1310.97C1587.68 1301.44 1590.06 1296.63 1595 1285.87 1559.06 1272.52 1553.3 1222.61 1588.87 1203.45 1578.02 1190.16 1562.77 1182.45 1548.38 1182.45 1538.01 1182.45 1530.91 1185.1 1524.45 1187.5 1519.07 1189.5 1514.13 1191.34 1508.13 1191.34 1501.65 1191.34 1495.9 1189.33 1489.89 1187.22 1483.28 1184.91 1476.35 1182.48 1467.74 1182.48 1451.59 1182.48 1434.4 1192.12 1423.5 1208.6 1408.18 1231.81 1410.8 1275.44 1435.64 1312.62 1444.52 1325.92 1456.39 1340.87 1471.91 1341 1478.34 1341.06 1482.63 1339.18 1487.27 1337.15 1492.57 1334.83 1498.34 1332.3 1508.33 1332.25 1518.38 1332.19 1524.05 1334.75 1529.29 1337.11 1533.81 1339.14 1538 1341.03 1544.38 1340.96 1559.91 1340.84 1572.43 1324.28 1581.32 1310.97Z" fill="#0B0B0A" fill-rule="evenodd"/></g></svg>