<svg width="324" height="323" xmlns="http://www.w3.org/2000/svg" xmlns:xlink="http://www.w3.org/1999/xlink" xml:space="preserve" overflow="hidden"><defs><clipPath id="clip0"><rect x="2323" y="1075" width="324" height="323"/></clipPath></defs><g clip-path="url(#clip0)" transform="translate(-2323 -1075)"><rect x="2323" y="1075" width="324" height="323" fill="#1877F2"/><path d="M2521.04 1246.04 2525.75 1213.53 2496.25 1213.53 2496.25 1192.45C2496.25 1183.55 2500.36 1174.87 2513.58 1174.87L2527 1174.87 2527 1147.2C2527 1147.2 2514.83 1145 2503.19 1145 2478.88 1145 2463.01 1160.57 2463.01 1188.76L2463.01 1213.53 2436 1213.53 2436 1246.04 2463.01 1246.04 2463.01 1324.64C2468.43 1325.54 2473.98 1326 2479.63 1326 2485.28 1326 2490.83 1325.54 2496.25 1324.64L2496.25 1246.04 2521.04 1246.04Z" fill="#FFFFFF" fill-rule="evenodd"/></g></svg>