<svg width="325" height="325" xmlns="http://www.w3.org/2000/svg" xmlns:xlink="http://www.w3.org/1999/xlink" xml:space="preserve" overflow="hidden"><defs><clipPath id="clip0"><rect x="2813" y="1070" width="325" height="325"/></clipPath></defs><g clip-path="url(#clip0)" transform="translate(-2813 -1070)"><rect x="2813" y="1070" width="325" height="325" fill="#333333"/><path d="M2975 1130C2918.13 1130 2872 1175.93 2872 1232.56 2872 1277.17 2900.59 1315.07 2940.5 1329.24 2940.69 1329.3 2941.39 1329.56 2941.58 1329.62 2942.15 1329.81 2942.78 1329.94 2943.42 1329.94 2946.79 1329.94 2949.46 1327.22 2949.46 1323.93 2949.46 1323.74 2949.46 1323.61 2949.46 1323.42L2949.46 1323.42C2949.46 1317.98 2949.46 1311.08 2949.46 1305.58 2942.91 1306.91 2933 1308.17 2927.6 1305.58 2920.61 1302.22 2917.05 1297.92 2913.68 1289.44 2909.49 1279.13 2899.83 1276.28 2899.45 1274.51 2899.07 1272.68 2909.68 1269.96 2915.14 1276.22 2920.61 1282.48 2926.14 1295.01 2937.89 1293.81 2943.67 1293.24 2947.42 1292.29 2949.77 1291.59 2950.22 1287.55 2951.55 1282.55 2954.92 1279 2927.28 1274.45 2908.85 1259.64 2908.85 1230.6 2908.85 1217.38 2912.67 1207.13 2919.4 1199.47 2918.26 1193.14 2916.35 1178.47 2921.44 1173.34 2921.44 1173.34 2928.61 1168.91 2949.2 1183.34 2956.89 1181.57 2965.41 1180.68 2974.49 1180.68L2974.49 1180.68C2974.68 1180.68 2974.81 1180.68 2975 1180.68 2975.19 1180.68 2975.32 1180.68 2975.51 1180.68L2975.51 1180.68C2984.66 1180.74 2993.17 1181.63 3000.8 1183.34 3021.39 1168.91 3028.57 1173.34 3028.57 1173.34 3033.65 1178.53 3031.74 1193.21 3030.6 1199.47 3037.33 1207.19 3041.15 1217.44 3041.15 1230.6 3041.15 1259.64 3022.78 1274.45 2995.08 1279 3000.35 1284.51 3000.54 1293.43 3000.54 1297.1 3000.54 1300.58 3000.54 1323.86 3000.54 1323.99 3000.54 1327.34 3003.28 1330 3006.58 1330 3007.09 1330 3007.53 1329.94 3008.04 1329.81 3008.17 1329.81 3008.55 1329.68 3008.68 1329.62 3049.03 1315.7 3078 1277.55 3078 1232.63 3078 1175.87 3031.87 1130 2975 1130Z" fill="#FFFFFF" fill-rule="evenodd"/></g></svg>