<svg width="325" height="325" xmlns="http://www.w3.org/2000/svg" xmlns:xlink="http://www.w3.org/1999/xlink" xml:space="preserve" overflow="hidden"><defs><clipPath id="clip0"><rect x="362" y="1075" width="325" height="325"/></clipPath></defs><g clip-path="url(#clip0)" transform="translate(-362 -1075)"><rect x="362" y="1075" width="325" height="325" fill="#FFFFFF"/><path d="M526.352 1169.9C546.185 1169.9 559.563 1178.9 567.192 1186.42L597 1155.84C578.692 1137.97 554.87 1127 526.352 1127 485.044 1127 449.368 1151.9 432 1188.14L466.15 1216C474.717 1189.25 498.422 1169.9 526.352 1169.9L526.352 1169.9Z" fill="#EA4335" fill-rule="evenodd"/><path d="M628 1239.62C628 1230.52 627.292 1223.88 625.757 1217L526 1217 526 1258.06 584.556 1258.06C583.375 1268.26 577 1283.63 562.833 1293.95L596.361 1321C616.431 1301.7 628 1273.3 628 1239.62L628 1239.62Z" fill="#4285F4" fill-rule="evenodd"/><path d="M466 1259.31C463.747 1252.45 462.443 1245.1 462.443 1237.5 462.443 1229.9 463.747 1222.55 465.881 1215.69L431.381 1188C424.15 1202.95 420 1219.73 420 1237.5 420 1255.27 424.15 1272.05 431.381 1287L466 1259.31 466 1259.31Z" fill="#FBBC05" fill-rule="evenodd"/><path d="M526.707 1348C555.367 1348 579.427 1338.14 597 1321.13L563.505 1294.01C554.541 1300.54 542.511 1305.1 526.707 1305.1 498.637 1305.1 474.813 1285.75 466.322 1259L432 1286.86C449.455 1323.1 485.191 1348 526.707 1348L526.707 1348Z" fill="#34A853" fill-rule="evenodd"/></g></svg>