<svg width="325" height="325" xmlns="http://www.w3.org/2000/svg" xmlns:xlink="http://www.w3.org/1999/xlink" xml:space="preserve" overflow="hidden"><defs><clipPath id="clip0"><rect x="4283" y="1085" width="325" height="325"/></clipPath><linearGradient x1="4529.56" y1="1051.38" x2="4361.44" y2="1443.62" gradientUnits="userSpaceOnUse" spreadMethod="reflect" id="fill1"><stop offset="0" stop-color="#833AB4"/><stop offset="0.15" stop-color="#833AB4"/><stop offset="0.35" stop-color="#D62976"/><stop offset="0.6" stop-color="#F77737"/><stop offset="0.85" stop-color="#FCAF45"/><stop offset="1" stop-color="#FCAF45"/></linearGradient></defs><g clip-path="url(#clip0)" transform="translate(-4283 -1085)"><rect x="4283" y="1085" width="325" height="325" fill="url(#fill1)"/><path d="M4446.5 1166.74C4472.3 1166.74 4475.34 1166.8 4485.58 1167.31 4495 1167.69 4500.06 1169.33 4503.48 1170.66 4507.97 1172.44 4511.19 1174.59 4514.54 1178.01 4517.89 1181.43 4520.04 1184.73 4521.82 1189.29 4523.14 1192.77 4524.66 1197.97 4525.17 1207.59 4525.67 1217.98 4525.74 1221.09 4525.74 1247.37 4525.74 1273.66 4525.67 1276.77 4525.17 1287.15 4524.79 1296.72 4523.21 1301.98 4521.82 1305.46 4520.04 1310.02 4517.96 1313.31 4514.54 1316.74 4511.19 1320.16 4507.97 1322.31 4503.48 1324.08 4500.06 1325.48 4494.94 1327.06 4485.58 1327.44 4475.4 1327.95 4472.3 1328.01 4446.5 1328.01 4420.7 1328.01 4417.66 1327.95 4407.42 1327.44 4398 1327.06 4392.94 1325.41 4389.52 1324.08 4385.03 1322.31 4381.81 1320.16 4378.46 1316.74 4375.1 1313.31 4372.96 1310.02 4371.18 1305.46 4369.86 1301.98 4368.34 1296.78 4367.83 1287.15 4367.33 1276.77 4367.26 1273.66 4367.26 1247.37 4367.26 1221.09 4367.33 1217.98 4367.83 1207.59 4368.21 1198.03 4369.79 1192.77 4371.18 1189.29 4372.96 1184.73 4375.04 1181.43 4378.46 1178.01 4381.81 1174.59 4385.03 1172.44 4389.52 1170.66 4392.94 1169.27 4398.06 1167.69 4407.42 1167.31 4417.6 1166.86 4420.7 1166.74 4446.5 1166.74M4446.5 1149C4420.26 1149 4416.97 1149.13 4406.72 1149.63 4396.48 1150.14 4389.4 1151.79 4383.26 1154.19 4376.88 1156.73 4371.5 1160.09 4366.19 1165.6 4360.81 1171.11 4357.53 1176.55 4355.06 1183.08 4352.66 1189.29 4351.01 1196.51 4350.57 1206.96 4350.06 1217.41 4350 1220.77 4350 1247.5 4350 1274.23 4350.13 1277.59 4350.57 1288.04 4351.07 1298.49 4352.72 1305.65 4355.06 1311.92 4357.53 1318.38 4360.81 1323.89 4366.19 1329.4 4371.56 1334.92 4376.94 1338.27 4383.26 1340.81 4389.4 1343.28 4396.48 1344.92 4406.72 1345.37 4417.03 1345.87 4420.32 1346 4446.5 1346 4472.68 1346 4476.03 1345.87 4486.28 1345.37 4496.52 1344.86 4503.6 1343.21 4509.74 1340.81 4516.12 1338.27 4521.5 1334.92 4526.81 1329.4 4532.19 1323.89 4535.47 1318.45 4537.94 1311.92 4540.34 1305.71 4541.99 1298.49 4542.43 1288.04 4542.94 1277.59 4543 1274.23 4543 1247.5 4543 1220.77 4542.87 1217.41 4542.43 1206.96 4541.92 1196.51 4540.28 1189.35 4537.94 1183.08 4535.47 1176.62 4532.19 1171.11 4526.81 1165.6 4521.44 1160.09 4516.06 1156.73 4509.74 1154.19 4503.6 1151.72 4496.52 1150.08 4486.28 1149.63 4476.03 1149.13 4472.68 1149 4446.5 1149L4446.5 1149Z" fill="#FFFFFF" fill-rule="evenodd"/><path d="M4446.5 1197C4419.1 1197 4397 1219.59 4397 1247.5 4397 1275.41 4419.16 1298 4446.5 1298 4473.84 1298 4496 1275.41 4496 1247.5 4496 1219.59 4473.84 1197 4446.5 1197ZM4446.5 1280.28C4428.76 1280.28 4414.36 1265.66 4414.36 1247.5 4414.36 1229.34 4428.76 1214.72 4446.5 1214.72 4464.24 1214.72 4478.64 1229.34 4478.64 1247.5 4478.64 1265.66 4464.24 1280.28 4446.5 1280.28Z" fill="#FFFFFF" fill-rule="evenodd"/><path d="M4510 1195C4510 1201.63 4504.63 1207 4498 1207 4491.37 1207 4486 1201.63 4486 1195 4486 1188.37 4491.37 1183 4498 1183 4504.63 1183 4510 1188.37 4510 1195Z" fill="#FFFFFF" fill-rule="evenodd"/></g></svg>