<svg width="325" height="325" xmlns="http://www.w3.org/2000/svg" xmlns:xlink="http://www.w3.org/1999/xlink" xml:space="preserve" overflow="hidden"><defs><clipPath id="clip0"><rect x="852" y="1086" width="325" height="325"/></clipPath></defs><g clip-path="url(#clip0)" transform="translate(-852 -1086)"><rect x="852" y="1086" width="325" height="325" fill="#0077B5"/><path d="M969.234 1187C969.234 1197.56 961.274 1206.01 948.494 1206.01L948.26 1206.01C935.955 1206.01 928 1197.56 928 1187 928 1176.21 936.197 1168 948.736 1168 961.274 1168 968.996 1176.21 969.234 1187ZM966.819 1221.02 966.819 1331 930.167 1331 930.167 1221.02 966.819 1221.02ZM1099 1331 1099 1267.94C1099 1234.16 1080.92 1218.44 1056.8 1218.44 1037.34 1218.44 1028.63 1229.11 1023.76 1236.6L1023.76 1221.02 987.107 1221.02C987.59 1231.34 987.107 1331 987.107 1331L1023.76 1331 1023.76 1269.58C1023.76 1266.29 1024 1263.01 1024.97 1260.66 1027.62 1254.09 1033.65 1247.29 1043.78 1247.29 1057.04 1247.29 1062.35 1257.38 1062.35 1272.16L1062.35 1331 1099 1331Z" fill="#FFFFFF" fill-rule="evenodd"/></g></svg>