<svg width="325" height="325" xmlns="http://www.w3.org/2000/svg" xmlns:xlink="http://www.w3.org/1999/xlink" xml:space="preserve" overflow="hidden"><defs><clipPath id="clip0"><rect x="4817" y="1097" width="325" height="325"/></clipPath><linearGradient x1="5063.56" y1="1063.38" x2="4895.44" y2="1455.62" gradientUnits="userSpaceOnUse" spreadMethod="reflect" id="fill1"><stop offset="0" stop-color="#37AEE2"/><stop offset="0.5" stop-color="#2AA2D5"/><stop offset="1" stop-color="#1E96C8"/></linearGradient></defs><g clip-path="url(#clip0)" transform="translate(-4817 -1097)"><rect x="4817" y="1097" width="325" height="325" fill="url(#fill1)"/><path d="M4877.79 1267.17C4896.72 1256.76 4917.85 1248.07 4937.59 1239.34 4971.55 1225.03 5005.64 1210.98 5040.08 1197.89 5046.78 1195.66 5058.82 1193.48 5060 1203.4 5059.35 1217.43 5056.69 1231.39 5054.87 1245.34 5050.24 1276.02 5044.89 1306.61 5039.67 1337.19 5037.87 1347.38 5025.09 1352.65 5016.92 1346.13 4997.27 1332.88 4977.46 1319.75 4958.06 1306.19 4951.71 1299.74 4957.6 1290.48 4963.27 1285.87 4979.46 1269.94 4996.63 1256.41 5011.97 1239.66 5016.1 1229.68 5003.88 1238.09 4999.85 1240.67 4977.69 1255.91 4956.07 1272.09 4932.71 1285.49 4920.78 1292.05 4906.87 1286.45 4894.94 1282.79 4884.24 1278.37 4868.57 1273.91 4877.79 1267.17L4877.79 1267.17Z" fill="#FFFFFF" fill-rule="evenodd"/></g></svg>