<svg width="325" height="325" xmlns="http://www.w3.org/2000/svg" xmlns:xlink="http://www.w3.org/1999/xlink" xml:space="preserve" overflow="hidden"><defs><clipPath id="clip0"><rect x="3301" y="1074" width="325" height="325"/></clipPath></defs><g clip-path="url(#clip0)" transform="translate(-3301 -1074)"><rect x="3301" y="1074" width="325" height="325" fill="#25D366"/><path d="M3468.41 1327.32 3468.37 1327.32C3452.2 1327.32 3436.32 1323.26 3422.21 1315.56L3371 1329 3384.7 1278.93C3376.25 1264.27 3371.8 1247.65 3371.81 1230.62 3371.83 1177.34 3415.16 1134 3468.41 1134 3494.25 1134.01 3518.5 1144.07 3536.74 1162.34 3554.97 1180.6 3565.01 1204.88 3565 1230.7 3564.98 1283.96 3521.66 1327.3 3468.41 1327.32ZM3424.58 1298.07 3427.51 1299.81C3439.84 1307.13 3453.97 1311 3468.37 1311.01L3468.41 1311.01C3512.66 1311.01 3548.67 1274.98 3548.69 1230.69 3548.7 1209.23 3540.36 1189.05 3525.2 1173.87 3510.04 1158.69 3489.88 1150.33 3468.44 1150.32 3424.15 1150.32 3388.14 1186.35 3388.12 1230.63 3388.11 1245.8 3392.36 1260.58 3400.39 1273.37L3402.3 1276.41 3394.19 1306.04 3424.58 1298.07ZM3513.76 1251.5C3515.45 1252.31 3516.59 1252.86 3517.07 1253.68 3517.67 1254.68 3517.67 1259.52 3515.66 1265.16 3513.65 1270.8 3504.01 1275.94 3499.37 1276.64 3495.21 1277.26 3489.95 1277.52 3484.17 1275.68 3480.66 1274.57 3476.17 1273.08 3470.41 1270.59 3447.78 1260.82 3432.49 1238.88 3429.6 1234.74 3429.4 1234.45 3429.26 1234.24 3429.18 1234.14L3429.16 1234.11C3427.88 1232.41 3419.32 1220.98 3419.32 1209.16 3419.32 1198.04 3424.78 1192.21 3427.3 1189.53 3427.47 1189.34 3427.63 1189.17 3427.77 1189.02 3429.98 1186.6 3432.6 1186 3434.21 1186 3435.82 1186 3437.43 1186.01 3438.83 1186.08 3439.01 1186.09 3439.19 1186.09 3439.37 1186.09 3440.78 1186.08 3442.53 1186.07 3444.26 1190.23 3444.93 1191.83 3445.9 1194.2 3446.93 1196.7 3449.01 1201.76 3451.3 1207.35 3451.71 1208.16 3452.31 1209.36 3452.71 1210.77 3451.91 1212.39 3451.79 1212.63 3451.67 1212.86 3451.57 1213.07 3450.96 1214.31 3450.52 1215.21 3449.49 1216.41 3449.09 1216.88 3448.67 1217.39 3448.26 1217.9 3447.43 1218.91 3446.6 1219.92 3445.87 1220.64 3444.66 1221.85 3443.41 1223.15 3444.81 1225.57 3446.22 1227.99 3451.07 1235.89 3458.24 1242.3 3465.95 1249.18 3472.66 1252.09 3476.06 1253.56 3476.72 1253.85 3477.26 1254.08 3477.65 1254.28 3480.06 1255.49 3481.47 1255.29 3482.88 1253.68 3484.29 1252.06 3488.91 1246.62 3490.52 1244.21 3492.13 1241.79 3493.74 1242.19 3495.95 1243 3498.17 1243.81 3510.03 1249.65 3512.44 1250.86 3512.92 1251.09 3513.36 1251.3 3513.76 1251.5Z" fill="#FDFDFD" fill-rule="evenodd"/></g></svg>