<svg width="325" height="325" xmlns="http://www.w3.org/2000/svg" xmlns:xlink="http://www.w3.org/1999/xlink" xml:space="preserve" overflow="hidden"><defs><clipPath id="clip0"><rect x="3789" y="1073" width="325" height="325"/></clipPath></defs><g clip-path="url(#clip0)" transform="translate(-3789 -1073)"><rect x="3789" y="1073" width="325" height="325" fill="#FF0000"/><path d="M4034.39 1195.36C4032.4 1187.74 4026.53 1181.74 4019.09 1179.7 4005.6 1176 3951.5 1176 3951.5 1176 3951.5 1176 3897.4 1176 3883.91 1179.7 3876.47 1181.74 3870.6 1187.74 3868.61 1195.36 3865 1209.18 3865 1238 3865 1238 3865 1238 3865 1266.82 3868.61 1280.64 3870.6 1288.26 3876.47 1294.26 3883.91 1296.3 3897.4 1300 3951.5 1300 3951.5 1300 3951.5 1300 4005.6 1300 4019.09 1296.3 4026.53 1294.26 4032.4 1288.26 4034.39 1280.64 4038 1266.82 4038 1238 4038 1238 4038 1238 4038 1209.18 4034.39 1195.36" fill="#FFFFFF" fill-rule="evenodd"/><path d="M3936 1268 3936 1214 3979 1241 3936 1268Z" fill="#FF0000" fill-rule="evenodd"/></g></svg>